<svg width="120" height="121" viewBox="0 0 120 121" fill="none" xmlns="http://www.w3.org/2000/svg">
<mask id="mask0_10_224276" style="mask-type:alpha" maskUnits="userSpaceOnUse" x="0" y="0" width="120" height="121">
<rect x="0.5" y="0.548828" width="119" height="119" rx="59.5" fill="white" stroke="#FDE7D3"/>
</mask>
<g mask="url(#mask0_10_224276)">
<path d="M43.9331 27.3145L45.7024 52.374C45.8425 54.3461 46.725 56.1917 48.172 57.5389C49.619 58.8861 51.5228 59.6346 53.4999 59.6338C54.57 59.6339 55.6288 59.4143 56.6106 58.9884C57.5923 58.5625 58.4761 57.9396 59.2072 57.1581C59.9383 56.3766 60.5011 55.4532 60.8606 54.4453C61.2201 53.4373 61.3688 52.3663 61.2973 51.2985C61.1414 48.9135 60.9989 46.9615 60.9989 46.9615C60.9989 46.9615 67.0675 46.0177 67.1428 39.9518C67.1858 36.4564 66.5808 28.4976 66.0673 22.4075C65.8975 20.4216 64.9886 18.5717 63.5202 17.2239C62.0519 15.876 60.1312 15.1284 58.138 15.1289H54.4624C52.9634 15.2163 51.4971 15.6036 50.1503 16.2679C48.8036 16.9322 47.6038 17.8599 46.6221 18.9961C45.6403 20.1323 44.8964 21.4539 44.4346 22.8828C43.9727 24.3116 43.8022 25.8186 43.9331 27.3145Z" fill="#B78876"/>
<path d="M61.0022 46.8885C61.0022 46.8885 57.168 47.2004 53.0945 44.6406C53.0945 44.6406 54.9632 49.0072 61.0157 48.4614L61.0022 46.8885Z" fill="#AA6550"/>
<path d="M64.1716 29.7499C64.1738 29.9759 64.0876 30.1938 63.9313 30.357C63.7751 30.5203 63.5612 30.616 63.3354 30.6237C63.2253 30.6325 63.1145 30.6192 63.0097 30.5845C62.9048 30.5499 62.8079 30.4946 62.7247 30.4219C62.6416 30.3493 62.5738 30.2607 62.5253 30.1615C62.4769 30.0622 62.4488 29.9543 62.4427 29.844C62.4404 29.6182 62.5261 29.4004 62.6817 29.2368C62.8374 29.0731 63.0506 28.9765 63.2762 28.9675C63.3866 28.9587 63.4977 28.9721 63.6029 29.0069C63.7081 29.0417 63.8053 29.0972 63.8887 29.1701C63.9721 29.243 64.0401 29.3318 64.0887 29.4314C64.1373 29.531 64.1655 29.6393 64.1716 29.7499Z" fill="#263238"/>
<path d="M65.01 28.5046C64.9024 28.6175 64.2464 28.1336 63.316 28.1362C62.3857 28.1389 61.7028 28.6041 61.5979 28.4912C61.5495 28.4401 61.6597 28.2223 61.9555 28.0179C62.359 27.739 62.8389 27.5915 63.3295 27.5958C63.8126 27.5938 64.2837 27.7465 64.6739 28.0314C64.9669 28.2519 65.0637 28.4562 65.01 28.5046Z" fill="#263238"/>
<path d="M55.0737 29.7497C55.0759 29.9757 54.9897 30.1936 54.8334 30.3568C54.6772 30.5201 54.4633 30.6158 54.2374 30.6235C54.1274 30.6323 54.0166 30.619 53.9118 30.5843C53.8069 30.5497 53.71 30.4944 53.6268 30.4217C53.5437 30.3491 53.4759 30.2605 53.4274 30.1613C53.379 30.062 53.3509 29.9541 53.3448 29.8438C53.3425 29.6175 53.4286 29.3994 53.5848 29.2356C53.741 29.0719 53.9549 28.9756 54.181 28.9672C54.2912 28.9588 54.402 28.9725 54.5069 29.0075C54.6118 29.0425 54.7086 29.098 54.7917 29.1709C54.8749 29.2437 54.9426 29.3325 54.991 29.4319C55.0395 29.5313 55.0675 29.6393 55.0737 29.7497Z" fill="#263238"/>
<path d="M55.8502 28.6752C55.7427 28.7881 55.0839 28.3014 54.1536 28.3041C53.2233 28.3068 52.5403 28.7747 52.4355 28.659C52.3871 28.608 52.4946 28.4063 52.7931 28.1885C53.1974 27.9109 53.6766 27.7628 54.167 27.7637C54.6496 27.7654 55.1196 27.9177 55.5114 28.1993C55.8045 28.4224 55.9013 28.6268 55.8502 28.6752Z" fill="#263238"/>
<path d="M59.2305 35.5912C59.2305 35.5374 59.8059 35.4379 60.7443 35.3223C60.9809 35.2954 61.2068 35.2497 61.2471 35.0857C61.2677 34.8401 61.2123 34.5942 61.0885 34.3812C60.8662 33.8058 60.6314 33.2017 60.384 32.569C59.408 29.9877 58.6981 27.8663 58.803 27.8286C58.9079 27.791 59.7844 29.8506 60.7631 32.4292C60.9979 33.0673 61.2229 33.6759 61.438 34.2548C61.5267 34.5237 61.6827 34.8302 61.559 35.1878C61.5252 35.2718 61.4724 35.3469 61.4048 35.4071C61.3372 35.4672 61.2565 35.5109 61.1691 35.5347C61.0379 35.5721 60.9022 35.5911 60.7658 35.5912C59.8194 35.6396 59.2332 35.6449 59.2305 35.5912Z" fill="#263238"/>
<path d="M56.4881 36.2345C56.6387 36.2345 56.6414 37.2374 57.5072 37.9553C58.373 38.6732 59.4485 38.563 59.4566 38.7028C59.4727 38.7673 59.2173 38.8991 58.7629 38.9125C58.1699 38.9208 57.593 38.72 57.1334 38.3452C56.6923 37.9849 56.4088 37.467 56.3429 36.9013C56.3053 36.4711 56.4182 36.2291 56.4881 36.2345Z" fill="#263238"/>
<path d="M56.0881 25.0243C55.9967 25.2932 55.0664 25.1588 53.972 25.2932C52.8777 25.4276 51.9931 25.7234 51.8479 25.4949C51.7833 25.3873 51.9366 25.148 52.2942 24.9033C52.7697 24.6029 53.3073 24.4146 53.8663 24.3526C54.4253 24.2907 54.9911 24.3567 55.5208 24.5457C55.9375 24.707 56.1284 24.9114 56.0881 25.0243Z" fill="#263238"/>
<path d="M64.668 25.8061C64.504 26.0185 63.8613 25.8061 63.0897 25.7872C62.318 25.7684 61.6646 25.9297 61.514 25.7093C61.4468 25.6017 61.549 25.3893 61.8367 25.1876C62.2204 24.9473 62.6669 24.8266 63.1194 24.841C63.5719 24.8554 64.0099 25.0041 64.3776 25.2683C64.6492 25.4834 64.7406 25.7173 64.668 25.8061Z" fill="#263238"/>
<path d="M45.9896 31.8669C45.8847 31.8212 41.8219 30.6355 41.9564 34.7816C42.0908 38.9277 46.2235 37.9409 46.2289 37.8199C46.2343 37.6989 45.9896 31.8669 45.9896 31.8669Z" fill="#B78876"/>
<path d="M44.8959 36.2894C44.8771 36.2894 44.826 36.3432 44.705 36.4023C44.5361 36.4805 44.3437 36.4911 44.1672 36.4319C43.7236 36.284 43.3337 35.6011 43.288 34.8536C43.2673 34.4985 43.3252 34.1432 43.4574 33.813C43.4935 33.6809 43.5614 33.5597 43.6551 33.4598C43.7488 33.36 43.8656 33.2846 43.9952 33.2403C44.0776 33.2158 44.1661 33.221 44.2451 33.2549C44.3242 33.2887 44.3889 33.3492 44.4281 33.4258C44.4872 33.5388 44.463 33.6221 44.4845 33.6302C44.506 33.6382 44.5733 33.5576 44.5329 33.3855C44.5063 33.284 44.4455 33.1948 44.3608 33.1328C44.3032 33.0912 44.2378 33.0615 44.1686 33.0453C44.0994 33.0292 44.0276 33.0269 43.9575 33.0386C43.7885 33.0781 43.6324 33.16 43.5039 33.2767C43.3755 33.3934 43.2789 33.541 43.2235 33.7055C43.0599 34.0708 42.9871 34.4702 43.0111 34.8697C43.0648 35.7059 43.5166 36.483 44.1215 36.6282C44.2342 36.6571 44.3519 36.6603 44.4659 36.6375C44.58 36.6147 44.6874 36.5664 44.7803 36.4964C44.8905 36.3916 44.912 36.2975 44.8959 36.2894Z" fill="#AA6550"/>
<path d="M43.6709 31.7269C44.3028 31.5736 45.3971 32.1571 45.666 32.7486C45.9348 33.3402 45.994 34.0124 46.2629 34.6066C46.5318 35.2008 47.1394 35.7332 47.774 35.5826C47.9884 35.5155 48.1812 35.3929 48.3328 35.2271C48.4844 35.0613 48.5894 34.8584 48.6371 34.6388C48.7285 34.1958 48.7331 33.7392 48.6505 33.2945C48.4058 31.3585 47.9998 29.4387 47.9219 27.4867C47.8439 25.5346 48.1208 23.51 49.1453 21.8402C50.1697 20.1705 52.0492 18.9551 53.9851 19.1138C55.273 19.216 56.4561 19.8882 57.7359 20.0683C58.4985 20.1692 59.274 20.0949 60.0036 19.8513C60.7332 19.6076 61.3977 19.2009 61.9466 18.6621C62.0864 18.5249 62.7317 18.0974 62.7317 18.0974C62.7317 17.9979 62.6376 17.1321 62.2961 16.8149C59.7552 14.4676 55.1789 13.8115 51.8233 14.6638C48.4677 15.5162 45.3218 17.8904 43.8779 21.0201C42.434 24.1499 42.8642 28.5487 43.6601 31.7215" fill="#263238"/>
<path d="M66.1239 21.4859C66.1239 21.4859 50.2117 16.3772 43.3284 30.133C43.3284 30.133 42.2986 26.6887 42.2986 24.8415C42.2986 23.6073 43.0353 16.2615 50.5962 13.9492C50.5962 13.9492 61.9832 9.60411 66.1239 21.4859Z" fill="#F68821"/>
<path d="M52.442 21.83C52.7247 22.2859 53.1094 22.6698 53.5658 22.9515C54.0222 23.2333 54.5378 23.4052 55.072 23.4537C55.6062 23.5022 56.1443 23.4259 56.644 23.231C57.1436 23.036 57.5912 22.7276 57.9514 22.3302C58.1096 22.7258 58.3876 23.0619 58.7466 23.2915C59.1055 23.5211 59.5273 23.6326 59.9527 23.6103C60.3782 23.5881 60.7861 23.4333 61.1191 23.1675C61.4521 22.9018 61.6937 22.5384 61.8098 22.1285C62.2412 22.6093 62.7688 22.9941 63.3585 23.2578C63.9635 23.481 64.7298 23.3949 65.125 22.8894C65.5203 22.3839 65.4127 21.5854 65.0148 21.0637C64.5802 20.5705 64.024 20.1997 63.4015 19.9882C61.5151 19.1586 59.4422 18.845 57.3948 19.0794C55.3647 19.3483 53.3992 20.3378 52.1301 21.9457" fill="#263238"/>
<g opacity="0.4">
<path d="M66.1227 21.4859C64.799 20.0909 62.9839 19.2663 61.0624 19.187C56.3678 18.9799 47.5835 21.6203 43.3164 30.133C43.3164 30.133 42.2866 26.6887 42.2866 24.8415C42.2866 23.6073 43.0233 16.2615 50.5842 13.9492C50.595 13.9492 61.982 9.60411 66.1227 21.4859Z" fill="black"/>
</g>
<path d="M43.9905 28.5232C46.3485 24.9121 49.602 21.9276 53.2614 19.6502C56.9209 17.3728 62.968 15.1061 67.1356 14.0037C68.3886 13.6703 69.6926 13.3799 70.9698 13.6004C72.247 13.8209 73.4946 14.6759 73.8092 15.9262C74.2071 17.4991 71.4161 19.9244 70.1067 20.8762C68.7973 21.8281 66.1219 23.2289 66.1219 23.2289C66.1219 23.2289 66.1595 20.3143 61.4918 19.7147C55.1463 18.8839 43.9905 28.5232 43.9905 28.5232Z" fill="#F68821"/>
<path d="M57.042 16.6307C57.042 16.6307 59.3329 15.3616 61.6372 15.0658C61.2524 14.7667 60.8325 14.5157 60.3869 14.3184C59.1362 14.5251 57.9269 14.9318 56.8054 15.5229L57.042 16.6307Z" fill="#E0E0E0"/>
<path d="M69.9568 52.1919L64.9099 51.0788L62.8557 50.5652L61.1456 47.9141C61.1456 47.9141 60.339 52.6544 57.2765 55.2061C56.8618 55.5453 56.3757 55.7864 55.8547 55.9112C55.3336 56.0359 54.7911 56.0412 54.2677 55.9267C53.5767 55.7815 52.7647 55.604 52.1624 55.4427C52.0333 55.4077 51.8935 55.362 51.7429 55.3082C49.5288 54.4861 47.6842 52.8952 46.5455 50.826C45.8679 49.6214 45.2952 48.3846 45.4915 47.9141L43.0958 52.8749L28.9796 59.3764L20.9644 78.9561L36.4975 83.5486L36.9815 99.6813L34.0561 120.019L77.999 120.049L76.4395 74.7993" fill="#F68821"/>
<path d="M58.5971 69.7095C58.5076 69.7167 58.4177 69.7167 58.3282 69.7095L57.5458 69.6907L54.7521 69.5912H54.6983V69.5455C54.6526 68.3329 54.5962 66.897 54.5343 65.3617C54.4617 63.1489 54.3972 61.1484 54.3461 59.6776C54.33 58.9624 54.3165 58.379 54.3058 57.9541C54.3058 57.7632 54.3058 57.6073 54.3058 57.4863C54.2988 57.4318 54.2988 57.3767 54.3058 57.3223C54.3181 57.3752 54.3245 57.4293 54.3246 57.4836C54.3246 57.6073 54.3434 57.7525 54.3542 57.9514C54.3757 58.3763 54.4053 58.9597 54.4402 59.6723C54.4994 61.143 54.58 63.1435 54.6688 65.3537C54.7225 66.8917 54.7709 68.3275 54.814 69.5401L54.7548 69.4837L57.5485 69.6315L58.3282 69.6826C58.4185 69.6818 58.5087 69.6908 58.5971 69.7095Z" fill="#263238"/>
<path d="M56.2068 63.173C56.2684 63.1299 56.3413 63.1056 56.4165 63.1031C56.5911 63.0917 56.7652 63.1311 56.9179 63.2165C57.0706 63.3019 57.1952 63.4297 57.2769 63.5844C57.3536 63.7353 57.3809 63.9065 57.3549 64.0738C57.3262 64.2633 57.2431 64.4405 57.1157 64.5837C56.9882 64.7269 56.8219 64.83 56.637 64.8804C56.4498 64.9197 56.2553 64.9066 56.0751 64.8425C55.8948 64.7785 55.7357 64.666 55.6152 64.5174C55.5176 64.3977 55.4492 64.2569 55.4156 64.1061C55.382 63.9553 55.3841 63.7988 55.4216 63.649C55.4634 63.445 55.5644 63.2579 55.712 63.1112C55.8142 63.0117 55.8895 62.9794 55.8922 62.9875C55.8949 62.9956 55.8384 63.044 55.7524 63.1488C55.6332 63.2961 55.5528 63.4708 55.5184 63.657C55.4911 63.7911 55.4943 63.9296 55.5278 64.0622C55.5614 64.1949 55.6243 64.3183 55.712 64.4233C55.8195 64.5501 55.959 64.6459 56.1159 64.7007C56.2729 64.7556 56.4416 64.7675 56.6047 64.7352C56.7634 64.6905 56.9061 64.6015 57.0161 64.4786C57.1261 64.3558 57.1988 64.2042 57.2258 64.0415C57.2482 63.9082 57.2331 63.7712 57.1823 63.6459C57.1315 63.5206 57.047 63.4118 56.9381 63.3317C56.7906 63.2139 56.608 63.1486 56.4192 63.1461C56.2794 63.1569 56.2068 63.1838 56.2068 63.173Z" fill="#263238"/>
<path d="M55.7306 57.4912C55.7928 57.4366 55.8693 57.4012 55.9511 57.389C56.1743 57.3418 56.4071 57.3762 56.6072 57.4858C56.7491 57.5582 56.8704 57.6655 56.9594 57.7977C57.0628 57.9525 57.1145 58.136 57.1073 58.322C57.0988 58.5341 57.0265 58.7387 56.8999 58.909C56.7732 59.0793 56.5981 59.2074 56.3974 59.2765C56.1923 59.329 55.9761 59.3198 55.7762 59.2499C55.5763 59.1801 55.4014 59.0528 55.2735 58.884C55.16 58.7383 55.0918 58.5625 55.0772 58.3785C55.0688 58.2198 55.0945 58.0612 55.1525 57.9133C55.236 57.7028 55.3837 57.5241 55.5747 57.4024C55.6412 57.3527 55.7204 57.3229 55.8032 57.3164C55.8032 57.3164 55.7252 57.3567 55.6069 57.4482C55.4406 57.5761 55.3154 57.75 55.2466 57.9483C55.1927 58.0903 55.1762 58.2438 55.1988 58.394C55.2214 58.5443 55.2823 58.6861 55.3757 58.806C55.4892 58.9509 55.6424 59.0598 55.8166 59.1195C55.9908 59.1791 56.1785 59.187 56.3571 59.1421C56.5302 59.0807 56.6814 58.9696 56.7919 58.8228C56.9023 58.6761 56.9671 58.5 56.9782 58.3166C56.9853 58.1659 56.9501 58.0163 56.8764 57.8846C56.8027 57.7529 56.6936 57.6446 56.5614 57.5718C56.3807 57.4653 56.1704 57.4201 55.9618 57.4428C55.814 57.4616 55.736 57.5019 55.7306 57.4912Z" fill="#263238"/>
<path d="M54.3005 79.1915C54.3005 79.1915 54.322 79.178 54.3678 79.1619L54.5694 79.0839C54.7496 79.0221 55.005 78.9091 55.3303 78.7586C56.2389 78.3005 57.0729 77.7076 57.804 77.0001C58.8789 75.9416 59.8288 74.7634 60.6353 73.4885C61.6439 71.9387 62.5649 70.3337 63.394 68.681C64.885 65.6685 66.1933 62.569 67.3116 59.3993C67.7499 58.1839 68.0913 57.1972 68.3306 56.5169L68.5995 55.7318C68.6291 55.6511 68.656 55.5839 68.6748 55.5301C68.6824 55.5068 68.6923 55.4843 68.7044 55.4629C68.7024 55.4877 68.697 55.5121 68.6883 55.5355C68.6721 55.5893 68.6506 55.6565 68.6264 55.7425C68.5646 55.9334 68.4812 56.1969 68.3764 56.5492C68.1532 57.2348 67.8251 58.227 67.3949 59.445C66.3055 62.6233 65.0104 65.7274 63.5177 68.7374C62.6865 70.3949 61.76 72.0028 60.7429 73.5531C59.9269 74.8347 58.9631 76.0161 57.8712 77.0727C57.1284 77.7791 56.2792 78.3643 55.3545 78.807C55.1016 78.923 54.8421 79.0245 54.5775 79.1108L54.3704 79.1753C54.3481 79.1842 54.3245 79.1897 54.3005 79.1915Z" fill="#263238"/>
<path d="M63.5574 73.8235C63.673 73.8235 66.3483 73.6406 66.3483 73.6406C66.3483 73.6406 65.2432 75.5927 64.0924 76.3294H61.7505L63.5574 73.8235Z" fill="#FAFAFA"/>
<path d="M53.833 85.1063C53.8788 85.0624 53.9293 85.0236 53.9836 84.9907L54.4353 84.6788C54.8252 84.4099 55.3871 84.0066 56.062 83.4876C57.4064 82.4578 59.1971 80.9199 61.1116 79.1614C62.0688 78.2822 62.9937 77.454 63.7842 76.6581C64.4936 75.9603 65.1522 75.2127 65.7551 74.421C66.1597 73.887 66.5194 73.3204 66.8306 72.7271C66.9489 72.5201 67.0215 72.3507 67.078 72.2378C67.1035 72.1782 67.135 72.1215 67.1721 72.0684C67.1548 72.1302 67.1324 72.1905 67.1049 72.2485C67.0565 72.3641 66.9893 72.5389 66.879 72.7513C66.5836 73.3582 66.2335 73.9369 65.8331 74.4802C65.2382 75.2853 64.583 76.0439 63.8729 76.7495C63.0798 77.5562 62.1602 78.387 61.203 79.2636C59.2886 81.022 57.4951 82.5546 56.1212 83.5656C55.4355 84.0738 54.8628 84.461 54.4649 84.7218C54.2632 84.8509 54.1046 84.945 53.997 85.0122C53.9461 85.0496 53.8911 85.0812 53.833 85.1063Z" fill="#263238"/>
<path d="M46.2915 114.987C46.2915 114.987 46.2915 114.962 46.3238 114.922C46.356 114.882 46.391 114.817 46.434 114.745C46.5335 114.591 46.6841 114.366 46.8857 114.081C47.289 113.516 47.9128 112.72 48.7356 111.784C50.3919 109.926 52.7123 107.391 55.2667 104.584L61.8515 97.4073L63.8547 95.2563L64.3924 94.6728L64.5376 94.525L64.5914 94.4766C64.5914 94.4766 64.578 94.4981 64.5484 94.533L64.4139 94.6917L63.8762 95.294L61.9053 97.4853L55.3715 104.67L48.8109 111.843C47.9801 112.768 47.3455 113.551 46.9287 114.105C46.7217 114.374 46.5631 114.602 46.4582 114.753L46.3372 114.922C46.3237 114.945 46.3085 114.966 46.2915 114.987Z" fill="#263238"/>
<path d="M69.6082 52.0684C69.8394 52.4152 75.0341 52.9933 76.3059 54.2624C77.5777 55.5315 90.2876 65.2327 90.2876 65.2327L81.2291 77.4236L75.3837 76.1357L69.6082 52.0684Z" fill="#F68821"/>
<path opacity="0.4" d="M88.7469 64.0508L78.5913 76.844L81.229 77.4248L90.2768 65.2204L88.7469 64.0508Z" fill="black"/>
<path d="M72.3724 64.7606C72.3269 64.6218 72.2919 64.4798 72.2676 64.3358C72.238 64.1987 72.2031 64.0293 72.1789 63.8303C72.1547 63.6313 72.1143 63.4055 72.1009 63.1527C72.0874 62.9 72.0605 62.615 72.0605 62.3273C72.0605 62.0396 72.0605 61.7142 72.0847 61.3808C72.137 60.6557 72.2494 59.9362 72.4208 59.2298C72.6038 58.5268 72.8458 57.8405 73.1441 57.1782C73.2866 56.8771 73.413 56.5867 73.5663 56.3286C73.7195 56.0705 73.8513 55.8312 73.9884 55.6187C74.1255 55.4063 74.2573 55.2235 74.3756 55.0595C74.4734 54.9188 74.5784 54.7833 74.6902 54.6535C74.7782 54.5367 74.8763 54.4278 74.9833 54.3281C74.9098 54.454 74.8262 54.5736 74.7332 54.6857C74.6499 54.7987 74.5477 54.9358 74.4401 55.1052C74.3326 55.2746 74.1954 55.4547 74.0718 55.6725C73.9481 55.8903 73.8029 56.1216 73.6684 56.3851C73.534 56.6486 73.3996 56.9228 73.2624 57.2293C72.9793 57.889 72.7474 58.5695 72.5687 59.2647C72.4013 59.9622 72.2871 60.6714 72.2273 61.3862C72.2084 61.7169 72.1842 62.0315 72.1923 62.3246C72.2004 62.6177 72.1923 62.8919 72.2138 63.1312C72.2353 63.3705 72.2515 63.6071 72.2703 63.8061C72.2891 64.0051 72.3133 64.1745 72.3348 64.3116C72.3618 64.4597 72.3744 64.6101 72.3724 64.7606Z" fill="#263238"/>
<path d="M76.441 74.7841C76.0246 73.9768 75.6504 73.1485 75.3198 72.3024C74.9453 71.4756 74.6132 70.6302 74.325 69.7695C74.7413 70.5763 75.1165 71.4037 75.4489 72.2486C75.8241 73.0757 76.1553 73.922 76.441 74.7841Z" fill="#263238"/>
<path d="M36.4983 65.9252C36.4768 65.9252 36.259 65.5353 35.8477 64.9303C35.3109 64.1423 34.6966 63.41 34.0139 62.7443C33.3278 62.0837 32.5785 61.492 31.7768 60.9778C31.1584 60.5852 30.7524 60.3809 30.7631 60.3594C30.8662 60.3878 30.9655 60.4284 31.0589 60.4804C31.322 60.6054 31.5787 60.7436 31.8279 60.8944C32.655 61.3873 33.422 61.9748 34.1134 62.6448C34.8025 63.3169 35.4123 64.0657 35.931 64.8765C36.1273 65.1884 36.2752 65.4466 36.3666 65.6321C36.4224 65.724 36.4666 65.8224 36.4983 65.9252Z" fill="#263238"/>
<path opacity="0.4" d="M20.9644 78.9484L21.5908 77.4238L38.7722 82.1023L38.0919 84.0141L20.9644 78.9484Z" fill="black"/>
<path d="M66.8333 72.9219H73.3751V75.6107L65.0049 75.5569C65.0049 75.5569 66.2982 74.0001 66.8333 72.9219Z" fill="#FAFAFA"/>
<g opacity="0.2">
<path d="M43.501 53.4682C43.7376 55.5655 43.9957 57.7299 45.0336 59.5691C46.0715 61.4082 48.1015 62.8575 50.1907 62.5482C51.5835 62.3412 52.7639 61.4109 53.713 60.3676C54.6621 59.3244 55.458 58.144 56.4932 57.1895C57.1192 57.8637 57.8191 58.4653 58.5797 58.9829C59.3481 59.5034 60.2707 59.7471 61.1959 59.6739C62.1074 59.5637 62.6102 59.2007 62.8979 58.3295C61.9246 58.6307 61.3895 58.585 60.4188 58.3994C59.347 58.194 58.3407 57.7328 57.4854 57.055C56.9153 56.606 56.7083 55.9311 55.985 55.9795C55.3155 56.0172 54.7912 56.5469 54.3502 57.055C53.6383 57.87 52.8575 58.6221 52.0164 59.3029C51.2097 59.9401 50.43 60.3784 49.4029 60.3488C47.7116 60.3112 46.3269 58.9829 45.3939 57.5713C44.5327 56.2698 43.8964 54.8328 43.5117 53.3203" fill="black"/>
</g>
<path d="M63.2989 50.8496C63.3142 50.8986 63.3242 50.9491 63.3284 51.0002C63.3284 51.0997 63.3607 51.2449 63.3795 51.4331C63.4199 51.8095 63.4602 52.3553 63.4763 53.0463C63.5127 54.8139 63.344 56.5797 62.9735 58.3083V58.3513V58.3944H62.9332C61.9773 58.6184 60.9798 58.5915 60.0374 58.3164C59.2668 58.1104 58.5386 57.77 57.8863 57.3108C57.4449 57.0107 57.0491 56.6485 56.7113 56.2353C56.6205 56.1237 56.5361 56.007 56.4586 55.8857C56.4285 55.8444 56.4024 55.8003 56.3806 55.754C56.8192 56.3276 57.3455 56.8284 57.9401 57.2382C58.5889 57.6764 59.3071 58.0018 60.0643 58.2008C60.9864 58.4612 61.9594 58.4843 62.8929 58.268L62.8418 58.3191V58.276C63.2079 56.5562 63.3882 54.802 63.3795 53.0437C63.3795 52.3688 63.35 51.8229 63.3284 51.4438C63.3284 51.2691 63.3096 51.1266 63.3016 51.0109C63.2929 50.9576 63.292 50.9032 63.2989 50.8496Z" fill="#263238"/>
<path d="M55.1318 56.1538C55.1104 56.2112 55.0815 56.2655 55.0457 56.3151C54.9557 56.4642 54.8569 56.6079 54.7499 56.7453C54.3484 57.2464 53.9059 57.7131 53.4271 58.1408C53.1286 58.4097 52.7925 58.7082 52.4295 59.0147C52.2467 59.1679 52.0638 59.3293 51.8595 59.4906C51.6491 59.6494 51.4271 59.7923 51.1954 59.9181C50.6977 60.1926 50.1482 60.3602 49.5821 60.4102C48.9644 60.4626 48.3454 60.3257 47.8075 60.0176C47.2838 59.7056 46.8143 59.3106 46.4174 58.848C46.0411 58.4289 45.6909 57.9871 45.3688 57.5251C44.8258 56.7411 44.367 55.9021 44.0002 55.0218C43.7543 54.43 43.553 53.8206 43.3979 53.1988C43.3414 52.9784 43.3065 52.8063 43.2849 52.688C43.27 52.629 43.261 52.5686 43.2581 52.5078C43.2827 52.5638 43.3007 52.6224 43.3118 52.6826C43.3441 52.7982 43.3871 52.9676 43.449 53.1854C43.6254 53.7978 43.84 54.3986 44.0916 54.9842C44.4683 55.8509 44.9323 56.6771 45.4763 57.4498C45.797 57.9055 46.1454 58.341 46.5196 58.7539C46.9036 59.2044 47.3575 59.5902 47.864 59.8966C48.3786 60.1904 48.97 60.3216 49.5606 60.273C50.1104 60.2257 50.6448 60.0665 51.1308 59.8052C51.359 59.6843 51.5774 59.5458 51.7842 59.3911C51.9805 59.2405 52.1687 59.0765 52.3515 58.926C52.7172 58.6221 53.056 58.3371 53.3571 58.0682C53.8377 57.6538 54.2871 57.2044 54.7015 56.7238C54.844 56.5518 54.9489 56.4092 55.0188 56.3124C55.0518 56.2564 55.0896 56.2033 55.1318 56.1538Z" fill="#263238"/>
<path d="M49.3384 87.0498L51.4114 84.0276C51.4114 84.0276 52.8365 79.0748 52.6429 78.3811C52.4493 77.6874 51.8201 75.1062 51.968 75.0739C52.1159 75.0417 53.6673 74.4663 54.5089 76.5366C55.0332 77.8272 55.2053 79.5266 55.2618 80.6236C55.2679 80.7591 55.3034 80.8917 55.3658 81.0122C55.4281 81.1328 55.5159 81.2383 55.623 81.3216C55.7301 81.405 55.8539 81.4641 55.9861 81.4949C56.1182 81.5257 56.2555 81.5275 56.3884 81.5001C57.8215 81.2044 60.2065 80.7553 60.7738 80.8925C61.5966 81.0887 62.3333 82.1374 62.4032 82.4896C62.4731 82.8418 61.9085 83.635 61.9085 83.635C61.9085 83.635 62.6075 83.9926 62.8226 84.5331C62.8522 84.6057 62.8764 84.6783 62.8979 84.7482C62.9636 84.9648 62.9716 85.1949 62.9211 85.4155C62.8706 85.6362 62.7635 85.8399 62.6102 86.0065L62.3898 86.2485C62.3898 86.2485 63.2636 86.4878 63.3712 86.9879C63.4295 87.3532 63.4194 87.7261 63.3416 88.0877L62.5215 88.9346C62.7501 89.1478 62.8998 89.4321 62.9463 89.7413C62.9894 90.2037 61.7606 91.3545 61.7606 91.3545L56.4879 93.2367L54.396 93.7744L49.3384 87.0498Z" fill="#B78876"/>
<path d="M61.9251 83.6392C61.3226 83.8014 60.7124 83.9333 60.0967 84.0344C59.4918 84.1823 58.8798 84.299 58.2629 84.384C58.428 84.3033 58.6023 84.2428 58.7819 84.2038C59.1072 84.1124 59.5616 83.9995 60.0698 83.8973C60.578 83.7951 61.0378 83.7198 61.3766 83.6768C61.5569 83.6398 61.7414 83.6271 61.9251 83.6392Z" fill="#AA6550"/>
<path d="M62.4053 86.248C61.9571 86.4582 61.4898 86.6248 61.0098 86.7455C60.5439 86.9127 60.0631 87.0351 59.574 87.1111C60.0221 86.901 60.4894 86.7344 60.9695 86.6137C61.4354 86.4465 61.9161 86.3241 62.4053 86.248Z" fill="#AA6550"/>
<path d="M62.7217 88.8203C62.2493 89.1032 61.7537 89.3452 61.2401 89.5436C60.7453 89.7859 60.2308 89.9855 59.7021 90.1405C60.1745 89.8576 60.6701 89.6157 61.1837 89.4172C61.6785 89.175 62.193 88.9753 62.7217 88.8203Z" fill="#AA6550"/>
<path d="M37.1908 105.726L56.5823 92.7174L51.6887 83.8444L33.9911 92.946L35.9996 83.3847L23.9888 79.8301L20.9827 96.2048C20.5203 103.486 26.3603 109.364 33.3996 107.452C34.7489 107.087 36.0295 106.504 37.1908 105.726Z" fill="#B78876"/>
<path d="M31.43 98.0919C31.3951 98.0143 31.3724 97.9317 31.3628 97.8472C31.3229 97.6207 31.3004 97.3915 31.2956 97.1615C31.2855 96.3965 31.4569 95.64 31.7957 94.954C32.1392 94.2698 32.6417 93.6779 33.2611 93.2278C33.4456 93.0909 33.6418 92.9704 33.8472 92.8675C33.921 92.8245 34.0007 92.7928 34.0839 92.7734C34.0839 92.7976 33.7693 92.9509 33.3202 93.3112C32.7323 93.7704 32.2543 94.3551 31.9212 95.0226C31.5882 95.6902 31.4084 96.4237 31.3951 97.1696C31.3816 97.7342 31.4704 98.0892 31.43 98.0919Z" fill="#AA6550"/>
<path d="M81.228 77.4238C81.349 77.2571 95.0377 85.5978 95.0377 85.5978L99.4258 105.589L105.742 107.907C105.742 107.907 107.713 85.6596 106.212 82.1964C104.712 78.7333 89.5014 66.2734 89.5014 66.2734L81.228 77.4238Z" fill="#B78876"/>
<path d="M98.0277 84.0645C97.7228 84.5228 97.3172 84.9054 96.8419 85.183C96.3912 85.5003 95.8747 85.7117 95.3308 85.8014C95.8221 85.5813 96.3013 85.3354 96.7666 85.0647C97.2053 84.7551 97.6263 84.4211 98.0277 84.0645Z" fill="#AA6550"/>
<path d="M64.7644 77.4666L65.8372 96.6538L87.7132 95.175L87.0518 80.8921L83.8656 76.6035L64.7644 77.4666Z" fill="#263238"/>
<path d="M59.7925 97.0798C59.857 97.4481 61.715 114.826 61.715 114.826L94.2735 112.564L99.7828 111.825L97.2419 95.6439L93.3513 94.7109L59.7925 97.0798Z" fill="#F68821"/>
<path opacity="0.4" d="M93.3513 94.709L59.7925 97.0805C59.857 97.4489 61.715 114.827 61.715 114.827L95.6125 112.468L93.3513 94.709Z" fill="black"/>
<path d="M84.4329 95.3955L65.8372 96.6538L64.7644 77.4666L83.8656 76.6035L84.4329 95.3955Z" fill="#455A64"/>
<path d="M71.6992 77.155L72.0918 83.0676L73.0866 82.4976L73.6378 83.0676L74.3235 82.4976L75.3829 83.0676V76.9883L71.6992 77.155Z" fill="#263238"/>
<path d="M79.4725 95.7996L78.2007 81.3984L90.631 84.824L91.8302 94.7644L79.4725 95.7996Z" fill="#F68821"/>
<path d="M90.6224 84.8266C90.6003 84.8635 90.5742 84.8978 90.5444 84.9288L90.3051 85.2111L89.3909 86.2544L86.2155 89.817L86.1671 89.8708L86.116 89.8197L84.4382 88.0451L80.0097 83.3666L78.6788 81.9362L78.3212 81.5436C78.2769 81.5001 78.2381 81.4514 78.2056 81.3984C78.2547 81.4357 78.3006 81.477 78.3427 81.5221L78.7191 81.8986L80.0797 83.2967L84.5377 87.9483L86.2262 89.7256H86.1267L89.3533 86.1952L90.2971 85.1789L90.5525 84.91C90.5729 84.8799 90.5963 84.852 90.6224 84.8266Z" fill="#263238"/>
<path d="M83.6614 87.4943C83.6964 87.5131 82.8091 89.2124 81.6825 91.2909C80.5559 93.3693 79.6148 95.039 79.5799 95.0202C79.5449 95.0014 80.4322 93.3021 81.5588 91.2236C82.6854 89.1452 83.6319 87.4755 83.6614 87.4943Z" fill="#263238"/>
<path d="M91.539 94.7631C91.5068 94.7819 90.6464 93.4053 89.6166 91.6898C88.5867 89.9744 87.7774 88.5628 87.8124 88.5413C87.8473 88.5198 88.7051 89.8991 89.7349 91.6172C90.7647 93.3354 91.574 94.7443 91.539 94.7631Z" fill="#263238"/>
<path d="M86.1477 95.2379L85.3357 86.0664L93.2515 88.2497L94.0151 94.5791L86.1477 95.2379Z" fill="#F68821"/>
<path opacity="0.4" d="M86.1477 95.2379L85.3357 86.0664L93.2515 88.2497L94.0151 94.5791L86.1477 95.2379Z" fill="white"/>
<path d="M93.2525 88.2497C93.1959 88.3397 93.1302 88.4235 93.0562 88.4998C92.9083 88.6745 92.7147 88.8977 92.4808 89.1693L90.4642 91.444L90.4158 91.5004L90.3647 91.4467L89.2892 90.3174C88.1841 89.1585 87.1892 88.1018 86.474 87.3328L85.6351 86.4159C85.5266 86.3082 85.4276 86.1913 85.3394 86.0664C85.4588 86.1611 85.5703 86.2654 85.6728 86.3783L86.5466 87.2629C87.2807 88.0158 88.2863 89.0617 89.3914 90.2206L90.4669 91.3526H90.3539L92.4055 89.1101L93.0132 88.4675C93.0859 88.3875 93.166 88.3146 93.2525 88.2497Z" fill="#263238"/>
<path d="M88.8159 89.9473C88.8481 89.9661 88.2943 91.0524 87.5764 92.3672C87.1644 93.1782 86.7102 93.9671 86.2158 94.7306C86.5857 93.903 86.9985 93.0952 87.4527 92.3107C87.8649 91.4993 88.3199 90.7104 88.8159 89.9473Z" fill="#263238"/>
<path d="M93.8329 94.5785C93.3784 93.9562 92.9618 93.307 92.5853 92.6345C92.1677 91.9858 91.7914 91.3114 91.4587 90.6152C92.3267 91.8889 93.1195 93.2123 93.8329 94.5785Z" fill="#263238"/>
<path d="M91.1926 87.8594V88.5961L92.3488 88.7305L92.4106 88.1686L91.1926 87.8594Z" fill="white"/>
<path d="M87.1106 84.1211V85.1966L89.2939 85.5569L89.4149 84.7341L87.1106 84.1211Z" fill="white"/>
<path d="M78.5911 101.16L78.4835 95.7988L74.1357 96.0919L74.6009 101.539L78.5911 101.16Z" fill="#F68821"/>
<path d="M92.7683 103.977L85.4688 104.67L86.0813 111.126L93.3809 110.434L92.7683 103.977Z" fill="#FAFAFA"/>
<path d="M93.3721 110.443C93.3632 110.402 93.3569 110.361 93.3533 110.319C93.3533 110.231 93.3291 110.115 93.313 109.97C93.2807 109.658 93.2323 109.214 93.1732 108.658C93.0575 107.523 92.9043 105.921 92.6999 103.993L92.7645 104.047L85.4698 104.748C85.4536 104.764 85.5881 104.606 85.5316 104.673V104.721V104.778V104.885L85.5531 105.106L85.5935 105.541C85.623 105.829 85.6499 106.114 85.6768 106.399C85.7279 106.967 85.7817 107.52 85.8328 108.064C85.9322 109.139 86.029 110.174 86.1151 111.123L86.0479 111.07L91.3152 110.602L92.8102 110.475L93.2108 110.446C93.2582 110.442 93.3059 110.442 93.3533 110.446C93.3118 110.456 93.2695 110.462 93.2269 110.465L92.8397 110.51L91.3609 110.666L86.0613 111.204H85.9995V111.142C85.9054 110.19 85.8059 109.163 85.701 108.082C85.6508 107.545 85.5979 106.99 85.5424 106.418C85.5155 106.133 85.4886 105.848 85.4617 105.558C85.4483 105.415 85.4348 105.27 85.4187 105.125L85.3999 104.904V104.797V104.74V104.692C85.3434 104.759 85.4752 104.598 85.4644 104.614L92.7618 103.934H92.8209V103.993C92.993 105.937 93.1355 107.555 93.2377 108.701C93.2834 109.252 93.3184 109.69 93.3452 110.002C93.3452 110.145 93.3641 110.258 93.3694 110.344C93.3727 110.377 93.3736 110.41 93.3721 110.443Z" fill="#263238"/>
<path d="M92.1883 105.533C92.1883 105.574 90.9165 105.738 89.3382 105.904C88.3881 106.029 87.4324 106.106 86.4746 106.135C86.4746 106.098 87.7464 105.931 89.3247 105.764C90.903 105.598 92.1856 105.496 92.1883 105.533Z" fill="#263238"/>
<path d="M92.1428 106.629C91.8892 106.72 91.6271 106.786 91.3604 106.825C90.871 106.922 90.1908 107.035 89.4352 107.124C88.6797 107.212 87.9886 107.261 87.4912 107.277C87.2229 107.301 86.9529 107.301 86.6846 107.277C86.9505 107.224 87.2203 107.194 87.4912 107.185C87.9859 107.14 88.6689 107.078 89.4218 106.989C90.1746 106.9 90.8549 106.804 91.3469 106.72C91.6096 106.67 91.8756 106.64 92.1428 106.629Z" fill="#263238"/>
<path d="M92.4543 109.027C92.1996 109.118 91.9366 109.184 91.6692 109.224C91.1799 109.32 90.4996 109.433 89.744 109.522C88.9885 109.611 88.3002 109.659 87.8 109.675C87.5318 109.701 87.2617 109.701 86.9934 109.675C87.2593 109.623 87.5291 109.592 87.8 109.584C88.2948 109.541 88.9804 109.476 89.7333 109.388C90.4861 109.299 91.1664 109.202 91.6585 109.119C91.9211 109.068 92.1871 109.038 92.4543 109.027Z" fill="#263238"/>
<path d="M92.0851 107.797C91.2075 107.995 90.3197 108.146 89.4258 108.249C88.5357 108.4 87.6382 108.504 86.7371 108.56C87.6153 108.365 88.5028 108.214 89.3963 108.109C90.2867 107.959 91.1841 107.855 92.0851 107.797Z" fill="#263238"/>
<path d="M98.5314 117.797C98.5314 117.797 104.541 113.821 105.003 111.788C105.466 109.755 105.743 107.905 105.743 107.905L99.3219 105.246L99.9591 107.558C99.9591 107.558 97.6575 108.927 97.4209 110.586C97.2649 111.691 94.2884 113.584 94.2884 113.584C94.0408 113.285 93.7258 113.049 93.3691 112.895C93.0125 112.741 92.6245 112.674 92.2369 112.699L89.7363 112.877L91.4276 116.687L98.5314 117.797Z" fill="#B78876"/>
<path d="M100.877 112.348C100.789 112.401 100.694 112.44 100.594 112.463C100.406 112.525 100.126 112.587 99.7877 112.695C99.4053 112.831 99.0515 113.037 98.7445 113.302C98.3575 113.632 97.9246 113.904 97.4592 114.109C96.5984 114.475 95.6426 114.556 94.7328 114.337C94.573 114.307 94.4194 114.249 94.2784 114.168C94.2206 114.135 94.1738 114.086 94.1441 114.027C94.1144 113.967 94.1031 113.9 94.1117 113.835C94.1162 113.794 94.1309 113.755 94.1544 113.721C94.1778 113.687 94.2094 113.66 94.2461 113.641C94.2999 113.622 94.3295 113.641 94.3295 113.641C94.3295 113.641 94.2999 113.641 94.2596 113.671C94.2314 113.691 94.2083 113.718 94.192 113.748C94.1757 113.779 94.1666 113.813 94.1655 113.848C94.1604 113.903 94.1727 113.959 94.2006 114.007C94.2286 114.055 94.2708 114.094 94.3214 114.117C94.4588 114.184 94.6057 114.231 94.757 114.254C95.6466 114.435 96.5704 114.341 97.4054 113.985C97.8603 113.783 98.284 113.517 98.6638 113.195C98.9859 112.927 99.3565 112.725 99.7554 112.598C100.1 112.501 100.379 112.455 100.562 112.407C100.665 112.379 100.77 112.359 100.877 112.348Z" fill="#AA6550"/>
<path d="M96.7155 115.432C96.7155 115.454 96.4063 115.276 95.8955 115.064C95.2294 114.791 94.5276 114.617 93.8116 114.545C93.6019 114.523 93.3949 114.518 93.1959 114.512H93.1583L93.1368 114.48C92.8255 113.993 92.4502 113.55 92.0209 113.163C91.6956 112.87 91.4832 112.719 91.4832 112.703C91.4832 112.687 91.5477 112.724 91.6499 112.789C91.7949 112.883 91.9349 112.984 92.0693 113.093C92.5277 113.467 92.9242 113.91 93.2443 114.408L93.1878 114.375C93.3922 114.375 93.6019 114.375 93.817 114.408C94.5472 114.478 95.2606 114.67 95.9277 114.975C96.1286 115.066 96.3235 115.171 96.5112 115.287C96.5865 115.324 96.6554 115.373 96.7155 115.432Z" fill="#AA6550"/>
<path d="M98.3388 114.34C98.3388 114.377 97.9327 114.531 97.4595 114.8C96.9863 115.069 96.6394 115.351 96.6125 115.319C97.0564 114.801 97.6669 114.455 98.3388 114.34Z" fill="#AA6550"/>
<path d="M101.596 107.189C101.596 107.232 101.176 107.189 100.698 107.31C100.219 107.431 99.8912 107.678 99.8535 107.644C100.076 107.418 100.355 107.256 100.662 107.176C100.969 107.096 101.291 107.101 101.596 107.189Z" fill="#AA6550"/>
</g>
<rect x="0.5" y="0.548828" width="119" height="119" rx="59.5" stroke="#FDE7D3"/>
</svg>
