<svg width="120" height="121" viewBox="0 0 120 121" fill="none" xmlns="http://www.w3.org/2000/svg">
<mask id="mask0_10_224362" style="mask-type:alpha" maskUnits="userSpaceOnUse" x="0" y="0" width="120" height="121">
<rect y="0.0488281" width="120" height="120" rx="60" fill="white"/>
</mask>
<g mask="url(#mask0_10_224362)">
<path d="M101.787 45.5761L101.289 44.7507C97.0638 37.791 89.427 33.5946 81.374 34.1042C80.3378 34.1689 79.3078 34.3104 78.2925 34.5277C70.9716 36.0947 64.6004 41.6309 61.9591 48.7198C60.4064 52.8898 59.9734 57.6915 57.0259 61.0027C53.1979 65.3091 46.6808 65.4455 40.9557 65.2661C35.2305 65.0866 28.7158 65.2398 24.8974 69.5725C22.505 72.2808 21.7489 76.1327 21.9403 79.7596C22.4523 89.363 29.1441 97.9424 37.6541 102.218C46.1641 106.493 56.1813 106.859 65.4952 104.976C78.5413 102.345 90.951 95.1217 98.4084 83.9656C105.866 72.8095 107.749 57.6174 101.787 45.5761Z" fill="#F5F5F5"/>
<path d="M97.9743 29.7367C98.6295 27.3597 97.2337 24.9017 94.8567 24.2466C92.4798 23.5914 90.0218 24.9872 89.3666 27.3641C88.7114 29.7411 90.1072 32.1991 92.4842 32.8543C94.8611 33.5094 97.3191 32.1136 97.9743 29.7367Z" fill="#F5F5F5"/>
<path d="M31.0698 112.225C32.8133 110.482 32.8133 107.655 31.0698 105.912C29.3264 104.168 26.4997 104.168 24.7563 105.912C23.0129 107.655 23.0129 110.482 24.7563 112.225C26.4997 113.969 29.3264 113.969 31.0698 112.225Z" fill="#F5F5F5"/>
<path d="M47.6951 98.3436L20.5933 98.3268C19.8182 98.329 19.0503 98.1784 18.3335 97.8836C17.6167 97.5889 16.965 97.1557 16.4157 96.6088C15.8664 96.062 15.4304 95.4122 15.1324 94.6967C14.8344 93.9813 14.6804 93.214 14.6791 92.439L14.6935 24.6843C14.695 23.9098 14.8491 23.1433 15.147 22.4284C15.4448 21.7135 15.8805 21.0642 16.4292 20.5177C16.978 19.9712 17.629 19.5381 18.3451 19.2432C19.0612 18.9483 19.8284 18.7973 20.6029 18.7988L47.7071 18.8156C49.2702 18.8143 50.7697 19.4339 51.8761 20.538C52.9824 21.6421 53.605 23.1404 53.6069 24.7034L53.5926 92.4581C53.5894 94.0201 52.9667 95.5171 51.861 96.6205C50.7554 97.7239 49.2572 98.3436 47.6951 98.3436Z" fill="#455A64"/>
<path d="M47.8757 20.8354L42.6123 20.8115C42.4404 20.8146 42.2709 20.8515 42.1133 20.9202C41.9557 20.9888 41.8132 21.0879 41.6939 21.2116C41.5746 21.3354 41.4808 21.4814 41.4179 21.6414C41.3551 21.8014 41.3244 21.9722 41.3275 22.1441V23.1011C41.3307 23.2731 41.2999 23.4441 41.2369 23.6043C41.1739 23.7644 41.0799 23.9106 40.9604 24.0343C40.8408 24.1581 40.698 24.2571 40.5402 24.3256C40.3823 24.3941 40.2125 24.4309 40.0404 24.4337L29.7528 24.3858C29.5807 24.3815 29.4112 24.3432 29.2539 24.2733C29.0966 24.2033 28.9547 24.103 28.8362 23.9781C28.7178 23.8532 28.6251 23.7062 28.5636 23.5454C28.502 23.3846 28.4728 23.2133 28.4776 23.0412V22.0843C28.4866 21.7373 28.3577 21.401 28.1191 21.1489C27.8805 20.8969 27.5517 20.7497 27.2048 20.7397H25.3483L20.7332 20.711C20.1882 20.7085 19.648 20.8134 19.1436 21.0197C18.6392 21.226 18.1803 21.5297 17.7933 21.9134C17.4062 22.2971 17.0986 22.7533 16.8879 23.2559C16.6773 23.7585 16.5677 24.2978 16.5655 24.8428L16.2856 91.394C16.2831 91.9393 16.3881 92.4797 16.5948 92.9843C16.8014 93.4889 17.1056 93.9479 17.4898 94.3348C17.8741 94.7217 18.3308 95.029 18.834 95.2391C19.3372 95.4492 19.8769 95.558 20.4222 95.5593L47.5647 95.6861C48.1097 95.6886 48.6498 95.5837 49.1543 95.3774C49.6587 95.1711 50.1176 94.8674 50.5046 94.4837C50.8917 94.1 51.1993 93.6438 51.41 93.1412C51.6206 92.6385 51.7302 92.0993 51.7324 91.5543L52.0027 25.0031C52.0072 23.9034 51.5751 22.8469 50.8013 22.0655C50.0276 21.2841 48.9754 20.8417 47.8757 20.8354Z" fill="white"/>
<path d="M27.0144 31.6062V32.1206H26.61V31.6014L26.0622 30.6875H26.4904L26.8301 31.2569L27.1699 30.6875H27.5622L27.0144 31.6062Z" fill="#F68821"/>
<path d="M27.5263 31.4064C27.5157 31.2461 27.5537 31.0864 27.6353 30.948C27.7168 30.8096 27.8382 30.699 27.9835 30.6307C28.1289 30.5623 28.2915 30.5393 28.4501 30.5647C28.6087 30.5902 28.7559 30.6628 28.8726 30.7731C28.9893 30.8835 29.0701 31.0264 29.1044 31.1834C29.1386 31.3403 29.1248 31.5039 29.0647 31.6528C29.0046 31.8018 28.9009 31.9292 28.7674 32.0183C28.6338 32.1075 28.4764 32.1544 28.3158 32.1528C28.2144 32.158 28.113 32.1426 28.0177 32.1074C27.9224 32.0723 27.8352 32.0182 27.7614 31.9484C27.6876 31.8787 27.6287 31.7947 27.5883 31.7015C27.5479 31.6083 27.5268 31.5079 27.5263 31.4064ZM28.7225 31.4064C28.7178 31.3317 28.6916 31.2601 28.6471 31.2C28.6026 31.14 28.5416 31.094 28.4716 31.0678C28.4016 31.0416 28.3255 31.0362 28.2525 31.0523C28.1794 31.0683 28.1126 31.1052 28.0601 31.1584C28.0075 31.2115 27.9715 31.2788 27.9562 31.352C27.941 31.4252 27.9473 31.5012 27.9744 31.5709C28.0014 31.6406 28.048 31.701 28.1086 31.7449C28.1692 31.7887 28.2411 31.814 28.3158 31.8179C28.3695 31.8193 28.4229 31.8096 28.4726 31.7892C28.5222 31.7688 28.5671 31.7382 28.6043 31.6995C28.6414 31.6607 28.6701 31.6146 28.6884 31.5642C28.7067 31.5137 28.7143 31.4599 28.7106 31.4064H28.7225Z" fill="#F68821"/>
<path d="M29.3214 31.4818V30.6875H29.7282V31.4698C29.7282 31.7091 29.8286 31.8144 29.9985 31.8144C30.1684 31.8144 30.2689 31.7139 30.2689 31.4698V30.6875H30.6684V31.4818C30.6582 31.6535 30.5828 31.8148 30.4576 31.9327C30.3324 32.0506 30.1669 32.1163 29.9949 32.1163C29.8229 32.1163 29.6574 32.0506 29.5323 31.9327C29.4071 31.8148 29.3317 31.6535 29.3214 31.4818Z" fill="#F68821"/>
<path d="M31.5695 31.7406H31.347V32.121H30.9474V30.6855H31.603C31.9929 30.6855 32.2394 30.8889 32.2394 31.2143C32.2431 31.3093 32.2185 31.4033 32.1687 31.4842C32.1188 31.5652 32.046 31.6295 31.9594 31.6689L32.2681 32.1186H31.8326L31.5695 31.7406ZM31.5695 31.0061H31.3446V31.4272H31.5695C31.7393 31.4272 31.8231 31.3483 31.8231 31.2167C31.8231 31.0851 31.7417 31.0061 31.5719 31.0061H31.5695Z" fill="#F68821"/>
<path d="M32.9767 31.4064C32.9662 31.2464 33.004 31.087 33.0852 30.9488C33.1665 30.8106 33.2874 30.7 33.4323 30.6315C33.5772 30.5629 33.7394 30.5395 33.8978 30.5643C34.0562 30.5891 34.2035 30.661 34.3204 30.7706C34.4374 30.8803 34.5187 31.0225 34.5538 31.179C34.5889 31.3354 34.5761 31.4988 34.5171 31.6478C34.4581 31.7969 34.3556 31.9248 34.223 32.0148C34.0904 32.1049 33.9337 32.153 33.7734 32.1529C33.6713 32.1594 33.569 32.1449 33.4727 32.1104C33.3764 32.0759 33.2882 32.0219 33.2136 31.952C33.1389 31.8821 33.0794 31.7976 33.0387 31.7037C32.9979 31.6099 32.9769 31.5087 32.9767 31.4064ZM34.173 31.4064C34.1683 31.3309 34.1417 31.2585 34.0963 31.198C34.051 31.1375 33.989 31.0915 33.9179 31.0658C33.8468 31.0401 33.7697 31.0358 33.6962 31.0533C33.6226 31.0709 33.5558 31.1096 33.504 31.1646C33.4522 31.2196 33.4176 31.2886 33.4044 31.3631C33.3913 31.4375 33.4003 31.5142 33.4302 31.5837C33.4601 31.6531 33.5096 31.7123 33.5728 31.7539C33.6359 31.7955 33.7098 31.8178 33.7854 31.8179C33.8375 31.8167 33.8888 31.805 33.9362 31.7835C33.9836 31.7619 34.0261 31.731 34.0612 31.6925C34.0963 31.654 34.1233 31.6089 34.1404 31.5597C34.1576 31.5105 34.1646 31.4584 34.161 31.4064H34.173Z" fill="#F68821"/>
<path d="M35.4119 31.7406H35.1894V32.121H34.7755V30.6855H35.4311C35.8211 30.6855 36.0675 30.8889 36.0675 31.2143C36.0713 31.3093 36.0467 31.4033 35.9968 31.4842C35.9469 31.5652 35.8741 31.6295 35.7876 31.6689L36.0962 32.1186H35.6608L35.4119 31.7406ZM35.4119 31.0061H35.187V31.4272H35.4119C35.5818 31.4272 35.6655 31.3483 35.6655 31.2167C35.6655 31.0851 35.5842 31.0061 35.4143 31.0061H35.4119Z" fill="#F68821"/>
<path d="M36.2978 30.6875H36.9748C37.4533 30.6875 37.7763 30.9626 37.7763 31.4052C37.7763 31.8478 37.4509 32.123 36.9748 32.123H36.2978V30.6875ZM36.9581 31.7976C37.0123 31.8018 37.0669 31.7948 37.1183 31.7769C37.1697 31.7591 37.2169 31.7308 37.2568 31.6938C37.2968 31.6569 37.3287 31.6121 37.3505 31.5622C37.3723 31.5123 37.3835 31.4585 37.3835 31.404C37.3835 31.3496 37.3723 31.2958 37.3505 31.2459C37.3287 31.196 37.2968 31.1512 37.2568 31.1143C37.2169 31.0773 37.1697 31.049 37.1183 31.0311C37.0669 31.0133 37.0123 31.0062 36.9581 31.0105H36.7021V31.7976H36.9581Z" fill="#F68821"/>
<path d="M39.1429 31.8076V32.121H37.9921V30.6855H39.1166V30.999H38.3988V31.2382H39.0376V31.5397H38.3988V31.8028L39.1429 31.8076Z" fill="#F68821"/>
<path d="M39.9947 31.7406H39.7722V32.121H39.3678V30.6855H40.021C40.4133 30.6855 40.6598 30.8889 40.6598 31.2143C40.6633 31.3096 40.6384 31.4037 40.5881 31.4847C40.5378 31.5657 40.4644 31.6298 40.3774 31.6689L40.6885 32.1186H40.253L39.9947 31.7406ZM39.9947 31.0061H39.7698V31.4272H39.9947C40.1621 31.4272 40.2483 31.3483 40.2483 31.2167C40.2483 31.0851 40.1645 31.0061 39.997 31.0061H39.9947Z" fill="#F68821"/>
<path d="M25.4575 59.2781H25.0172V58.9551H26.2996V59.2781H25.8618V60.3882H25.4575V59.2781Z" fill="#263238"/>
<path d="M26.357 59.6686C26.346 59.5085 26.3834 59.3489 26.4643 59.2104C26.5452 59.0719 26.666 58.961 26.8108 58.892C26.9556 58.8231 27.1179 58.7993 27.2764 58.8239C27.4349 58.8484 27.5824 58.9201 27.6996 59.0295C27.8169 59.139 27.8984 59.2813 27.9337 59.4377C27.969 59.5942 27.9564 59.7577 27.8975 59.9069C27.8386 60.0561 27.7362 60.1842 27.6035 60.2743C27.4709 60.3645 27.3141 60.4127 27.1537 60.4126C27.0518 60.4191 26.9497 60.4048 26.8536 60.3704C26.7574 60.336 26.6694 60.2823 26.5947 60.2126C26.5201 60.1429 26.4605 60.0587 26.4197 59.9651C26.3788 59.8716 26.3575 59.7707 26.357 59.6686ZM27.5533 59.6686C27.5491 59.593 27.5228 59.5203 27.4777 59.4594C27.4327 59.3986 27.3708 59.3523 27.2997 59.3262C27.2286 59.3001 27.1514 59.2955 27.0777 59.3128C27.004 59.3301 26.937 59.3686 26.8849 59.4235C26.8328 59.4785 26.798 59.5475 26.7847 59.6221C26.7714 59.6966 26.7803 59.7734 26.8101 59.843C26.84 59.9125 26.8896 59.9718 26.9528 60.0136C27.016 60.0553 27.09 60.0776 27.1657 60.0777C27.2176 60.0768 27.2689 60.0654 27.3163 60.0441C27.3637 60.0228 27.4062 59.9921 27.4414 59.9538C27.4765 59.9155 27.5035 59.8705 27.5207 59.8215C27.5379 59.7724 27.5449 59.7204 27.5413 59.6686H27.5533Z" fill="#263238"/>
<path d="M28.447 59.2781H28.0067V58.9551H29.2891V59.2781H28.8513V60.3882H28.447V59.2781Z" fill="#263238"/>
<path d="M30.3286 60.1072H29.7233L29.6108 60.3847H29.1969L29.8285 58.9492H30.2281L30.8645 60.3847H30.441L30.3286 60.1072ZM30.2089 59.8081L30.0247 59.3488L29.8405 59.8081H30.2089Z" fill="#263238"/>
<path d="M30.9804 58.9531H31.3871V60.0656H32.0713V60.3862H30.9804V58.9531Z" fill="#263238"/>
<path d="M32.1803 59.4853C32.1803 59.4219 32.2055 59.361 32.2504 59.3162C32.2953 59.2713 32.3561 59.2461 32.4196 59.2461C32.483 59.2461 32.5439 59.2713 32.5887 59.3162C32.6336 59.361 32.6588 59.4219 32.6588 59.4853C32.6588 59.5488 32.6336 59.6096 32.5887 59.6545C32.5439 59.6994 32.483 59.7246 32.4196 59.7246C32.3561 59.7246 32.2953 59.6994 32.2504 59.6545C32.2055 59.6096 32.1803 59.5488 32.1803 59.4853ZM32.1803 60.1696C32.1803 60.1061 32.2055 60.0453 32.2504 60.0004C32.2953 59.9555 32.3561 59.9303 32.4196 59.9303C32.483 59.9303 32.5439 59.9555 32.5887 60.0004C32.6336 60.0453 32.6588 60.1061 32.6588 60.1696C32.6588 60.233 32.6336 60.2939 32.5887 60.3388C32.5439 60.3836 32.483 60.4088 32.4196 60.4088C32.3561 60.4088 32.2953 60.3836 32.2504 60.3388C32.2055 60.2939 32.1803 60.233 32.1803 60.1696Z" fill="#263238"/>
<path d="M44.5361 60.9002V61.2925H44.1054V60.9145C43.7901 60.9018 43.4832 60.8096 43.213 60.6466L43.4523 60.1322C43.6957 60.2864 43.9775 60.3693 44.2657 60.3714C44.5552 60.3714 44.6677 60.2901 44.6677 60.1705C44.6677 59.7805 43.2657 60.0652 43.2657 59.1489C43.2657 58.7613 43.5432 58.4311 44.115 58.3641V57.9766H44.5361V58.357C44.7878 58.3723 45.033 58.4434 45.2538 58.5651L45.0385 59.0819C44.8306 58.9626 44.5963 58.8968 44.3566 58.8905C44.0648 58.8905 43.9571 58.991 43.9571 59.113C43.9571 59.491 45.3567 59.2087 45.3567 60.1178C45.3543 60.4958 45.0863 60.8188 44.5361 60.9002Z" fill="#263238"/>
<path d="M46.8202 60.9002V61.2925H46.3991V60.9145C46.0839 60.9018 45.7769 60.8096 45.5067 60.6466L45.746 60.1322C45.9894 60.2864 46.2712 60.3693 46.5594 60.3714C46.8489 60.3714 46.9614 60.2901 46.9614 60.1705C46.9614 59.7805 45.5594 60.0652 45.5594 59.1489C45.5594 58.7613 45.8369 58.4311 46.4087 58.3641V57.9766H46.8298V58.357C47.0815 58.3723 47.3267 58.4434 47.5475 58.5651L47.3322 59.0819C47.1243 58.9626 46.89 58.8968 46.6503 58.8905C46.3585 58.8905 46.2508 58.991 46.2508 59.113C46.2508 59.491 47.6504 59.2087 47.6504 60.1178C47.6384 60.4958 47.3705 60.8188 46.8202 60.9002Z" fill="#263238"/>
<path d="M21.5386 34.0076C23.0449 34.0076 24.266 32.7865 24.266 31.2801C24.266 29.7738 23.0449 28.5527 21.5386 28.5527C20.0323 28.5527 18.8112 29.7738 18.8112 31.2801C18.8112 32.7865 20.0323 34.0076 21.5386 34.0076Z" fill="#F68821"/>
<path d="M21.5386 54.5994C23.0449 54.5994 24.266 53.3783 24.266 51.8719C24.266 50.3656 23.0449 49.1445 21.5386 49.1445C20.0323 49.1445 18.8112 50.3656 18.8112 51.8719C18.8112 53.3783 20.0323 54.5994 21.5386 54.5994Z" fill="#F68821"/>
<path d="M27.536 51.5135C27.536 51.8389 27.2967 52.0423 26.8996 52.0423H26.6412V52.4179H26.244V50.9824H26.8996C27.2896 50.9824 27.536 51.1858 27.536 51.5135ZM27.1269 51.5135C27.1269 51.382 27.0431 51.303 26.8876 51.303H26.6412V51.7217H26.8804C27.0431 51.7217 27.1197 51.6451 27.1197 51.5135H27.1269Z" fill="#F68821"/>
<path d="M28.6232 52.138H28.0155L27.9031 52.4179H27.4892L28.1232 50.9824H28.5227L29.1567 52.4179H28.7356L28.6232 52.138ZM28.5036 51.8389L28.317 51.3844L28.1327 51.8413L28.5036 51.8389Z" fill="#F68821"/>
<path d="M29.9489 51.9035V52.4179H29.5446V51.8963L28.9967 50.9824H29.425L29.7647 51.5518L30.1044 50.9824H30.4968L29.9489 51.9035Z" fill="#F68821"/>
<path d="M36.967 79.9727H24.4472V89.7339H36.967V79.9727Z" fill="#EBEBEB"/>
<path d="M36.9702 89.7302C36.9702 89.7302 36.9702 89.6703 36.9702 89.5507C36.9702 89.4311 36.9702 89.2588 36.9702 89.0316C36.9702 88.5746 36.9702 87.9071 36.9702 87.0554C36.9702 85.3519 36.9702 82.914 36.9702 79.9713L36.9894 79.9904H24.4504L24.4744 79.9689C24.4744 83.4858 24.4744 86.8137 24.4744 89.7278L24.4528 89.7086H33.494H36.0563H36.7405H36.0659H33.5059H24.4528H24.4313V89.6871C24.4313 86.7731 24.4313 83.4451 24.4313 79.9282V79.9043H24.4552H36.975H36.9941V79.9234C36.9941 82.871 36.9941 85.3137 36.9941 87.0195C36.9941 87.8688 36.9941 88.5363 36.9941 88.9909C36.9941 89.2158 36.9941 89.3904 36.9941 89.5077C36.9941 89.6249 36.9702 89.7302 36.9702 89.7302Z" fill="#263238"/>
<path d="M24.2261 79.3965L23.2069 82.7077H37.8608L37.033 79.3965H24.2261Z" fill="#F68821"/>
<path d="M23.2069 82.709C23.2069 82.9222 23.2916 83.1267 23.4424 83.2774C23.5931 83.4282 23.7976 83.5129 24.0108 83.5129C24.224 83.5129 24.4285 83.4282 24.5792 83.2774C24.73 83.1267 24.8147 82.9222 24.8147 82.709H23.2069Z" fill="#F68821"/>
<path d="M24.839 82.709C24.8502 82.9143 24.9397 83.1075 25.089 83.2489C25.2383 83.3902 25.4361 83.469 25.6417 83.469C25.8473 83.469 26.0451 83.3902 26.1944 83.2489C26.3437 83.1075 26.4332 82.9143 26.4444 82.709H24.839Z" fill="#F68821"/>
<path d="M26.4662 82.709C26.4662 82.9222 26.5509 83.1267 26.7017 83.2774C26.8524 83.4282 27.0569 83.5129 27.2701 83.5129C27.4833 83.5129 27.6878 83.4282 27.8385 83.2774C27.9893 83.1267 28.074 82.9222 28.074 82.709H26.4662Z" fill="#F68821"/>
<path d="M28.0983 82.709C28.0983 82.9222 28.183 83.1267 28.3337 83.2774C28.4845 83.4282 28.689 83.5129 28.9022 83.5129C29.1154 83.5129 29.3198 83.4282 29.4706 83.2774C29.6213 83.1267 29.706 82.9222 29.706 82.709H28.0983Z" fill="#F68821"/>
<path d="M29.7304 82.709C29.7416 82.9143 29.831 83.1075 29.9803 83.2489C30.1296 83.3902 30.3274 83.469 30.533 83.469C30.7387 83.469 30.9365 83.3902 31.0858 83.2489C31.2351 83.1075 31.3245 82.9143 31.3357 82.709H29.7304Z" fill="#F68821"/>
<path d="M31.3588 82.709C31.3588 82.9222 31.4435 83.1267 31.5942 83.2774C31.745 83.4282 31.9495 83.5129 32.1627 83.5129C32.3759 83.5129 32.5803 83.4282 32.7311 83.2774C32.8818 83.1267 32.9665 82.9222 32.9665 82.709H31.3588Z" fill="#F68821"/>
<path d="M32.9909 82.709C33.0021 82.9143 33.0915 83.1075 33.2408 83.2489C33.3901 83.3902 33.5879 83.469 33.7935 83.469C33.9992 83.469 34.197 83.3902 34.3463 83.2489C34.4956 83.1075 34.585 82.9143 34.5962 82.709H32.9909Z" fill="#F68821"/>
<path d="M34.6193 82.709C34.6193 82.9222 34.704 83.1267 34.8547 83.2774C35.0055 83.4282 35.21 83.5129 35.4232 83.5129C35.6364 83.5129 35.8408 83.4282 35.9916 83.2774C36.1423 83.1267 36.227 82.9222 36.227 82.709H34.6193Z" fill="#F68821"/>
<path d="M36.2502 82.709C36.2502 82.9222 36.3348 83.1267 36.4856 83.2774C36.6364 83.4282 36.8408 83.5129 37.054 83.5129C37.2672 83.5129 37.4717 83.4282 37.6224 83.2774C37.7732 83.1267 37.8579 82.9222 37.8579 82.709H36.2502Z" fill="#F68821"/>
<path d="M37.8527 82.7247C37.8527 82.7366 34.5774 82.7486 30.5365 82.7486C26.4957 82.7486 23.2204 82.7247 23.2204 82.7247C23.2204 82.7247 26.4957 82.7031 30.5365 82.7031C34.5774 82.7031 37.8527 82.7031 37.8527 82.7247Z" fill="#263238"/>
<path d="M35.5553 84.082H32.914V89.7306H35.5553V84.082Z" fill="white"/>
<path d="M35.5584 84.0823C35.5594 84.0911 35.5594 84.0999 35.5584 84.1086V84.1876C35.5584 84.2618 35.5584 84.3646 35.5584 84.4986C35.5584 84.7714 35.5584 85.1685 35.5584 85.6661C35.5584 86.671 35.5584 88.0849 35.5584 89.7333V89.7573H32.9171L32.8932 89.7333V88.1328C32.8932 87.6136 32.8932 87.1136 32.8932 86.6375C32.8932 85.6805 32.8932 84.8168 32.8932 84.0823V84.0656H32.91H34.8479H35.3718H34.8455H32.9171L32.9339 84.0488C32.9339 84.7833 32.9339 85.6494 32.9339 86.604V89.6927L32.9124 89.6711H35.5441L35.5225 89.6927C35.5225 88.0538 35.5225 86.6447 35.5225 85.6422C35.5225 85.1422 35.5225 84.745 35.5225 84.4699C35.5225 84.3335 35.5225 84.2307 35.5225 84.1565C35.5225 84.1206 35.5225 84.0943 35.5225 84.0728L35.5584 84.0823Z" fill="#263238"/>
<path d="M33.5293 86.3359H33.1776V87.4771H33.5293V86.3359Z" fill="#E0E0E0"/>
<path d="M33.7868 88.0625C33.7868 88.0625 34.0069 87.7251 34.2988 87.3232C34.5906 86.9213 34.8395 86.6055 34.849 86.6055C34.693 86.8625 34.522 87.1101 34.337 87.3471C34.0428 87.7491 33.7963 88.0697 33.7868 88.0625Z" fill="#263238"/>
<path d="M34.2787 87.9403C34.2787 87.9403 34.451 87.7297 34.6543 87.4618C34.8577 87.1938 35.006 86.9665 35.018 86.9833C34.9977 87.0399 34.9704 87.0938 34.9366 87.1436C34.8635 87.2667 34.7837 87.3857 34.6974 87.5001C34.5945 87.634 34.4916 87.7393 34.4151 87.8302C34.3752 87.8733 34.3292 87.9103 34.2787 87.9403Z" fill="#263238"/>
<path d="M26.0568 84.6133H24.839V85.087H26.0568V84.6133Z" fill="#F5F5F5"/>
<path d="M25.468 85.0859H24.4704V85.5596H25.468V85.0859Z" fill="#E0E0E0"/>
<path d="M29.028 88.0684H27.8102V88.5421H29.028V88.0684Z" fill="#F5F5F5"/>
<path d="M32.3308 86.8633H31.7494V87.337H32.3308V86.8633Z" fill="#E0E0E0"/>
<path d="M36.7176 86.4082H35.5788V86.8819H36.7176V86.4082Z" fill="#E0E0E0"/>
<path d="M31.8892 88.75H30.724V89.2237H31.8892V88.75Z" fill="#E0E0E0"/>
<path d="M25.8613 88.3047H24.6962V88.7784H25.8613V88.3047Z" fill="#F5F5F5"/>
<path d="M32.8826 84.3281H32.2462V84.8018H32.8826V84.3281Z" fill="#F5F5F5"/>
<path d="M28.374 88.543H27.173V89.0167H28.374V88.543Z" fill="#E0E0E0"/>
<path d="M31.7501 84.082H26.0536V88.0655H31.7501V84.082Z" fill="white"/>
<path d="M31.7488 88.0687C31.7488 88.0687 31.7488 88.0423 31.7488 87.9945C31.7488 87.9466 31.7488 87.8749 31.7488 87.784C31.7488 87.5973 31.7488 87.3246 31.7488 86.9801C31.7488 86.2863 31.7488 85.291 31.7488 84.0828L31.7679 84.102H26.0738L26.0978 84.078C26.0978 85.5135 26.0978 86.8557 26.0978 88.0639L26.0762 88.0423H30.1793H31.3516H30.1841L26.0667 88.0543H26.0475V88.0328C26.0475 86.8246 26.0475 85.4728 26.0475 84.0469V84.0254H26.0714H31.7655H31.7847V84.0421C31.7847 85.2551 31.7847 86.2528 31.7847 86.949C31.7847 87.2935 31.7847 87.5639 31.7847 87.7505C31.7847 87.839 31.7847 87.9084 31.7847 87.9586C31.7847 88.0088 31.7488 88.0687 31.7488 88.0687Z" fill="#263238"/>
<path d="M28.871 87.0035C28.8858 86.9757 28.9043 86.9499 28.926 86.927C28.9643 86.8767 29.0217 86.8097 29.0935 86.726C29.2347 86.5585 29.4356 86.3312 29.6629 86.0848C29.8902 85.8384 30.1007 85.6063 30.2562 85.4628L30.4429 85.2809C30.4642 85.2574 30.4883 85.2366 30.5146 85.2188C30.4981 85.246 30.4779 85.2709 30.4548 85.2929L30.2802 85.4867C30.1223 85.6542 29.9213 85.8743 29.6964 86.1159L29.1174 86.7475L28.9404 86.9365C28.9202 86.9617 28.8968 86.9842 28.871 87.0035Z" fill="#263238"/>
<path d="M28.0629 86.9322C28.0629 86.9322 28.3715 86.5949 28.7806 86.1977C29.1897 85.8006 29.5127 85.48 29.5199 85.4967C29.5271 85.5135 29.2113 85.8341 28.8022 86.2312C28.3931 86.6284 28.0773 86.9394 28.0629 86.9322Z" fill="#263238"/>
<path d="M27.8737 86.2009C27.9761 86.0575 28.0906 85.923 28.2158 85.799C28.3303 85.6643 28.456 85.5395 28.5914 85.4258C28.3758 85.7051 28.1356 85.9645 27.8737 86.2009Z" fill="#263238"/>
<path d="M24.8134 82.7077C24.8134 82.7077 24.933 81.9636 25.1077 81.0473C25.2823 80.131 25.433 79.3941 25.445 79.3965C25.457 79.3989 25.3254 80.1429 25.1507 81.0569C24.9761 81.9708 24.8253 82.7101 24.8134 82.7077Z" fill="#263238"/>
<path d="M26.4565 82.7077C26.4565 82.7077 26.5761 81.9636 26.7507 81.0473C26.9254 80.131 27.0761 79.3941 27.0905 79.3965C27.1048 79.3989 26.9708 80.1429 26.7962 81.0569C26.6215 81.9708 26.4708 82.7101 26.4565 82.7077Z" fill="#263238"/>
<path d="M28.102 82.7077C28.102 82.7077 28.2216 81.9636 28.3962 81.0473C28.5709 80.131 28.7216 79.3941 28.7336 79.3965C28.7455 79.3989 28.6139 80.1429 28.4393 81.0569C28.2646 81.9708 28.1139 82.7101 28.102 82.7077Z" fill="#263238"/>
<path d="M29.7514 82.7093C29.7371 82.7093 29.8256 81.9724 29.9452 81.0681C30.0648 80.1637 30.1845 79.4293 30.1845 79.4316C30.1845 79.434 30.1103 80.1685 29.9907 81.0729C29.8711 81.9772 29.7514 82.7117 29.7514 82.7093Z" fill="#263238"/>
<path d="M31.3918 82.7093C31.3918 82.7093 31.4492 81.9724 31.5473 81.0681C31.6454 80.1637 31.7363 79.4293 31.7482 79.4316C31.7602 79.434 31.6908 80.1685 31.5927 81.0729C31.4946 81.9772 31.4037 82.7117 31.3918 82.7093Z" fill="#263238"/>
<path d="M33.0378 82.7093C33.0235 82.7093 33.0618 81.9748 33.1216 81.0681C33.1814 80.1613 33.2388 79.4293 33.2508 79.4316C33.2627 79.434 33.2268 80.1661 33.167 81.0729C33.1072 81.9796 33.0498 82.7117 33.0378 82.7093Z" fill="#263238"/>
<path d="M34.6805 82.708C34.6805 82.708 34.6183 81.9783 34.5704 81.0739C34.5226 80.1696 34.4915 79.4375 34.5035 79.4375C34.5154 79.4375 34.5657 80.1672 34.6159 81.0716C34.6661 81.9759 34.6925 82.708 34.6805 82.708Z" fill="#263238"/>
<path d="M36.3292 82.708C36.3173 82.708 36.1737 81.9903 36.0134 81.0763C35.8531 80.1624 35.7287 79.4399 35.7407 79.4375C35.7527 79.4351 35.8962 80.1552 36.0565 81.0692C36.2168 81.9831 36.3412 82.7056 36.3292 82.708Z" fill="#263238"/>
<path d="M34.6837 76.7695H26.3173V79.3988H34.6837V76.7695Z" fill="#455A64"/>
<path d="M27.3354 78.201C27.3346 78.1081 27.3529 78.0159 27.3891 77.9303C27.4253 77.8447 27.4787 77.7675 27.546 77.7033C27.6133 77.6392 27.693 77.5896 27.7802 77.5575C27.8674 77.5254 27.9603 77.5115 28.0531 77.5168C28.1596 77.5107 28.2661 77.5291 28.3644 77.5706C28.4627 77.612 28.5502 77.6755 28.6201 77.756L28.3809 77.9713C28.3445 77.9234 28.2974 77.8846 28.2435 77.858C28.1895 77.8315 28.13 77.8178 28.0699 77.8182C27.9703 77.8182 27.8747 77.8578 27.8043 77.9282C27.7338 77.9987 27.6943 78.0942 27.6943 78.1938C27.6943 78.2934 27.7338 78.389 27.8043 78.4594C27.8747 78.5299 27.9703 78.5694 28.0699 78.5694C28.1302 78.5693 28.1897 78.5553 28.2437 78.5283C28.2976 78.5013 28.3446 78.4621 28.3809 78.4139L28.6201 78.6292C28.5504 78.7101 28.463 78.7737 28.3646 78.8152C28.2663 78.8567 28.1597 78.8749 28.0531 78.8685C27.9617 78.8737 27.8702 78.8603 27.7841 78.8292C27.698 78.7982 27.6191 78.75 27.552 78.6877C27.485 78.6253 27.4313 78.5501 27.394 78.4665C27.3568 78.3828 27.3368 78.2925 27.3354 78.201Z" fill="white"/>
<path d="M28.6777 78.3471C28.6681 78.2315 28.6935 78.1157 28.7507 78.0148C28.808 77.9139 28.8943 77.8326 28.9984 77.7815C29.1026 77.7305 29.2197 77.712 29.3345 77.7286C29.4493 77.7451 29.5565 77.7959 29.642 77.8743C29.7275 77.9527 29.7873 78.055 29.8137 78.168C29.8401 78.2809 29.8319 78.3992 29.79 78.5074C29.7481 78.6156 29.6746 78.7086 29.579 78.7743C29.4834 78.84 29.3703 78.8754 29.2543 78.8758C29.181 78.8821 29.1072 78.8731 29.0376 78.8494C28.968 78.8257 28.904 78.7878 28.8498 78.7381C28.7956 78.6884 28.7523 78.628 28.7227 78.5607C28.6931 78.4934 28.6777 78.4206 28.6777 78.3471ZM29.4672 78.3471C29.4704 78.3171 29.4672 78.2867 29.4579 78.258C29.4486 78.2293 29.4333 78.2028 29.4131 78.1804C29.3929 78.158 29.3683 78.14 29.3407 78.1277C29.3131 78.1154 29.2833 78.1091 29.2531 78.1091C29.2229 78.1091 29.193 78.1154 29.1655 78.1277C29.1379 78.14 29.1132 78.158 29.093 78.1804C29.0728 78.2028 29.0576 78.2293 29.0482 78.258C29.0389 78.2867 29.0358 78.3171 29.0389 78.3471C29.0358 78.3771 29.0389 78.4075 29.0482 78.4362C29.0576 78.4649 29.0728 78.4913 29.093 78.5138C29.1132 78.5362 29.1379 78.5542 29.1655 78.5664C29.193 78.5787 29.2229 78.5851 29.2531 78.5851C29.2833 78.5851 29.3131 78.5787 29.3407 78.5664C29.3683 78.5542 29.3929 78.5362 29.4131 78.5138C29.4333 78.4913 29.4486 78.4649 29.4579 78.4362C29.4672 78.4075 29.4704 78.3771 29.4672 78.3471Z" fill="white"/>
<path d="M30.3841 77.8785H30.6233V78.144H30.3841V78.8618H30.0252V78.144H29.8769V77.8785H30.0252V77.8522C30.0217 77.7963 30.0305 77.7403 30.0509 77.6882C30.0714 77.6361 30.1031 77.5891 30.1437 77.5505C30.1843 77.512 30.2328 77.4828 30.286 77.465C30.3391 77.4473 30.3954 77.4414 30.4511 77.4478C30.534 77.4443 30.6165 77.4625 30.6903 77.5005L30.6018 77.7397C30.5689 77.721 30.532 77.7103 30.4941 77.7086C30.42 77.7086 30.3769 77.7517 30.3769 77.8426L30.3841 77.8785Z" fill="white"/>
<path d="M31.147 77.8785H31.3863V78.1441H31.147V78.8618H30.7905V78.1441H30.6398V77.8785H30.7905V77.8522C30.7866 77.7964 30.7951 77.7405 30.8153 77.6884C30.8355 77.6362 30.8669 77.5892 30.9073 77.5506C30.9477 77.512 30.9962 77.4828 31.0492 77.465C31.1022 77.4473 31.1585 77.4414 31.214 77.4479C31.297 77.4444 31.3794 77.4625 31.4532 77.5005L31.3647 77.7397C31.3318 77.721 31.2949 77.7103 31.2571 77.7086C31.1829 77.7086 31.1398 77.7517 31.1398 77.8426L31.147 77.8785Z" fill="white"/>
<path d="M32.5459 78.4408H31.8042C31.8208 78.4903 31.8532 78.533 31.8964 78.5624C31.9396 78.5918 31.9913 78.6062 32.0434 78.6035C32.0872 78.6053 32.1309 78.5985 32.172 78.5833C32.213 78.5681 32.2507 78.5449 32.2827 78.515L32.4693 78.7112C32.4134 78.7684 32.3457 78.8128 32.2709 78.8413C32.1961 78.8698 32.1161 78.8817 32.0363 78.8762C31.9616 78.8842 31.8861 78.8766 31.8145 78.8537C31.7429 78.8309 31.6769 78.7935 31.6207 78.7437C31.5644 78.694 31.5191 78.633 31.4877 78.5648C31.4562 78.4966 31.4394 78.4226 31.4381 78.3475C31.4383 78.2757 31.4532 78.2046 31.4819 78.1388C31.5105 78.0729 31.5524 78.0136 31.6048 77.9645C31.6573 77.9155 31.7192 77.8776 31.7868 77.8534C31.8544 77.8291 31.9263 77.819 31.998 77.8236C32.0695 77.8185 32.1413 77.8285 32.2087 77.853C32.276 77.8776 32.3375 77.916 32.389 77.9659C32.4404 78.0159 32.4808 78.0761 32.5074 78.1426C32.5341 78.2092 32.5463 78.2807 32.5435 78.3523C32.5506 78.3786 32.5459 78.4193 32.5459 78.4408ZM31.7994 78.2518H32.2157C32.2081 78.202 32.183 78.1566 32.1448 78.1238C32.1066 78.091 32.0579 78.0729 32.0075 78.0729C31.9572 78.0729 31.9085 78.091 31.8703 78.1238C31.8321 78.1566 31.807 78.202 31.7994 78.2518Z" fill="white"/>
<path d="M33.752 78.4407H33.0127C33.0293 78.4903 33.0617 78.533 33.1049 78.5624C33.1481 78.5917 33.1998 78.6062 33.2519 78.6034C33.2957 78.6056 33.3395 78.5988 33.3806 78.5836C33.4217 78.5684 33.4593 78.545 33.4912 78.5149L33.6802 78.7111C33.6237 78.7682 33.5556 78.8126 33.4804 78.8411C33.4053 78.8695 33.3249 78.8815 33.2448 78.8762C33.1701 78.8842 33.0945 78.8765 33.023 78.8537C32.9514 78.8309 32.8854 78.7934 32.8291 78.7436C32.7729 78.6939 32.7276 78.633 32.6962 78.5648C32.6647 78.4965 32.6479 78.4225 32.6466 78.3474C32.6468 78.2754 32.6617 78.2041 32.6906 78.1381C32.7194 78.0721 32.7614 78.0127 32.8141 77.9636C32.8668 77.9144 32.9291 77.8767 32.997 77.8526C33.0649 77.8285 33.137 77.8186 33.2089 77.8235C33.2803 77.8188 33.3519 77.8291 33.4191 77.8537C33.4863 77.8784 33.5476 77.9169 33.599 77.9667C33.6504 78.0166 33.6908 78.0766 33.7176 78.143C33.7443 78.2094 33.7568 78.2807 33.7544 78.3522C33.7591 78.3785 33.7543 78.4192 33.752 78.4407ZM33.0055 78.2517H33.4242C33.4151 78.2029 33.3892 78.1587 33.351 78.1269C33.3127 78.0951 33.2646 78.0777 33.2148 78.0777C33.1651 78.0777 33.117 78.0951 33.0787 78.1269C33.0405 78.1587 33.0146 78.2029 33.0055 78.2517Z" fill="white"/>
<path d="M26.2005 72.5331C26.2005 72.8585 25.9613 73.0618 25.5641 73.0618H25.3249V73.4374H24.9086V72.002H25.5641C25.9541 72.002 26.2005 72.1981 26.2005 72.5331ZM25.7914 72.5331C25.7914 72.3991 25.7077 72.3225 25.5522 72.3225H25.3129V72.7412H25.5522C25.7077 72.7412 25.7914 72.6766 25.7914 72.5331Z" fill="#E0E0E0"/>
<path d="M26.4015 72.002H26.8058V73.4374H26.4015V72.002Z" fill="#E0E0E0"/>
<path d="M27.0144 72.7205C27.0139 72.6186 27.0343 72.5178 27.0744 72.4241C27.1144 72.3305 27.1733 72.246 27.2473 72.176C27.3213 72.1061 27.4089 72.052 27.5047 72.0173C27.6004 71.9825 27.7023 71.9678 27.8039 71.974C27.9203 71.969 28.0362 71.9908 28.1428 72.0377C28.2494 72.0846 28.3438 72.1553 28.4188 72.2444L28.1628 72.4836C28.1228 72.4315 28.0714 72.3893 28.0125 72.3603C27.9536 72.3313 27.8888 72.3162 27.8231 72.3162C27.7146 72.3162 27.6105 72.3593 27.5338 72.436C27.4571 72.5127 27.414 72.6168 27.414 72.7253C27.414 72.8338 27.4571 72.9378 27.5338 73.0146C27.6105 73.0913 27.7146 73.1344 27.8231 73.1344C27.8888 73.1344 27.9536 73.1193 28.0125 73.0903C28.0714 73.0612 28.1228 73.019 28.1628 72.9669L28.4188 73.2062C28.3438 73.2953 28.2494 73.366 28.1428 73.4129C28.0362 73.4597 27.9203 73.4815 27.8039 73.4765C27.7015 73.4828 27.5988 73.4678 27.5024 73.4325C27.406 73.3972 27.3179 73.3423 27.2438 73.2713C27.1696 73.2003 27.1109 73.1147 27.0715 73.0199C27.032 72.9251 27.0126 72.8232 27.0144 72.7205Z" fill="#E0E0E0"/>
<path d="M29.1538 72.9159L29.0007 73.0786V73.4374H28.5988V72.002H29.0007V72.5977L29.5558 72.002H30.0032L29.417 72.6384L30.0343 73.4374H29.5558L29.1538 72.9159Z" fill="#E0E0E0"/>
<path d="M30.724 72.7963V72.002H31.1284V72.7843C31.1284 73.0235 31.2312 73.1288 31.4011 73.1288C31.571 73.1288 31.6714 73.0307 31.6714 72.7843V72.002H32.071V72.7963C32.0608 72.9679 31.9853 73.1292 31.8602 73.2472C31.735 73.3651 31.5695 73.4308 31.3975 73.4308C31.2255 73.4308 31.06 73.3651 30.9349 73.2472C30.8097 73.1292 30.7343 72.9679 30.724 72.7963Z" fill="#E0E0E0"/>
<path d="M33.6348 72.5331C33.6348 72.8585 33.3955 73.0618 32.996 73.0618H32.7567V73.4374H32.35V72.002H33.0055C33.3883 72.002 33.6348 72.1981 33.6348 72.5331ZM33.2233 72.5331C33.2233 72.3991 33.1395 72.3225 32.984 72.3225H32.7591V72.7412H32.984C33.1395 72.7412 33.2233 72.6766 33.2233 72.5331Z" fill="#E0E0E0"/>
<path d="M34.4484 72.002H34.8527V73.4374H34.4484V72.002Z" fill="#E0E0E0"/>
<path d="M36.5042 72.002V73.4374H36.1717L35.5377 72.6718V73.4374H35.1405V72.002H35.4755L36.1071 72.7675V72.002H36.5042Z" fill="#E0E0E0"/>
<path d="M36.7047 72.5381C36.7047 72.4908 36.7188 72.4445 36.7451 72.4052C36.7714 72.3658 36.8087 72.3351 36.8524 72.317C36.8962 72.2989 36.9443 72.2942 36.9907 72.3034C37.0371 72.3127 37.0797 72.3354 37.1132 72.3689C37.1466 72.4024 37.1694 72.445 37.1786 72.4914C37.1879 72.5378 37.1831 72.5859 37.165 72.6296C37.1469 72.6733 37.1163 72.7107 37.0769 72.737C37.0376 72.7633 36.9913 72.7773 36.944 72.7773C36.912 72.7794 36.88 72.7747 36.85 72.7634C36.82 72.7521 36.7928 72.7346 36.7701 72.7119C36.7475 72.6893 36.7299 72.6621 36.7186 72.6321C36.7074 72.6021 36.7026 72.57 36.7047 72.5381ZM36.7047 73.2223C36.7168 73.1695 36.7464 73.1223 36.7888 73.0885C36.8312 73.0547 36.8838 73.0362 36.938 73.0362C36.9922 73.0362 37.0448 73.0547 37.0872 73.0885C37.1296 73.1223 37.1592 73.1695 37.1713 73.2223C37.1592 73.2752 37.1296 73.3224 37.0872 73.3562C37.0448 73.39 36.9922 73.4084 36.938 73.4084C36.8838 73.4084 36.8312 73.39 36.7888 73.3562C36.7464 73.3224 36.7168 73.2752 36.7047 73.2223Z" fill="#E0E0E0"/>
<path d="M47.0946 81.4216C47.0946 81.4551 45.329 81.4838 43.1494 81.4838C40.9699 81.4838 39.2043 81.4551 39.2043 81.4216C39.2043 81.3881 40.9699 81.3594 43.1494 81.3594C45.329 81.3594 47.0946 81.3857 47.0946 81.4216Z" fill="#263238"/>
<path d="M47.0946 83.2145C47.0946 83.248 45.329 83.2767 43.1494 83.2767C40.9699 83.2767 39.2043 83.248 39.2043 83.2145C39.2043 83.181 40.9699 83.1523 43.1494 83.1523C45.329 83.1523 47.0946 83.1787 47.0946 83.2145Z" fill="#263238"/>
<path d="M43.848 85.008C43.0761 85.0696 42.3015 85.0904 41.5273 85.0702C40.7524 85.0903 39.977 85.0696 39.2043 85.008C39.9769 84.945 40.7524 84.9242 41.5273 84.9458C42.3015 84.9241 43.0762 84.9449 43.848 85.008Z" fill="#263238"/>
<path d="M40.8838 37.1892C40.8838 37.2227 39.4483 37.2514 37.6875 37.2514C35.9266 37.2514 34.4911 37.2227 34.4911 37.1892C34.4911 37.1557 35.9266 37.127 37.6875 37.127C39.4483 37.127 40.8838 37.1533 40.8838 37.1892Z" fill="#263238"/>
<path d="M39.5368 38.9142C39.5368 38.9477 38.4076 38.9764 37.0152 38.9764C35.6228 38.9764 34.4911 38.9477 34.4911 38.9142C35.3309 38.8512 36.1733 38.8304 37.0152 38.852C37.8562 38.8304 38.6979 38.8512 39.5368 38.9142Z" fill="#263238"/>
<path d="M44.5361 39.6209V40.0132H44.1054V39.6352C43.7902 39.6221 43.4834 39.5299 43.213 39.3673L43.4523 38.8529C43.6957 39.0071 43.9775 39.09 44.2657 39.0921C44.5552 39.0921 44.6677 39.0108 44.6677 38.8912C44.6677 38.5012 43.2657 38.7859 43.2657 37.8696C43.2657 37.482 43.5432 37.1518 44.115 37.0848V36.6973H44.5361V37.0777C44.7878 37.093 45.033 37.1641 45.2538 37.2858L45.0385 37.8026C44.8306 37.6833 44.5963 37.6175 44.3566 37.6112C44.0648 37.6112 43.9571 37.7117 43.9571 37.8337C43.9571 38.2117 45.3567 37.9294 45.3567 38.8385C45.3543 39.2165 45.0863 39.5395 44.5361 39.6209Z" fill="#263238"/>
<path d="M46.8202 39.6209V40.0132H46.3991V39.6352C46.0839 39.6221 45.7771 39.5299 45.5067 39.3673L45.746 38.8529C45.9894 39.0071 46.2712 39.09 46.5594 39.0921C46.8489 39.0921 46.9614 39.0108 46.9614 38.8912C46.9614 38.5012 45.5594 38.7859 45.5594 37.8696C45.5594 37.482 45.8369 37.1518 46.4087 37.0848V36.6973H46.8298V37.0777C47.0815 37.093 47.3267 37.1641 47.5475 37.2858L47.3322 37.8026C47.1243 37.6833 46.89 37.6175 46.6503 37.6112C46.3585 37.6112 46.2508 37.7117 46.2508 37.8337C46.2508 38.2117 47.6504 37.9294 47.6504 38.8385C47.6384 39.2165 47.3705 39.5395 46.8202 39.6209Z" fill="#263238"/>
<path d="M31.6782 35.6191H27.5751C26.962 35.6191 26.465 36.1162 26.465 36.7292V40.8323C26.465 41.4454 26.962 41.9424 27.5751 41.9424H31.6782C32.2913 41.9424 32.7883 41.4454 32.7883 40.8323V36.7292C32.7883 36.1162 32.2913 35.6191 31.6782 35.6191Z" fill="#F68821"/>
<path d="M30.3423 40.4536H28.8925C28.8643 40.4536 28.837 40.4438 28.8152 40.4259C28.7934 40.408 28.7784 40.3832 28.7729 40.3555L28.3566 38.1353C28.3534 38.1181 28.3541 38.1004 28.3585 38.0835C28.363 38.0665 28.3711 38.0508 28.3822 38.0373C28.3934 38.0239 28.4074 38.013 28.4232 38.0056C28.4391 37.9981 28.4563 37.9942 28.4738 37.9941H30.7586C30.7761 37.9942 30.7934 37.9981 30.8092 38.0056C30.8251 38.013 30.839 38.0239 30.8502 38.0373C30.8614 38.0508 30.8695 38.0665 30.8739 38.0835C30.8784 38.1004 30.879 38.1181 30.8759 38.1353L30.4691 40.3555C30.4634 40.3844 30.4474 40.4103 30.4241 40.4283C30.4008 40.4463 30.3718 40.4553 30.3423 40.4536ZM28.9906 40.2144H30.2419L30.6151 38.2334H28.6198L28.9906 40.2144Z" fill="white"/>
<path d="M31.0962 38.1709H28.0458C28.0143 38.1703 27.9842 38.1575 27.9619 38.1352C27.9396 38.1129 27.9268 38.0828 27.9262 38.0513C27.9262 38.0195 27.9388 37.9891 27.9612 37.9667C27.9836 37.9442 28.0141 37.9316 28.0458 37.9316H31.0962C31.1279 37.9316 31.1583 37.9442 31.1808 37.9667C31.2032 37.9891 31.2158 38.0195 31.2158 38.0513C31.2158 38.083 31.2032 38.1134 31.1808 38.1359C31.1583 38.1583 31.1279 38.1709 31.0962 38.1709Z" fill="white"/>
<path d="M28.3727 38.1692C28.3585 38.1726 28.3437 38.1726 28.3296 38.1692C28.3148 38.1639 28.3013 38.1557 28.2898 38.1451C28.2783 38.1344 28.269 38.1216 28.2626 38.1073C28.2561 38.0931 28.2525 38.0776 28.2521 38.062C28.2517 38.0463 28.2545 38.0307 28.2602 38.0161L28.5736 37.1931C28.5836 37.1673 28.6021 37.1457 28.626 37.1318C28.6499 37.1179 28.6778 37.1125 28.7052 37.1165L30.5235 37.3941C30.5438 37.3974 30.5629 37.4057 30.5792 37.4182C30.5954 37.4307 30.6084 37.4471 30.6168 37.4658L30.8249 37.9443C30.8313 37.9588 30.8347 37.9743 30.835 37.9901C30.8353 38.0059 30.8325 38.0216 30.8267 38.0362C30.8209 38.0509 30.8123 38.0643 30.8013 38.0756C30.7903 38.087 30.7772 38.096 30.7627 38.1022C30.7483 38.1086 30.7327 38.112 30.717 38.1123C30.7012 38.1126 30.6855 38.1098 30.6708 38.104C30.6562 38.0982 30.6428 38.0896 30.6314 38.0786C30.6201 38.0676 30.6111 38.0545 30.6048 38.04L30.423 37.619L28.7626 37.3654L28.4851 38.0998C28.4748 38.1208 28.4587 38.1384 28.4388 38.1507C28.419 38.163 28.396 38.1694 28.3727 38.1692Z" fill="white"/>
<path d="M29.9597 38.9659C29.9369 38.925 29.9003 38.8937 29.8564 38.8774C29.8125 38.8612 29.7643 38.8612 29.7204 38.8774C29.6364 38.9068 29.5603 38.9551 29.4979 39.0185C29.4314 39.0808 29.3919 39.1667 29.3879 39.2578C29.3849 39.3017 29.3949 39.3454 29.4166 39.3837C29.4383 39.422 29.4707 39.4531 29.5099 39.4731C29.5641 39.4902 29.622 39.4921 29.6773 39.4786C29.7325 39.4651 29.7831 39.4367 29.8233 39.3965C29.8889 39.3476 29.9394 39.2813 29.9692 39.2051C29.9888 39.1679 29.9982 39.1262 29.9965 39.0842C29.9949 39.0422 29.9821 39.0014 29.9597 38.9659Z" fill="white"/>
<path d="M29.431 39.4764C29.4241 39.4792 29.4164 39.4792 29.4094 39.4764C29.4039 39.4706 29.4008 39.4629 29.4008 39.4549C29.4008 39.4468 29.4039 39.4391 29.4094 39.4333C29.5276 39.308 29.653 39.1898 29.7851 39.0793C29.7911 39.0742 29.7989 39.0717 29.8067 39.0724C29.8146 39.073 29.8219 39.0768 29.8269 39.0828C29.832 39.0889 29.8345 39.0967 29.8338 39.1045C29.8331 39.1124 29.8294 39.1196 29.8233 39.1247C29.6942 39.2348 29.5697 39.364 29.4525 39.474C29.4459 39.4776 29.4382 39.4784 29.431 39.4764Z" fill="#F68821"/>
<path d="M21.6993 31.2793H21.2209V66.8553H21.6993V31.2793Z" fill="#F68821"/>
<path d="M21.3242 32.267L20.207 31.3316C20.2033 31.3282 20.2004 31.3241 20.1985 31.3196C20.1965 31.3151 20.1955 31.3102 20.1955 31.3053C20.1955 31.3003 20.1965 31.2954 20.1985 31.2909C20.2004 31.2864 20.2033 31.2823 20.207 31.2789L20.5012 30.9272C20.5046 30.9236 20.5087 30.9207 20.5132 30.9187C20.5177 30.9168 20.5226 30.9158 20.5275 30.9158C20.5325 30.9158 20.5374 30.9168 20.5419 30.9187C20.5464 30.9207 20.5505 30.9236 20.5539 30.9272L21.2716 31.5373C21.2787 31.5441 21.2881 31.5478 21.2979 31.5478C21.3077 31.5478 21.3171 31.5441 21.3242 31.5373L22.4774 30.3076C22.4849 30.3007 22.4947 30.2969 22.5049 30.2969C22.5151 30.2969 22.5249 30.3007 22.5324 30.3076L22.865 30.621C22.8686 30.6244 22.8715 30.6284 22.8735 30.633C22.8755 30.6375 22.8765 30.6424 22.8765 30.6473C22.8765 30.6523 22.8755 30.6572 22.8735 30.6617C22.8715 30.6662 22.8686 30.6703 22.865 30.6736L21.3769 32.2622C21.3704 32.2696 21.3613 32.2743 21.3515 32.2752C21.3417 32.2761 21.3319 32.2731 21.3242 32.267Z" fill="white"/>
<path d="M21.3242 52.8575L20.207 51.9244C20.2033 51.9211 20.2004 51.917 20.1985 51.9125C20.1965 51.908 20.1955 51.9031 20.1955 51.8981C20.1955 51.8932 20.1965 51.8883 20.1985 51.8838C20.2004 51.8792 20.2033 51.8752 20.207 51.8718L20.5012 51.5201C20.5046 51.5165 20.5087 51.5136 20.5132 51.5116C20.5177 51.5096 20.5226 51.5086 20.5275 51.5086C20.5325 51.5086 20.5374 51.5096 20.5419 51.5116C20.5464 51.5136 20.5505 51.5165 20.5539 51.5201L21.2716 52.1302C21.2787 52.1369 21.2881 52.1407 21.2979 52.1407C21.3077 52.1407 21.3171 52.1369 21.3242 52.1302L22.4846 50.9052C22.4921 50.8984 22.5019 50.8945 22.5121 50.8945C22.5223 50.8945 22.5321 50.8984 22.5396 50.9052L22.8722 51.2187C22.8758 51.222 22.8787 51.2261 22.8807 51.2306C22.8826 51.2351 22.8836 51.24 22.8836 51.245C22.8836 51.2499 22.8826 51.2548 22.8807 51.2593C22.8787 51.2639 22.8758 51.2679 22.8722 51.2713L21.3769 52.8551C21.3739 52.8592 21.3701 52.8626 21.3656 52.8651C21.3612 52.8675 21.3562 52.8689 21.3511 52.8691C21.3461 52.8693 21.341 52.8684 21.3363 52.8664C21.3317 52.8644 21.3275 52.8613 21.3242 52.8575Z" fill="white"/>
<path d="M21.6993 65.7363H21.2209V73.0501H21.6993V65.7363Z" fill="#E0E0E0"/>
<path d="M22.898 72.4492C22.898 72.7331 22.8138 73.0106 22.656 73.2467C22.4983 73.4827 22.2741 73.6667 22.0118 73.7754C21.7495 73.884 21.4609 73.9124 21.1824 73.8571C20.904 73.8017 20.6482 73.6649 20.4475 73.4642C20.2467 73.2634 20.11 73.0077 20.0546 72.7292C19.9992 72.4507 20.0276 72.1621 20.1363 71.8998C20.2449 71.6375 20.4289 71.4133 20.665 71.2556C20.901 71.0979 21.1786 71.0137 21.4625 71.0137C21.8432 71.0137 22.2083 71.1649 22.4775 71.4341C22.7467 71.7033 22.898 72.0684 22.898 72.4492Z" fill="#E0E0E0"/>
<path d="M50.8485 104.816C50.7241 105.187 54.3941 120.049 54.3941 120.049H63.3228L63.6745 105.934L50.8485 104.816Z" fill="#AE7461"/>
<path d="M67.0758 105.934C67.2002 106.676 71.923 120.05 71.923 120.05L81.902 120.036L79.0717 104.824L67.0758 105.934Z" fill="#AE7461"/>
<path d="M52.8764 75.4096C51.2403 77.1732 50.1428 79.3681 49.7136 81.7352C49.4743 83.0008 48.5939 85.6708 48.6561 90.5132C48.7566 98.3772 49.0915 109.689 49.0915 109.689C59.7694 110.291 70.4727 110.291 81.1506 109.689C81.1506 109.689 75.2962 81.1252 72.9086 77.5006L71.8846 74.998L52.8764 75.4096Z" fill="#263238"/>
<path d="M52.8772 75.4101L53.2073 75.3981L54.1859 75.3694L57.9564 75.2761L71.8949 74.9531H71.926L71.938 74.9818L72.9619 77.482C73.2519 77.9833 73.4969 78.5093 73.694 79.0538L73.9979 79.8864C74.0912 80.1687 74.1869 80.4534 74.2826 80.7381C74.6534 81.8889 75.0003 83.0851 75.3401 84.3148C76.0195 86.7767 76.6703 89.3845 77.3258 92.1071C78.6273 97.5571 79.9336 103.471 81.2255 109.682L81.2399 109.754H81.1681C79.2111 109.864 77.132 109.962 75.029 110.036C65.7176 110.362 56.8822 110.194 49.0899 109.749H49.0397V109.697C48.9248 104.486 48.8196 99.6793 48.7263 95.4015C48.7023 94.3329 48.6792 93.2962 48.6569 92.2913C48.6377 91.2913 48.6042 90.3247 48.6258 89.3917C48.6502 87.6818 48.819 85.9771 49.1306 84.2957C49.2741 83.5349 49.4464 82.8196 49.6091 82.1425L49.8244 81.1616C49.8938 80.8434 49.9895 80.5443 50.0636 80.2524C50.3767 79.2785 50.798 78.3428 51.3197 77.4628C51.6489 76.9163 52.0192 76.3956 52.4274 75.9053C52.5677 75.737 52.7179 75.5773 52.8772 75.4268L52.7623 75.5512C52.6906 75.6326 52.5805 75.7546 52.4418 75.9221C52.0402 76.4161 51.6755 76.9391 51.3508 77.4867C50.8331 78.3702 50.4166 79.3092 50.1091 80.2859C50.0278 80.5754 49.9345 80.8745 49.8699 81.1903C49.8053 81.5061 49.7311 81.8339 49.6593 82.1712C49.5062 82.8459 49.3339 83.5588 49.1952 84.3244C48.8928 86.0026 48.7327 87.7033 48.7167 89.4084C48.6975 90.3367 48.7334 91.3032 48.755 92.3057C48.7765 93.3081 48.8028 94.3417 48.8291 95.4159C48.9296 99.6936 49.0397 104.507 49.1617 109.711L49.1091 109.656C56.8989 110.091 65.7295 110.256 75.0362 109.931C77.1392 109.857 79.2159 109.759 81.1729 109.651L81.1155 109.725C79.8259 103.505 78.522 97.6002 77.2253 92.1526C76.5746 89.4275 75.9238 86.8198 75.2491 84.3603C74.9094 83.1282 74.5673 81.9343 74.1989 80.786C74.1032 80.5013 74.0098 80.2165 73.9165 79.9342C73.8232 79.6519 73.7156 79.3792 73.6151 79.104C73.4221 78.5656 73.1819 78.0452 72.8973 77.5489C72.5385 76.6733 72.1916 75.8192 71.8758 75.0464L71.9188 75.0751L57.9827 75.324L54.2074 75.3957L53.2241 75.4101H52.8772Z" fill="#455A64"/>
<path d="M65.9589 107.343C65.9315 107.286 65.9083 107.227 65.8895 107.166L65.7172 106.652C65.5689 106.202 65.3512 105.556 65.0737 104.759C64.5186 103.166 63.698 100.984 62.6692 98.6249C61.6405 96.2659 60.5926 94.182 59.7983 92.6915C59.4035 91.9475 59.0805 91.347 58.8413 90.9355L58.5805 90.457C58.5477 90.4032 58.5205 90.3463 58.4992 90.2871C58.5371 90.3373 58.5715 90.39 58.6021 90.445C58.6738 90.5622 58.7671 90.7154 58.882 90.9235C59.1212 91.3278 59.4633 91.9212 59.8677 92.6628C60.6811 94.1438 61.7386 96.2252 62.7697 98.589C63.8009 100.953 64.6095 103.135 65.1454 104.742C65.4134 105.544 65.6239 106.195 65.7507 106.656C65.8129 106.874 65.8656 107.046 65.9015 107.178C65.9253 107.231 65.9445 107.286 65.9589 107.343Z" fill="#455A64"/>
<path d="M66.5515 88.7248C66.5826 88.7392 66.073 89.9211 65.4151 91.3781C64.7572 92.8351 64.2021 93.9931 64.1662 93.9691C64.1303 93.9452 64.6447 92.7729 65.3027 91.3183C65.9606 89.8637 66.5204 88.7057 66.5515 88.7248Z" fill="#455A64"/>
<path d="M53.8558 32.7383C53.2243 33.362 52.7531 34.1292 52.4823 34.9745C52.2115 35.8198 52.1492 36.718 52.3007 37.5926C52.4538 38.4395 52.7912 39.3869 52.3007 40.0951C51.8102 40.8033 50.7384 40.8894 50.2815 41.6072C49.7432 42.4517 50.3819 43.5594 50.2599 44.5547C50.1872 45.0193 49.9517 45.4428 49.5953 45.7497C49.239 46.0565 48.7851 46.2265 48.3148 46.2294C49.5033 47.0079 50.8831 47.4441 52.3031 47.4902L53.229 46.0093C52.8725 46.5309 53.0591 47.2845 53.5041 47.7343C53.9491 48.184 54.5783 48.3874 55.1956 48.5166C56.6792 48.8099 58.2105 48.757 59.6703 48.362C61.1301 47.967 62.4791 47.2404 63.6123 46.239" fill="#263238"/>
<path d="M70.6656 38.609C70.3857 37.9774 69.9646 37.4128 69.7493 36.7525C69.2923 35.3385 69.8283 33.6423 68.9909 32.4125C68.3976 31.5369 67.2875 31.1948 66.2491 30.9771C65.2108 30.7593 64.0959 30.6206 63.2801 29.9603C62.6748 29.4818 62.2848 28.764 61.6795 28.2855C60.8206 27.5917 59.6387 27.4506 58.5358 27.496C57.4329 27.5415 56.2486 27.7712 55.2868 28.3741C54.3251 28.977 53.581 29.9961 53.514 31.1302C53.4829 31.6828 53.6097 32.2451 53.4925 32.7858C53.3633 33.3815 52.9566 33.8743 52.7341 34.4414C52.5132 35.0473 52.4998 35.7095 52.6959 36.324C52.8921 36.9384 53.2867 37.4704 53.8179 37.8363L62.5863 47.0257C64.2753 47.4707 68.1368 46.3223 69.2684 44.9921C70.4001 43.6619 71.3834 40.2048 70.6656 38.609Z" fill="#263238"/>
<path d="M53.8829 36.5534C53.9666 34.2542 55.4141 31.3928 57.7108 31.5747L64.9194 33.1896C65.2558 33.2165 65.5699 33.3685 65.7998 33.6156C66.0296 33.8628 66.1585 34.1871 66.161 34.5246L66.6898 51.3627C66.3692 51.5254 66.6898 51.3627 66.6898 51.3627C66.7077 51.3522 66.7287 51.348 66.7493 51.3507C66.7699 51.3535 66.789 51.363 66.8036 51.3779C66.8182 51.3927 66.8274 51.412 66.8297 51.4327C66.8321 51.4533 66.8274 51.4742 66.8166 51.4919C66.0988 52.791 62.7135 58.4995 58.4836 57.3032C57.5266 57.0353 58.2444 54.071 58.029 53.0231L57.8688 50.3029C57.8161 48.9129 57.8018 48.3411 57.7994 48.353C57.797 48.365 54.8519 47.9439 54.1437 44.1303C53.7776 42.2331 53.7896 39.1085 53.8829 36.5534Z" fill="#AE7461"/>
<path d="M55.2289 39.8084C55.2289 39.8712 55.2413 39.9335 55.2653 39.9915C55.2894 40.0496 55.3246 40.1023 55.3691 40.1467C55.4135 40.1912 55.4662 40.2264 55.5243 40.2505C55.5823 40.2745 55.6446 40.2869 55.7074 40.2869C55.8331 40.2914 55.9556 40.2463 56.0483 40.1612C56.141 40.0761 56.1964 39.958 56.2026 39.8323C56.199 39.7066 56.1475 39.5869 56.0585 39.498C55.9695 39.409 55.8499 39.3574 55.7242 39.3538C55.5984 39.3493 55.4759 39.3944 55.3833 39.4795C55.2906 39.5646 55.2351 39.6827 55.2289 39.8084Z" fill="#263238"/>
<path d="M60.0556 39.9686C60.0556 40.0955 60.106 40.2172 60.1957 40.3069C60.2855 40.3966 60.4072 40.447 60.5341 40.447C60.6598 40.4516 60.7823 40.4065 60.875 40.3214C60.9676 40.2363 61.0231 40.1181 61.0293 39.9925C61.0293 39.8656 60.9789 39.7439 60.8892 39.6541C60.7994 39.5644 60.6777 39.514 60.5508 39.514C60.4251 39.5094 60.3026 39.5546 60.2099 39.6397C60.1172 39.7247 60.0618 39.8429 60.0556 39.9686Z" fill="#263238"/>
<path d="M54.4074 38.2274C54.4696 38.3111 54.8859 37.9762 55.4672 37.9881C56.0486 38.0001 56.4482 38.3637 56.5151 38.2848C56.5486 38.2489 56.4888 38.1006 56.3118 37.9355C56.0815 37.7304 55.7873 37.6112 55.4792 37.5981C55.171 37.5898 54.8696 37.6897 54.6275 37.8805C54.4433 38.0455 54.3763 38.1915 54.4074 38.2274Z" fill="#263238"/>
<path d="M59.5276 38.2963C59.6042 38.3704 60.0061 38.002 60.6282 37.9637C61.2502 37.9254 61.7119 38.2269 61.7718 38.1432C61.8029 38.1049 61.7239 37.9661 61.5182 37.825C61.2454 37.6469 60.922 37.5628 60.5971 37.5857C60.2744 37.6068 59.968 37.7347 59.7262 37.9494C59.5468 38.1145 59.4917 38.2628 59.5276 38.2963Z" fill="#263238"/>
<path d="M57.9812 42.0871C57.6995 42.0092 57.4096 41.965 57.1175 41.9555C56.9835 41.9555 56.8543 41.922 56.828 41.8311C56.8137 41.6912 56.842 41.5502 56.9094 41.4268L57.2874 40.3789C57.8041 38.9027 58.1726 37.6873 58.1128 37.6682C58.053 37.6491 57.5864 38.8285 57.072 40.2999C56.9476 40.6636 56.8328 41.0177 56.7156 41.343C56.6361 41.5092 56.6167 41.6977 56.6605 41.8765C56.6826 41.925 56.7158 41.9675 56.7574 42.0007C56.7989 42.034 56.8477 42.057 56.8998 42.0679C56.9781 42.0864 57.0586 42.0945 57.139 42.0919C57.4189 42.1249 57.7017 42.1233 57.9812 42.0871Z" fill="#263238"/>
<path d="M57.7875 48.3519C59.5926 48.3289 61.3558 47.8055 62.8811 46.8398C62.8811 46.8398 61.6633 49.5601 57.821 49.3041L57.7875 48.3519Z" fill="#6F4439"/>
<path d="M59.7462 43.4533C59.6718 43.3314 59.5671 43.2308 59.4423 43.1614C59.2947 43.1077 59.1329 43.1077 58.9854 43.1614C58.7633 43.2196 58.5656 43.347 58.4207 43.5251C58.3512 43.6154 58.3069 43.7225 58.2922 43.8356C58.2775 43.9486 58.2929 44.0635 58.337 44.1686C58.4183 44.3816 58.7581 44.4677 58.9854 44.4844C59.2156 44.4911 59.4411 44.4185 59.6241 44.2787C59.7093 44.2304 59.7807 44.161 59.8314 44.0773C59.8821 43.9935 59.9104 43.8981 59.9136 43.8002C59.8913 43.6712 59.8333 43.551 59.7462 43.4533Z" fill="#6F4439"/>
<path d="M59.5629 42.7247C59.4767 42.7247 59.4911 43.2941 59.0102 43.7152C58.5293 44.1363 57.9169 44.0884 57.9145 44.1698C57.9145 44.2057 58.0532 44.2774 58.3116 44.2774C58.6483 44.2728 58.9726 44.1501 59.2279 43.9305C59.4714 43.7189 59.6239 43.4216 59.6538 43.1003C59.6681 42.8611 59.6011 42.7199 59.5629 42.7247Z" fill="#263238"/>
<path d="M59.4194 36.8742C59.4744 37.0177 60.0008 36.934 60.6156 36.9938C61.2305 37.0536 61.7425 37.2067 61.8119 37.0751C61.8478 37.0129 61.7568 36.8813 61.5511 36.7474C61.2788 36.5801 60.9702 36.4809 60.6515 36.4579C60.3327 36.4284 60.0115 36.4743 59.7137 36.5919C59.496 36.6899 59.3859 36.8072 59.4194 36.8742Z" fill="#263238"/>
<path d="M54.7303 36.0728C54.8403 36.1901 55.2518 36.0537 55.7519 36.0345C56.2519 36.0154 56.6778 36.092 56.7735 35.9628C56.8141 35.9006 56.7447 35.7833 56.5557 35.6733C56.2975 35.5432 56.0097 35.483 55.721 35.4985C55.4322 35.514 55.1525 35.6048 54.9097 35.7618C54.7375 35.8766 54.6824 36.0034 54.7303 36.0728Z" fill="#263238"/>
<path d="M66.5017 33.5737C66.0949 33.0713 65.437 32.8559 64.8126 32.6885C62.1153 31.9563 59.3405 31.5475 56.5466 31.4707C56.2619 32.0712 56.6591 32.8081 57.2189 33.167C57.7787 33.5258 58.4606 33.6167 59.1042 33.7842C59.7477 33.9517 60.42 34.2436 60.7382 34.8273C61.0756 35.447 60.9272 36.2389 61.2335 36.8777C61.7622 37.9734 63.3867 38.1744 63.9106 39.2701C64.3054 40.1027 63.9106 41.0717 63.87 41.9904C63.8533 42.4572 63.9364 42.9222 64.1136 43.3544C64.2909 43.7866 64.5582 44.1761 64.8977 44.4969C65.2373 44.8177 65.6414 45.0624 66.0829 45.2148C66.5245 45.3671 66.9935 45.4236 67.4586 45.3805C67.3087 42.0964 67.1588 38.8108 67.0089 35.5235C66.9826 34.8417 66.9323 34.1072 66.5017 33.5737Z" fill="#263238"/>
<path d="M73.9353 41.1447C73.3706 40.7356 72.684 40.403 72.4089 39.7618C72.0093 38.8312 72.6673 37.6086 72.0763 36.7928C71.5404 36.0392 70.2054 36.2186 69.6982 35.4434C69.3011 34.8405 69.6217 34.2353 69.4398 33.6874C69.258 33.1395 68.4087 32.7304 67.8441 32.8572L64.0544 39.7953C63.8654 42.006 63.5759 43.2046 64.1644 44.4248C64.4922 45.0947 64.8941 45.7382 65.0712 46.4631C65.2482 47.1881 65.1453 48.0374 64.5927 48.535C67.2818 48.468 69.636 46.8124 71.806 45.2239L74.1027 43.5491C74.3559 43.3934 74.5664 43.1772 74.7152 42.9199C75.0095 42.2715 74.4879 41.5538 73.9353 41.1447Z" fill="#263238"/>
<path d="M71.8045 44.5518C71.7155 44.5905 71.6224 44.6186 71.5269 44.6356C71.2514 44.6923 70.9683 44.702 70.6896 44.6643C70.2453 44.6044 69.8241 44.4305 69.467 44.1595C68.9932 43.7906 68.6653 43.266 68.5411 42.6785C68.4671 42.3393 68.4614 41.9888 68.5244 41.6474C68.6078 41.2836 68.7398 40.9328 68.9168 40.6043C69.1042 40.2657 69.2404 39.9013 69.3211 39.5229C69.3635 39.3293 69.3622 39.1288 69.317 38.9359C69.2719 38.7429 69.1842 38.5626 69.0603 38.408C68.7852 38.1089 68.3258 38.0754 67.8904 37.951C67.6548 37.8929 67.4417 37.7663 67.2779 37.5874C67.1242 37.3929 67.0348 37.1554 67.0219 36.9079C66.9765 36.4294 67.1391 35.9509 67.1822 35.4868C67.2109 35.2573 67.188 35.0244 67.1152 34.8049C67.0331 34.5909 66.8769 34.4135 66.675 34.3049C66.2611 34.0656 65.7659 34.0656 65.2874 34.0848C64.8007 34.1174 64.3136 34.0269 63.871 33.8216C63.4448 33.616 63.0832 33.2974 62.8255 32.9005C62.6024 32.5132 62.441 32.0934 62.347 31.6564C62.2592 31.2542 62.1302 30.8622 61.9619 30.4865C61.7886 30.1449 61.5438 29.8446 61.2441 29.6061C60.7431 29.2105 60.1292 28.9847 59.4912 28.9615C58.8533 28.9382 58.2245 29.1188 57.6961 29.4769C57.3304 29.7136 57.0102 30.0143 56.7511 30.3645C56.5332 30.6676 56.3518 30.9952 56.2104 31.3406C56.2119 31.3159 56.2175 31.2917 56.2271 31.2688C56.2439 31.221 56.263 31.1516 56.3013 31.0631C56.401 30.8041 56.532 30.5583 56.6912 30.331C56.9513 29.9668 57.2756 29.653 57.6482 29.4051C58.1389 29.0669 58.7155 28.8752 59.311 28.8525C60.0364 28.8353 60.746 29.0657 61.3231 29.5056C61.6435 29.7526 61.9057 30.0671 62.091 30.4267C62.2671 30.8103 62.4026 31.2112 62.4954 31.6229C62.5866 32.0435 62.7432 32.4471 62.9595 32.8192C63.2045 33.1913 63.546 33.4899 63.9476 33.6828C64.37 33.8752 64.8342 33.9575 65.2969 33.9221C65.7754 33.9221 66.297 33.9006 66.7611 34.1613C66.995 34.288 67.1758 34.4942 67.2707 34.7427C67.3531 34.9841 67.3784 35.2412 67.3449 35.4939C67.2971 35.9724 67.1415 36.4509 67.1846 36.8864C67.1936 37.1027 67.2697 37.3109 67.4023 37.4821C67.5474 37.6389 67.7355 37.7496 67.943 37.8003C68.1512 37.8625 68.3713 37.8984 68.5866 37.9654C68.8099 38.0219 69.0135 38.1386 69.1751 38.3027C69.3128 38.4736 69.4103 38.6733 69.4604 38.887C69.5106 39.1007 69.512 39.3229 69.4646 39.5372C69.3803 39.9288 69.2375 40.3054 69.0412 40.6545C68.868 40.9727 68.7369 41.3121 68.6512 41.6641C68.5865 41.9895 68.5865 42.3244 68.6512 42.6498C68.7633 43.2154 69.0707 43.7235 69.5197 44.0853C69.8619 44.3552 70.2683 44.5316 70.6991 44.5973C71.0671 44.653 71.4423 44.6376 71.8045 44.5518Z" fill="#455A64"/>
<path d="M74.8844 39.5874C74.9366 39.6478 74.975 39.7188 74.9969 39.7956C75.0636 40.0188 75.0466 40.2587 74.949 40.4702C74.883 40.6249 74.7783 40.76 74.6452 40.8626C74.4846 40.9841 74.2931 41.0579 74.0925 41.0755C73.8477 41.0961 73.6019 41.049 73.3821 40.9393C73.1622 40.8296 72.9768 40.6615 72.846 40.4535C72.6949 40.2145 72.6022 39.9432 72.5757 39.6616C72.5518 39.3576 72.5843 39.0518 72.6714 38.7596C72.8221 38.1615 73.1499 37.5634 73.0877 36.8839C73.0838 36.7167 73.0459 36.552 72.9764 36.3998C72.9069 36.2476 72.8072 36.1112 72.6834 35.9987C72.3889 35.8041 72.0304 35.7312 71.6833 35.7954C71.2973 35.866 70.9018 35.866 70.5158 35.7954C70.311 35.7362 70.1302 35.614 69.999 35.4461C69.8729 35.2773 69.7855 35.0829 69.743 34.8767C69.6842 34.4806 69.6754 34.0787 69.7167 33.6804C69.7356 33.3085 69.6761 32.9369 69.542 32.5895C69.2797 31.9279 68.7749 31.3914 68.1305 31.0894C67.518 30.7999 66.8457 30.831 66.238 30.8501C65.665 30.9109 65.086 30.8802 64.5226 30.7592C63.7089 30.548 62.9951 30.0577 62.5058 29.374C62.3238 29.129 62.1869 28.8535 62.1015 28.5605C62.2282 28.8334 62.3804 29.0938 62.556 29.3381C63.0493 29.9941 63.7514 30.4625 64.5466 30.6659C65.0979 30.7754 65.6628 30.7988 66.2213 30.7353C66.829 30.7042 67.5252 30.6635 68.1807 30.9745C68.862 31.2882 69.3965 31.8519 69.6736 32.5488C69.8178 32.9154 69.8823 33.3085 69.8626 33.702C69.8226 34.0874 69.8306 34.4764 69.8866 34.8599C69.9122 35.042 69.9877 35.2134 70.1046 35.3552C70.2216 35.4971 70.3755 35.6039 70.5493 35.6638C70.9166 35.7272 71.2921 35.7272 71.6594 35.6638C72.0457 35.5943 72.4439 35.6803 72.7671 35.903C72.9063 36.0285 73.0185 36.181 73.0966 36.3513C73.1748 36.5217 73.2174 36.7062 73.2217 36.8935C73.2414 37.2392 73.1934 37.5854 73.0805 37.9127C72.9824 38.2285 72.8676 38.5228 72.7862 38.8147C72.7011 39.0917 72.6671 39.3819 72.6857 39.6712C72.7072 39.9343 72.789 40.1889 72.925 40.4152C73.0437 40.6093 73.2132 40.7671 73.4152 40.8717C73.6172 40.9763 73.844 41.0236 74.071 41.0086C74.2567 40.9969 74.4356 40.9339 74.5878 40.8267C74.7126 40.7314 74.8127 40.6075 74.8796 40.4655C74.9765 40.2672 75.0019 40.0415 74.9514 39.8267C74.934 39.7456 74.9116 39.6657 74.8844 39.5874Z" fill="#263238"/>
<path d="M46.9414 44.0928C46.89 44.3275 46.9187 44.5725 47.0227 44.789C47.081 44.9133 47.1662 45.0231 47.2721 45.1104C47.378 45.1977 47.502 45.2604 47.6352 45.2938C47.8132 45.3275 47.997 45.3109 48.1661 45.2458C48.3351 45.1807 48.4827 45.0698 48.5922 44.9254C48.7157 44.7567 48.7766 44.5503 48.7644 44.3416C48.7473 44.1114 48.6889 43.8861 48.5922 43.6765C48.4031 43.2411 48.0634 42.7794 48.0467 42.186C48.0354 41.8848 48.0875 41.5845 48.1996 41.3047C48.3117 41.0249 48.4813 40.7717 48.6974 40.5615C48.9246 40.339 49.1916 40.1613 49.4845 40.0376C49.7842 39.9162 50.0989 39.8358 50.42 39.7983C50.7292 39.7625 51.0344 39.6976 51.3315 39.6046C51.6103 39.517 51.8487 39.3329 52.0038 39.0854C52.1382 38.8354 52.1996 38.5527 52.1809 38.2696C52.1667 37.992 52.1152 37.7176 52.0277 37.4537C51.8627 36.9322 51.6497 36.4298 51.6258 35.9178C51.6031 35.4455 51.7222 34.9772 51.9679 34.5732C52.1777 34.2506 52.4473 33.9713 52.7622 33.7502C52.99 33.582 53.2051 33.3973 53.4058 33.1975C53.5715 33.0221 53.7008 32.8156 53.7862 32.5898C53.7862 32.5898 53.7862 32.6066 53.7862 32.6377C53.7769 32.6843 53.7632 32.73 53.7455 32.7741C53.6799 32.9455 53.5825 33.1029 53.4584 33.2382C53.2626 33.4475 53.0506 33.6411 52.8244 33.8172C52.5247 34.039 52.2691 34.3149 52.0708 34.6306C51.8447 35.0178 51.7374 35.4629 51.7622 35.9106C51.7885 36.3891 52.0014 36.8676 52.1713 37.4107C52.2663 37.6862 52.3219 37.9737 52.3364 38.2648C52.3583 38.5762 52.2911 38.8874 52.1426 39.162C51.9699 39.4411 51.7037 39.6497 51.3913 39.7505C51.0849 39.8467 50.7701 39.914 50.4511 39.9515C50.1429 39.9878 49.8406 40.0634 49.5515 40.1764C49.2776 40.2887 49.027 40.451 48.8123 40.6548C48.6103 40.8503 48.4513 41.0857 48.3454 41.3461C48.2396 41.6064 48.1892 41.886 48.1974 42.1669C48.1974 42.71 48.5228 43.1526 48.7166 43.6024C48.82 43.8283 48.8793 44.0719 48.8912 44.3201C48.9013 44.5548 48.8294 44.7857 48.6879 44.9732C48.565 45.1302 48.4005 45.2496 48.2131 45.3177C48.0257 45.3858 47.823 45.3999 47.628 45.3584C47.4844 45.3198 47.3515 45.2492 47.2392 45.1518C47.1269 45.0544 47.0382 44.9328 46.9796 44.7962C46.9031 44.627 46.8749 44.4398 46.8983 44.2555C46.9048 44.1995 46.9193 44.1447 46.9414 44.0928Z" fill="#263238"/>
<path d="M72.295 51.1648L66.7134 50.0547C66.7134 50.0547 64.4238 53.373 60.8567 53.0859C58.7752 52.9185 57.8948 50.9327 57.8948 50.9327L52.0165 52.5883L51.9328 64.4837L53.2773 70.9433L49.7126 81.7094C49.7126 81.7094 59.2681 87.7863 74.7569 81.5252L72.051 74.9985L72.7855 71.1323C72.7855 71.1323 73.7664 63.8329 73.3788 61.5624C72.9913 59.292 72.2831 56.6124 72.2831 56.6124L72.295 51.1648Z" fill="#F68821"/>
<path d="M56.7878 69.9863C56.9017 70.0928 57.0269 70.1866 57.161 70.2662C57.4002 70.4361 57.7734 70.6682 58.2376 70.9361C60.6682 72.3304 63.3433 73.2465 66.1184 73.6348C66.6495 73.7042 67.0754 73.7473 67.3816 73.7616C67.5367 73.7773 67.693 73.7773 67.8481 73.7616C67.6977 73.7219 67.5439 73.6963 67.3888 73.6851C67.0921 73.6492 66.671 73.5894 66.1375 73.5033C64.7681 73.2752 63.4192 72.9376 62.1038 72.4936C60.7901 72.0396 59.5155 71.4795 58.2926 70.8189C57.8141 70.5653 57.4481 70.3524 57.1897 70.1993C57.0628 70.1157 56.9282 70.0444 56.7878 69.9863Z" fill="#263238"/>
<g opacity="0.3">
<path d="M51.8161 75.3807C52.2309 75.4584 52.6591 75.4215 53.0545 75.274C53.4499 75.1264 53.7976 74.8738 54.0602 74.5434C54.5387 73.8998 54.7564 73.1079 54.9574 72.3232C55.4215 70.5416 55.8841 68.7584 56.345 66.9736C59.0313 65.476 62.1549 64.9592 65.1804 65.5118C65.6428 65.5702 66.0856 65.7339 66.4747 65.9903C66.9867 66.3803 67.2307 67.0215 67.4461 67.6268C67.9676 69.1029 68.47 70.6102 69.372 71.8877C70.2739 73.1653 70.6424 74.1079 72.2047 74.1893L73.511 67.9019L69.0753 62.3418L57.9049 62.7294L53.8377 65.3778L52.4525 73.395L51.8161 75.3807Z" fill="black"/>
</g>
<path d="M71.6461 51.1436C71.6461 51.1436 74.2395 50.8566 75.9884 53.9787C77.2732 56.2707 78.8905 60.8642 78.8905 60.8642L72.7347 62.5749L71.4044 56.565L71.6461 51.1436Z" fill="#F68821"/>
<path d="M52.0177 52.6016C52.0177 52.6016 50.1253 52.9461 49.0606 54.5347C47.996 56.1233 46.1322 61.7121 46.1322 61.7121L52.5919 62.4131L53.1924 56.0013L52.0177 52.6016Z" fill="#F68821"/>
<path d="M73.3535 57.4062C73.2735 57.6589 73.2221 57.9197 73.2004 58.1838C73.1143 58.7341 73.0162 59.38 72.9085 60.0667C72.8009 60.7533 72.6884 61.3993 72.5975 61.9495C72.5376 62.2078 72.5048 62.4716 72.4994 62.7367C72.6035 62.4919 72.6782 62.2358 72.7219 61.9735C72.832 61.495 72.9612 60.8347 73.0856 60.0954C73.21 59.3561 73.2818 58.6862 73.3248 58.1982C73.3641 57.9361 73.3738 57.6705 73.3535 57.4062Z" fill="#263238"/>
<path d="M52.3159 57.4492C52.2681 57.4492 52.1652 58.8129 52.0911 60.502C52.0169 62.1911 51.993 63.5596 52.0408 63.5596C52.0887 63.5596 52.1915 62.1959 52.2801 60.5092C52.3686 58.8225 52.3662 57.4516 52.3159 57.4492Z" fill="#263238"/>
<path d="M63.9222 51.386L65.085 60.6018C65.1006 60.7549 65.0558 60.9081 64.9602 61.0288C64.8646 61.1494 64.7257 61.228 64.573 61.2477L58.6708 62.0923C58.5171 62.1174 58.3598 62.0815 58.2323 61.992C58.1049 61.9026 58.0175 61.7668 57.9889 61.6138L56.4362 51.9985C56.4244 51.9178 56.4297 51.8356 56.4516 51.7572C56.4735 51.6787 56.5116 51.6056 56.5634 51.5428C56.6152 51.4799 56.6797 51.4286 56.7525 51.3921C56.8254 51.3556 56.9051 51.3348 56.9865 51.331L63.2811 50.8812C63.4321 50.8679 63.5825 50.9128 63.7017 51.0066C63.8208 51.1004 63.8997 51.2361 63.9222 51.386Z" fill="#263238"/>
<path d="M61.4151 56.4258C61.5754 56.4258 65.1091 56.8923 65.1091 56.8923L70.1835 59.2106L72.7315 62.5601L70.4228 67.1345L68.9179 63.3328C68.1946 63.602 67.4288 63.7389 66.657 63.7372C65.5828 63.6821 62.1831 63.5697 62.1831 63.5697L60.3983 62.7084C60.3983 62.7084 59.8002 61.8495 59.7906 61.6031C59.7858 61.531 59.8008 61.4589 59.8339 61.3947C59.867 61.3304 59.9171 61.2764 59.9786 61.2385C60.0401 61.2006 60.1109 61.1802 60.1831 61.1795C60.2554 61.1789 60.3265 61.1979 60.3888 61.2346C60.7524 61.4165 63.2023 61.3662 63.8028 61.0959C63.8028 61.0959 60.2261 60.993 59.7356 60.4499C59.2452 59.9068 59.3911 59.457 59.9509 59.4331C60.5108 59.4092 62.5635 59.6245 63.1712 59.5503C63.7789 59.4762 64.5469 59.4451 64.688 59.1436C64.8292 58.8422 64.3602 58.6173 64.3602 58.6173L63.6784 58.1531C63.6784 58.1531 61.0586 57.8158 60.884 57.2823C60.8493 57.1912 60.8361 57.0933 60.8454 56.9962C60.8548 56.8991 60.8863 56.8055 60.9377 56.7227C60.9891 56.6398 61.0589 56.5699 61.1417 56.5184C61.2245 56.4669 61.3181 56.4352 61.4151 56.4258Z" fill="#AE7461"/>
<path d="M60.2175 56.2964C60.2175 56.2964 57.2652 56.885 57.0738 57.0716C56.8824 57.2582 53.3176 61.8398 53.3176 61.8398L52.4396 62.713L54.9158 65.6821L55.3799 65.3854L58.6648 63.4978C59.0033 63.3382 59.3567 63.2124 59.7199 63.1222C59.7199 63.1222 63.0885 62.4714 63.2918 62.0695C63.4952 61.6675 63.366 61.591 63.1124 61.5336C62.8588 61.4761 60.8396 61.7872 60.3922 61.8852C59.9451 61.946 59.4933 61.9645 59.0428 61.9403C59.0428 61.9403 60.4376 61.5671 60.751 61.4474C61.0644 61.3278 64.189 60.5215 64.1172 59.9808C64.0455 59.4401 63.6387 59.2631 61.6913 59.8493C60.6188 60.1932 59.5101 60.4115 58.3873 60.5L62.6937 58.8588C62.6937 58.8588 64.4306 58.2439 63.8445 57.7822C63.2583 57.3204 59.5381 58.4712 59.5381 58.4712L57.8992 59.1435L58.3299 58.1578C58.3299 58.1578 60.6697 57.3874 60.9616 57.1458C61.3252 56.8491 61.3659 56.5859 61.074 56.3658C60.7821 56.1457 60.2175 56.2964 60.2175 56.2964Z" fill="#AE7461"/>
<path d="M46.6872 61.7734L51.9506 62.3524V63.5487L52.721 62.4314L54.9101 65.6851C54.9101 65.6851 54.2642 67.9915 53.9173 69.2738C52.9985 72.6759 51.4243 76.5039 49.3022 76.4058C46.7542 76.279 45.4216 73.6855 45.3905 71.8098C45.3618 70.104 46.6872 61.7734 46.6872 61.7734Z" fill="#AE7461"/>
<path d="M78.5254 60.9552L74.0897 62.2256L72.7332 62.5653L71.4173 60.8164L69.5417 64.7281C69.5417 64.7281 70.3647 66.977 70.8097 68.2211C72.0059 71.549 73.8672 75.2549 75.975 74.9822C78.5038 74.6568 80.2455 71.6878 80.1307 69.8145C80.0254 68.1134 78.5254 60.9552 78.5254 60.9552Z" fill="#AE7461"/>
<path d="M53.3161 61.8279C53.3161 61.8279 53.3448 61.7824 53.4118 61.6963L53.7013 61.3135C53.9644 60.9762 54.3448 60.4833 54.8305 59.8541L56.6272 57.5621L56.8976 57.2248L57.0387 57.0501C57.1048 57.0004 57.1794 56.9631 57.2589 56.9401C57.5555 56.842 57.8641 56.7678 58.1847 56.7008C58.8235 56.5477 59.5006 56.4042 60.2136 56.2606C60.3937 56.2134 60.5806 56.1972 60.7662 56.2128C60.8638 56.2222 60.9587 56.2498 61.0461 56.2941C61.1325 56.3435 61.2062 56.4123 61.2614 56.4951C61.2901 56.5387 61.3088 56.5881 61.3162 56.6398C61.3237 56.6915 61.3197 56.7442 61.3045 56.7941C61.271 56.8886 61.218 56.975 61.149 57.0477C61.079 57.1235 60.9984 57.1888 60.9098 57.2415C60.8236 57.2894 60.7327 57.3301 60.6442 57.3707C59.9265 57.677 59.1417 57.9401 58.3379 58.2105L58.3713 58.1818L57.9383 59.1675L57.8665 59.0981L59.5054 58.4258C60.2112 58.2129 60.9409 58.0167 61.6945 57.854C62.0759 57.7677 62.4617 57.7014 62.85 57.6554C63.0494 57.6329 63.2501 57.6249 63.4506 57.6315C63.5559 57.6354 63.66 57.6556 63.7592 57.6913C63.8141 57.7114 63.8639 57.7432 63.9052 57.7845C63.9465 57.8259 63.9783 57.8757 63.9984 57.9306C64.0121 57.9873 64.0109 58.0466 63.995 58.1028C63.9791 58.1589 63.9489 58.21 63.9075 58.2512C63.8366 58.3294 63.7563 58.3985 63.6683 58.4569C63.4982 58.5698 63.3189 58.6682 63.1324 58.7512C62.7591 58.921 62.3716 59.0502 61.9888 59.201L59.6585 60.0862L58.3905 60.5647L58.3666 60.4522C59.4053 60.3665 60.4324 60.1733 61.4313 59.8756C61.9172 59.7231 62.4107 59.5961 62.9099 59.4952C63.1615 59.4418 63.4203 59.4312 63.6754 59.4641C63.8116 59.4826 63.9366 59.5498 64.0271 59.6531C64.1066 59.7584 64.1524 59.8851 64.1587 60.0168C64.1549 60.0903 64.1233 60.1596 64.0702 60.2106C64.0262 60.2579 63.9773 60.3004 63.9243 60.3374C63.8229 60.4073 63.7166 60.4697 63.6061 60.524C63.3884 60.634 63.1659 60.7226 62.9434 60.8087C62.496 60.9762 62.0486 61.1197 61.606 61.2537L60.948 61.4499C60.7351 61.5121 60.5198 61.5934 60.3045 61.6508C59.8762 61.7753 59.4527 61.8901 59.0365 62.0001V61.9021C59.5274 61.9372 60.0208 61.9115 60.5054 61.8255C60.9839 61.7394 61.4624 61.67 61.9146 61.6078C62.1538 61.5791 62.3716 61.5504 62.5964 61.5288C62.7089 61.5169 62.8213 61.5073 62.9338 61.5025C62.9935 61.4966 63.0536 61.4966 63.1132 61.5025C63.1707 61.5129 63.2269 61.5298 63.2807 61.5528C63.311 61.5648 63.3385 61.5829 63.3615 61.6059C63.3845 61.629 63.4026 61.6565 63.4147 61.6867C63.4315 61.7454 63.4315 61.8075 63.4147 61.8662C63.4014 61.9197 63.3829 61.9717 63.3596 62.0217L63.3261 62.0935C63.3111 62.1204 63.2917 62.1446 63.2687 62.1652C63.0919 62.2882 62.8964 62.3819 62.6898 62.4428C61.9532 62.6732 61.2049 62.8641 60.448 63.0146L59.9336 63.1198C59.7717 63.1484 59.6119 63.1875 59.4551 63.2371C59.1555 63.3121 58.8668 63.4254 58.5962 63.5744L56.2181 64.919L55.5913 65.2611L55.431 65.3496L55.3736 65.3783C55.3895 65.3641 55.4072 65.352 55.4262 65.3424L55.5841 65.2467L56.2062 64.8831C56.754 64.5649 57.5531 64.1007 58.5699 63.5146C59.0867 63.2107 59.747 63.0768 60.4432 62.9356C61.1952 62.7802 61.9386 62.5862 62.6706 62.3542C62.8649 62.2962 63.0489 62.2082 63.2161 62.0935C63.2319 62.0802 63.245 62.064 63.2544 62.0456L63.2855 61.9762C63.3058 61.9313 63.3226 61.8849 63.3357 61.8375C63.3444 61.8177 63.349 61.7964 63.3494 61.7748C63.3497 61.7532 63.3458 61.7318 63.3378 61.7118C63.3297 61.6917 63.3178 61.6735 63.3027 61.6581C63.2875 61.6427 63.2695 61.6305 63.2496 61.6221C63.2023 61.6035 63.1535 61.5891 63.1036 61.5791C63.0558 61.5791 63.0032 61.5791 62.9481 61.5791L62.6156 61.6078C62.3931 61.6293 62.1658 61.658 61.9385 61.6891C61.4816 61.7513 61.0102 61.8231 60.5341 61.9092C60.0411 61.9989 59.5387 62.0262 59.0388 61.9906C59.032 61.9906 59.0253 61.9892 59.0191 61.9865C59.0128 61.9839 59.0071 61.9799 59.0024 61.975C58.9978 61.9701 58.9941 61.9643 58.9917 61.9579C58.9893 61.9515 58.9883 61.9447 58.9886 61.9379C58.9892 61.927 58.9932 61.9165 59.0001 61.9079C59.0069 61.8993 59.0163 61.8931 59.0269 61.8901C59.4432 61.78 59.865 61.6628 60.2925 61.5384C60.5078 61.481 60.7136 61.402 60.9337 61.335L61.5916 61.1389C62.0318 61.0049 62.4768 60.8613 62.9194 60.6939C63.1395 60.6101 63.3596 60.5192 63.5726 60.4139C63.6776 60.3621 63.7784 60.3022 63.874 60.2345C63.9625 60.1699 64.063 60.0838 64.0606 59.9953C64.0551 59.889 64.0185 59.7866 63.9554 59.701C63.8822 59.6196 63.7818 59.5677 63.6731 59.555C63.4337 59.5255 63.1912 59.536 62.9553 59.5861C62.4599 59.6862 61.9703 59.8132 61.4887 59.9665C60.4805 60.267 59.4438 60.4618 58.3953 60.5479C58.3874 60.5486 58.3795 60.5477 58.372 60.5453C58.3645 60.5428 58.3575 60.539 58.3515 60.5338C58.3455 60.5287 58.3406 60.5225 58.337 60.5155C58.3334 60.5084 58.3313 60.5008 58.3307 60.4929C58.33 60.4805 58.3333 60.4681 58.3402 60.4578C58.3471 60.4474 58.3572 60.4396 58.369 60.4355L59.6346 59.957L61.9672 59.0718C62.35 58.921 62.74 58.7918 63.1013 58.6292C63.2821 58.5483 63.4558 58.4522 63.6204 58.3421C63.6974 58.2899 63.7681 58.2288 63.831 58.1602C63.8594 58.1329 63.8806 58.0989 63.8927 58.0613C63.9048 58.0237 63.9074 57.9837 63.9003 57.9449C63.8453 57.7966 63.6443 57.7439 63.4553 57.7368C63.262 57.7293 63.0684 57.7373 62.8764 57.7607C62.4921 57.8057 62.1104 57.8703 61.7328 57.9545C60.9839 58.1148 60.2566 58.311 59.5556 58.5191L57.9144 59.1866C57.9013 59.1924 57.8866 59.1929 57.8732 59.1879C57.8598 59.183 57.8488 59.1731 57.8426 59.1603C57.8397 59.1535 57.8382 59.1462 57.8382 59.1388C57.8382 59.1314 57.8397 59.124 57.8426 59.1172L58.2757 58.1339C58.2791 58.1272 58.2838 58.1211 58.2895 58.1162C58.2953 58.1113 58.3019 58.1076 58.3091 58.1052C59.1106 57.8373 59.8882 57.5765 60.6059 57.275C60.6941 57.2379 60.7803 57.1964 60.8643 57.1506C60.9403 57.1027 61.0095 57.0448 61.0701 56.9784C61.1945 56.8492 61.271 56.6745 61.1729 56.5381C61.1259 56.468 61.0632 56.4098 60.9896 56.3682C60.9161 56.3267 60.8338 56.3029 60.7495 56.2989C60.5768 56.2842 60.4029 56.2988 60.2351 56.342C59.5173 56.4831 58.8451 56.6243 58.2087 56.7702C57.8905 56.8468 57.5794 56.9209 57.29 57.0095C57.2227 57.0288 57.1589 57.0586 57.101 57.098L56.9622 57.2678L56.6894 57.6028C55.9861 58.4904 55.376 59.2536 54.8784 59.8828C54.3807 60.512 53.9955 60.9929 53.7276 61.3183L53.4261 61.6939C53.3543 61.7872 53.3161 61.8279 53.3161 61.8279Z" fill="#6F4439"/>
<path d="M52.5728 62.6466C52.6087 62.6729 51.1373 64.5917 49.2855 66.9339C47.4338 69.2761 45.9002 71.1518 45.8643 71.1231C45.8284 71.0944 47.2998 69.178 49.154 66.8382C51.0081 64.4984 52.5369 62.6298 52.5728 62.6466Z" fill="#6F4439"/>
<path d="M77.2357 68.438C77.2094 68.438 77.018 68.036 76.628 67.414C76.1073 66.6071 75.5335 65.8359 74.9102 65.1053C74.1925 64.2416 73.4939 63.4832 73.0154 62.9162C72.7762 62.6339 72.5872 62.3994 72.4603 62.2343C72.3886 62.1544 72.3283 62.0651 72.2809 61.9688C72.37 62.0385 72.4504 62.1189 72.5202 62.208L73.1111 62.8564C73.6111 63.4066 74.3073 64.1531 75.0418 65.0215C75.6723 65.7542 76.239 66.5394 76.7357 67.3685C76.8772 67.6161 77.0058 67.8709 77.1209 68.1317C77.172 68.2285 77.2106 68.3314 77.2357 68.438Z" fill="#6F4439"/>
<rect x="0.5" y="0.548828" width="119" height="119" rx="59.5" stroke="#FDE7D3"/>
</g>
</svg>
