<svg width="362" height="355" viewBox="0 0 362 355" fill="none" xmlns="http://www.w3.org/2000/svg">
<g clip-path="url(#clip0_365_4099)">
<g opacity="0.25">
<path d="M6.58496 197.781C6.58496 189.094 10.9036 181.235 17.8866 175.544C23.1247 171.27 29.8652 168.22 37.4093 166.971V178.388C37.4093 182.846 41.0908 186.457 45.6375 186.457H50.5209L56.8125 230.1C53.9056 229.525 50.8684 229.224 47.748 229.224H45.1597C23.8596 229.224 6.58496 215.144 6.58496 197.781Z" fill="#CCD2D6"/>
<path d="M355.415 323.558C355.415 332.241 351.097 340.097 344.114 345.791C337.134 351.482 327.487 355.004 316.841 355.004H45.1597C23.8596 355.004 6.58496 340.924 6.58496 323.561C6.58496 314.878 10.9036 307.015 17.8866 301.328C24.866 295.637 34.5133 292.115 45.1597 292.115H47.748C54.1699 292.115 60.2261 290.834 65.5439 288.576C71.8318 313.671 94.8659 331.723 121.715 331.723H235.583C239.822 331.723 243.966 331.272 247.963 330.413C252.56 332.905 257.585 334.74 262.895 335.791H262.899C266.287 336.469 269.784 336.817 273.383 336.817C278.512 336.817 283.468 336.1 288.149 334.758C307.588 329.191 322.372 312.929 325.416 292.896C342.593 296.074 355.412 308.598 355.412 323.558H355.415Z" fill="#CCD2D6"/>
<path d="M355.415 197.781C355.415 206.464 351.097 214.328 344.114 220.015C337.134 225.709 327.487 229.227 316.84 229.227H300.608L306.777 186.46H311.657C316.203 186.46 319.892 182.85 319.892 178.391V166.435C339.773 167.702 355.415 181.252 355.415 197.785V197.781Z" fill="#CCD2D6"/>
<path d="M6.58496 72.0011C6.58496 63.3178 10.9036 55.4616 17.8866 49.7674C24.866 44.0768 34.5133 40.5552 45.1597 40.5552H316.837C338.141 40.5552 355.412 54.6345 355.412 71.9975C355.412 80.6808 351.093 88.5441 344.11 94.2347C337.131 99.9218 327.483 103.447 316.837 103.447H306.835C296.181 103.447 286.534 106.965 279.558 112.659C272.575 118.346 268.257 126.21 268.257 134.893C268.257 137.499 268.644 140.026 269.375 142.444H262.57C259.261 139.849 255.348 137.96 251.073 137.005L218.167 55.3693C216.882 52.1779 213.2 50.6159 209.946 51.8761L196.157 57.2224C192.903 58.4827 191.31 62.093 192.595 65.2845L223.698 142.444H134.364C134.889 140.708 135.236 138.911 135.392 137.073L164.33 65.2845C165.615 62.093 164.019 58.4827 160.768 57.2224L146.979 51.8761C143.721 50.6159 140.043 52.1814 138.755 55.3693L117.433 108.268C111.489 105.215 104.455 103.451 96.9148 103.451H45.1597C23.8596 103.451 6.58496 89.3712 6.58496 72.0046V72.0011Z" fill="#CCD2D6"/>
<path d="M323.9 133.359C323.9 138.439 322.021 143.09 318.904 146.675C317.514 144.155 314.788 142.44 311.657 142.44H284.134C282.759 139.703 281.984 136.622 281.984 133.359C281.984 122.006 291.367 112.805 302.94 112.805C314.513 112.805 323.9 122.006 323.9 133.359Z" fill="#CCD2D6"/>
<path d="M63.7338 278.111C60.9139 279.499 57.7283 280.28 54.358 280.28C42.7849 280.28 33.4019 271.082 33.4019 259.729C33.4019 248.376 42.7849 239.178 54.358 239.178C55.6612 239.178 56.9319 239.295 58.1735 239.519L63.7338 278.114V278.111Z" fill="#CCD2D6"/>
</g>
<g opacity="0.5">
<path d="M94.7281 186.457H45.6409C41.0941 186.457 37.4126 182.846 37.4126 178.387V150.513C37.4126 146.054 41.0941 142.444 45.6409 142.444H94.7281C88.1397 147.598 83.9187 155.54 83.9187 164.45C83.9187 173.361 88.1397 181.302 94.7281 186.457Z" fill="#CCD2D6"/>
</g>
<g opacity="0.5">
<path d="M141.325 164.45C141.325 156.484 137.951 149.295 132.532 144.176L133.23 142.44H223.701L224.501 144.432C219.238 149.53 215.973 156.612 215.973 164.447C215.973 173.357 220.194 181.298 226.782 186.453H130.512C137.1 181.298 141.321 173.357 141.321 164.447L141.325 164.45Z" fill="#CCD2D6"/>
</g>
<g opacity="0.5">
<path d="M319.888 150.513V178.387C319.888 182.846 316.203 186.457 311.653 186.457H262.569C269.158 181.302 273.379 173.361 273.379 164.45C273.379 155.54 269.158 147.598 262.569 142.444H311.653C316.2 142.444 319.888 146.054 319.888 150.513Z" fill="#CCD2D6"/>
</g>
<path d="M97.8305 187.522H45.6409C40.5041 187.522 36.3267 183.425 36.3267 178.387V150.513C36.3267 145.475 40.5041 141.379 45.6409 141.379H97.8305L95.4051 143.278C88.7949 148.45 85.0048 156.168 85.0048 164.454C85.0048 172.739 88.7949 180.457 95.4051 185.629L97.8305 187.525V187.522ZM45.6409 143.505C41.7024 143.505 38.4987 146.647 38.4987 150.509V178.384C38.4987 182.246 41.7024 185.388 45.6409 185.388H91.8502C86.0872 179.907 82.8328 172.42 82.8328 164.447C82.8328 156.473 86.0872 148.986 91.8502 143.505H45.6409Z" fill="#CCD2D6"/>
<path d="M229.888 187.522H127.413L129.838 185.626C136.449 180.454 140.239 172.736 140.239 164.45C140.239 157.024 137.234 150.094 131.779 144.946L131.254 144.449L132.492 141.379H224.44L225.776 144.701L225.265 145.195C219.976 150.318 217.062 157.155 217.062 164.454C217.062 172.739 220.853 180.457 227.463 185.629L229.888 187.525V187.522ZM133.393 185.392H223.911C218.148 179.91 214.894 172.423 214.894 164.45C214.894 156.477 217.852 149.647 223.238 144.18L222.967 143.509H133.973L133.81 143.913C139.366 149.412 142.414 156.676 142.414 164.45C142.414 172.225 139.16 179.91 133.397 185.392H133.393Z" fill="#CCD2D6"/>
<path d="M311.657 187.522H259.471L261.896 185.626C268.506 180.454 272.296 172.736 272.296 164.45C272.296 156.164 268.506 148.447 261.896 143.274L259.471 141.375H311.657C316.797 141.375 320.978 145.472 320.978 150.509V178.384C320.978 183.421 316.797 187.518 311.657 187.518V187.522ZM265.451 185.392H311.657C315.599 185.392 318.806 182.25 318.806 178.387V150.513C318.806 146.65 315.599 143.509 311.657 143.509H265.451C271.214 148.99 274.472 156.477 274.472 164.45C274.472 172.423 271.218 179.91 265.451 185.392Z" fill="#CCD2D6"/>
<g opacity="0.75">
<path d="M262.573 186.457C257.668 190.301 251.449 192.598 244.679 192.598C237.91 192.598 231.691 190.301 226.786 186.457H130.516C125.61 190.301 119.388 192.598 112.622 192.598C105.856 192.598 99.6333 190.301 94.7282 186.457H50.5244L52.157 197.781L64.4288 282.928C68.4615 310.913 92.8893 331.719 121.715 331.719H235.582C239.821 331.719 243.966 331.268 247.963 330.409C231.749 321.616 220.769 304.679 220.769 285.225C220.769 267.439 229.95 251.755 243.916 242.479H234.891C231.676 242.479 229.074 239.923 229.074 236.771V213.809C229.074 210.657 231.673 208.101 234.891 208.101H251.145C254.356 208.101 256.962 210.657 256.962 213.809V236.199C262.128 234.531 267.648 233.633 273.382 233.633C282.697 233.633 291.443 236.004 299.03 240.172L305.144 197.778L306.777 186.453H262.573V186.457ZM125.375 288.395C125.375 291.544 122.769 294.1 119.558 294.1H103.304C100.093 294.1 97.4867 291.544 97.4867 288.395V265.43C97.4867 262.281 100.093 259.725 103.304 259.725H119.558C122.769 259.725 125.375 262.281 125.375 265.43V288.395ZM125.375 236.771C125.375 239.923 122.769 242.479 119.558 242.479H103.304C100.093 242.479 97.4867 239.923 97.4867 236.771V213.809C97.4867 210.657 100.093 208.101 103.304 208.101H119.558C122.769 208.101 125.375 210.657 125.375 213.809V236.771ZM168.902 288.395C168.902 291.544 166.296 294.1 163.085 294.1H146.831C143.62 294.1 141.014 291.544 141.014 288.395V265.43C141.014 262.281 143.62 259.725 146.831 259.725H163.085C166.296 259.725 168.902 262.281 168.902 265.43V288.395ZM168.902 236.771C168.902 239.923 166.296 242.479 163.085 242.479H146.831C143.62 242.479 141.014 239.923 141.014 236.771V213.809C141.014 210.657 143.62 208.101 146.831 208.101H163.085C166.296 208.101 168.902 210.657 168.902 213.809V236.771ZM212.429 288.395C212.429 291.544 209.823 294.1 206.612 294.1H190.358C187.147 294.1 184.54 291.544 184.54 288.395V265.43C184.54 262.281 187.147 259.725 190.358 259.725H206.612C209.823 259.725 212.429 262.281 212.429 265.43V288.395ZM212.429 236.771C212.429 239.923 209.823 242.479 206.612 242.479H190.358C187.147 242.479 184.54 239.923 184.54 236.771V213.809C184.54 210.657 187.147 208.101 190.358 208.101H206.612C209.823 208.101 212.429 210.657 212.429 213.809V236.771Z" fill="#CCD2D6"/>
</g>
<path d="M235.582 332.784H121.715C107.514 332.784 93.7869 327.754 83.0645 318.623C72.342 309.493 65.3446 296.869 63.3536 283.077L49.2754 185.392H95.1118L95.4087 185.626C100.267 189.435 106.381 191.533 112.625 191.533C118.87 191.533 124.908 189.492 129.842 185.626L130.139 185.392H227.169L227.466 185.626C232.393 189.492 238.348 191.533 244.683 191.533C251.018 191.533 256.966 189.492 261.9 185.626L262.197 185.392H308.033L299.888 241.861L298.505 241.102C290.878 236.913 282.193 234.698 273.39 234.698C267.884 234.698 262.472 235.542 257.306 237.211L255.88 237.672V213.813C255.88 211.253 253.758 209.17 251.152 209.17H234.898C232.292 209.17 230.17 211.253 230.17 213.813V236.774C230.17 239.334 232.292 241.418 234.898 241.418H247.463L244.531 243.363C230.337 252.792 221.863 268.44 221.863 285.228C221.863 303.614 232.067 320.572 248.495 329.483L251.014 330.849L248.202 331.453C244.082 332.337 239.839 332.788 235.59 332.788L235.582 332.784ZM51.7732 187.522L65.5039 282.779C69.4388 310.071 93.6059 330.654 121.715 330.654H235.582C238.721 330.654 241.856 330.398 244.936 329.898C229.291 320.299 219.683 303.436 219.683 285.225C219.683 268.841 227.43 253.495 240.563 243.544H234.891C231.086 243.544 227.991 240.505 227.991 236.771V213.809C227.991 210.075 231.086 207.036 234.891 207.036H251.145C254.949 207.036 258.044 210.075 258.044 213.809V234.751C262.997 233.302 268.151 232.568 273.382 232.568C282.031 232.568 290.566 234.616 298.172 238.507L305.524 187.522H262.946C257.686 191.54 251.376 193.663 244.676 193.663C237.975 193.663 231.662 191.54 226.406 187.522H130.888C125.694 191.483 119.221 193.663 112.618 193.663C106.015 193.663 99.5391 191.483 94.348 187.522H51.7732Z" fill="#CCD2D6"/>
<path d="M212.425 213.809V236.771C212.425 239.923 209.819 242.479 206.608 242.479H190.354C187.143 242.479 184.537 239.923 184.537 236.771V213.809C184.537 210.657 187.143 208.101 190.354 208.101H206.608C209.819 208.101 212.425 210.657 212.425 213.809Z" fill="#CCD2D6"/>
<path d="M206.608 259.725H190.357C187.145 259.725 184.54 262.279 184.54 265.43V288.391C184.54 291.542 187.145 294.096 190.357 294.096H206.608C209.82 294.096 212.425 291.542 212.425 288.391V265.43C212.425 262.279 209.82 259.725 206.608 259.725Z" fill="#CCD2D6"/>
<path d="M168.898 213.809V236.771C168.898 239.923 166.292 242.479 163.081 242.479H146.827C143.616 242.479 141.01 239.923 141.01 236.771V213.809C141.01 210.657 143.616 208.101 146.827 208.101H163.081C166.292 208.101 168.898 210.657 168.898 213.809Z" fill="#CCD2D6"/>
<path d="M163.081 259.725H146.831C143.618 259.725 141.013 262.279 141.013 265.43V288.391C141.013 291.542 143.618 294.096 146.831 294.096H163.081C166.294 294.096 168.898 291.542 168.898 288.391V265.43C168.898 262.279 166.294 259.725 163.081 259.725Z" fill="#CCD2D6"/>
<path d="M125.375 213.81V236.771C125.375 239.923 122.768 242.479 119.557 242.479H103.304C100.093 242.479 97.4863 239.923 97.4863 236.771V213.81C97.4863 210.657 100.093 208.101 103.304 208.101H119.557C122.768 208.101 125.375 210.657 125.375 213.81Z" fill="#CCD2D6"/>
<path d="M119.557 259.725H103.307C100.094 259.725 97.4897 262.279 97.4897 265.43V288.391C97.4897 291.542 100.094 294.096 103.307 294.096H119.557C122.77 294.096 125.375 291.542 125.375 288.391V265.43C125.375 262.279 122.77 259.725 119.557 259.725Z" fill="#CCD2D6"/>
<path d="M256.958 213.809V236.199C252.289 237.697 247.905 239.827 243.912 242.476H234.887C231.673 242.476 229.07 239.92 229.07 236.767V213.806C229.07 210.653 231.669 208.097 234.887 208.097H251.141C254.352 208.097 256.958 210.653 256.958 213.806V213.809Z" fill="#CCD2D6"/>
<g opacity="0.25">
<path d="M141.325 164.45C141.325 173.361 137.104 181.302 130.516 186.457C125.61 190.301 119.388 192.598 112.622 192.598C105.856 192.598 99.6334 190.301 94.7283 186.457C88.1399 181.302 83.9189 173.361 83.9189 164.45C83.9189 155.54 88.1399 147.598 94.7283 142.444C97.932 139.93 101.697 138.081 105.813 137.097C107.992 136.579 110.276 136.302 112.622 136.302C119.388 136.302 125.61 138.599 130.516 142.444C131.214 142.99 131.888 143.573 132.532 144.18C137.955 149.295 141.325 156.484 141.325 164.454V164.45Z" fill="#CCD2D6"/>
</g>
<g opacity="0.5">
<path d="M112.622 178.033C120.271 178.033 126.472 171.952 126.472 164.45C126.472 156.949 120.271 150.868 112.622 150.868C104.973 150.868 98.772 156.949 98.772 164.45C98.772 171.952 104.973 178.033 112.622 178.033Z" fill="#CCD2D6"/>
</g>
<g opacity="0.25">
<path d="M273.383 164.45C273.383 173.361 269.162 181.302 262.573 186.457C257.668 190.301 251.449 192.598 244.68 192.598C237.91 192.598 231.691 190.301 226.786 186.457C220.197 181.302 215.977 173.361 215.977 164.45C215.977 156.615 219.238 149.533 224.505 144.435C225.229 143.729 225.989 143.065 226.786 142.444C231.691 138.599 237.91 136.302 244.68 136.302C246.88 136.302 249.02 136.544 251.076 137.005C255.351 137.956 259.265 139.845 262.573 142.444C269.162 147.598 273.383 155.54 273.383 164.45Z" fill="#CCD2D6"/>
</g>
<path d="M112.622 193.663C105.889 193.663 99.2931 191.398 94.0514 187.291C86.9236 181.714 82.833 173.389 82.833 164.45C82.833 155.511 86.92 147.186 94.0514 141.609C97.4578 138.936 101.331 137.069 105.556 136.061C107.851 135.514 110.229 135.237 112.622 135.237C119.355 135.237 125.951 137.502 131.193 141.609C131.88 142.145 132.583 142.749 133.281 143.409C139.167 148.965 142.411 156.438 142.411 164.45C142.411 173.389 138.324 181.714 131.193 187.291C125.951 191.402 119.355 193.663 112.622 193.663ZM112.622 137.367C110.403 137.367 108.198 137.623 106.07 138.13C102.153 139.064 98.5655 140.796 95.4053 143.274C88.7951 148.447 85.005 156.164 85.005 164.45C85.005 172.736 88.7951 180.454 95.4053 185.626C100.336 189.492 106.291 191.533 112.622 191.533C118.953 191.533 124.908 189.492 129.839 185.626C136.449 180.454 140.239 172.736 140.239 164.45C140.239 157.02 137.234 150.094 131.779 144.946C131.131 144.336 130.479 143.775 129.842 143.278C124.908 139.412 118.957 137.367 112.622 137.367Z" fill="#CCD2D6"/>
<path d="M244.68 193.663C237.849 193.663 231.427 191.459 226.109 187.291C218.981 181.714 214.891 173.389 214.891 164.45C214.891 156.58 218.033 149.203 223.742 143.679C224.48 142.959 225.276 142.263 226.109 141.613C231.427 137.445 237.849 135.241 244.68 135.241C246.928 135.241 249.161 135.486 251.319 135.972C255.648 136.938 259.775 138.887 263.25 141.617C270.378 147.194 274.469 155.518 274.469 164.457C274.469 173.396 270.378 181.721 263.25 187.298C257.932 191.466 251.511 193.67 244.68 193.67V193.663ZM244.68 137.367C238.348 137.367 232.393 139.409 227.463 143.274C226.692 143.878 225.953 144.521 225.269 145.191C219.977 150.314 217.063 157.155 217.063 164.45C217.063 172.736 220.853 180.454 227.463 185.626C232.393 189.492 238.348 191.533 244.68 191.533C251.011 191.533 256.966 189.492 261.896 185.626C268.506 180.454 272.297 172.736 272.297 164.45C272.297 156.165 268.506 148.447 261.896 143.274C258.675 140.747 254.848 138.936 250.837 138.042C248.835 137.594 246.765 137.364 244.68 137.364V137.367Z" fill="#CCD2D6"/>
<g opacity="0.5">
<path d="M244.68 178.032C252.329 178.032 258.53 171.951 258.53 164.45C258.53 156.949 252.329 150.868 244.68 150.868C237.03 150.868 230.83 156.949 230.83 164.45C230.83 171.951 237.03 178.032 244.68 178.032Z" fill="#CCD2D6"/>
</g>
<g opacity="0.5">
<path d="M251.076 137.005C249.02 136.544 246.881 136.302 244.68 136.302C237.91 136.302 231.691 138.599 226.786 142.444C226.388 142.756 225.997 143.076 225.62 143.409C225.428 143.576 225.244 143.743 225.056 143.917C224.867 144.087 224.686 144.261 224.505 144.435L223.705 142.444L192.602 65.2845C191.317 62.093 192.914 58.4827 196.164 57.2224L209.953 51.8761C213.207 50.6159 216.889 52.1814 218.174 55.3693L251.08 137.005H251.076Z" fill="#CCD2D6"/>
<path d="M164.33 65.2809L133.231 142.44L132.532 144.176C132.532 144.176 132.492 144.144 132.478 144.126C132.355 144.009 132.232 143.899 132.108 143.786C131.594 143.321 131.066 142.87 130.519 142.44C125.614 138.595 119.391 136.299 112.626 136.299C110.28 136.299 107.996 136.572 105.816 137.094L138.758 55.3657C140.047 52.1743 143.725 50.6123 146.983 51.8725L160.772 57.2188C164.026 58.4791 165.619 62.0894 164.334 65.2809H164.33Z" fill="#CCD2D6"/>
</g>
<path d="M224.093 146.317L222.692 142.834L191.589 65.675C190.861 63.868 190.894 61.8871 191.683 60.105C192.472 58.3194 193.92 56.9455 195.763 56.232L209.551 50.8857C211.394 50.1721 213.41 50.2041 215.231 50.978C217.052 51.7519 218.453 53.1719 219.18 54.9788L252.846 138.496L250.837 138.045C248.839 137.598 246.768 137.371 244.683 137.371C238.352 137.371 232.397 139.412 227.466 143.278C227.054 143.601 226.688 143.903 226.348 144.205C226.163 144.368 225.986 144.524 225.809 144.691C225.617 144.865 225.443 145.035 225.266 145.202L224.096 146.32L224.093 146.317ZM212.277 52.5009C211.625 52.5009 210.97 52.6216 210.347 52.863L196.559 58.2093C195.256 58.7134 194.231 59.6861 193.674 60.9499C193.116 62.2137 193.091 63.6124 193.609 64.8904L224.929 142.586C225.287 142.27 225.675 141.95 226.109 141.609C231.427 137.442 237.849 135.237 244.68 135.237C246.247 135.237 247.807 135.358 249.339 135.592L217.157 55.7598C216.643 54.4818 215.651 53.4772 214.362 52.9269C213.692 52.6429 212.983 52.5009 212.273 52.5009H212.277Z" fill="#CCD2D6"/>
<path d="M132.93 146.076L131.761 144.929C131.761 144.929 131.728 144.9 131.707 144.879C131.602 144.78 131.482 144.673 131.366 144.563C130.867 144.109 130.353 143.676 129.839 143.271C124.908 139.405 118.953 137.364 112.622 137.364C110.403 137.364 108.198 137.619 106.07 138.127L104.032 138.613L137.745 54.9754C139.254 51.2443 143.573 49.409 147.378 50.8822L161.166 56.2285C164.971 57.7018 166.846 61.9405 165.34 65.6715L132.93 146.076ZM112.618 135.234C119.352 135.234 125.947 137.499 131.189 141.606C131.493 141.844 131.794 142.089 132.094 142.344L132.213 142.043L163.313 64.8834C164.377 62.2422 163.052 59.246 160.359 58.2023L146.57 52.856C143.877 51.8123 140.818 53.1152 139.754 55.7528L107.55 135.646C109.212 135.369 110.906 135.227 112.611 135.227L112.618 135.234Z" fill="#CCD2D6"/>
<path d="M306.777 186.457L305.144 197.781H52.157L50.5244 186.457H94.7282C99.6333 190.301 105.856 192.598 112.622 192.598C119.388 192.598 125.61 190.301 130.516 186.457H226.786C231.691 190.301 237.91 192.598 244.679 192.598C251.449 192.598 257.668 190.301 262.573 186.457H306.777Z" fill="#CCD2D6"/>
<g opacity="0.5">
<path d="M301.876 241.851C300.945 241.265 299.997 240.704 299.03 240.175C291.439 236.008 282.697 233.636 273.383 233.636C267.649 233.636 262.128 234.534 256.962 236.203C252.293 237.701 247.909 239.831 243.916 242.479C229.95 251.755 220.77 267.439 220.77 285.225C220.77 304.679 231.749 321.616 247.963 330.409C252.56 332.901 257.585 334.737 262.895 335.787H262.899C266.287 336.466 269.784 336.813 273.383 336.813C278.512 336.813 283.468 336.096 288.149 334.754C310.017 328.492 325.992 308.69 325.992 285.221C325.992 267.02 316.385 251.028 301.876 241.847V241.851ZM293.828 290.482C293.828 298.25 292.051 304.246 288.493 308.46C285.625 311.853 281.814 313.88 277.057 314.541C275.906 314.704 274.704 314.782 273.444 314.782C266.914 314.782 261.867 312.659 258.294 308.421C255.243 304.8 253.502 299.925 253.056 293.78C252.977 292.719 252.937 291.622 252.937 290.482V279.971C252.937 273.378 254.218 268.061 256.785 264.024C257.237 263.304 257.737 262.626 258.273 261.99C261.831 257.776 266.859 255.668 273.361 255.668C279.862 255.668 284.901 257.79 288.471 262.029C291.559 265.693 293.311 270.67 293.727 276.953C293.796 277.94 293.828 278.959 293.828 280.01V290.486V290.482Z" fill="#CCD2D6"/>
</g>
<path d="M273.382 337.882C269.795 337.882 266.229 337.534 262.779 336.852L262.678 336.835C257.331 335.777 252.205 333.927 247.434 331.343C230.315 322.056 219.68 304.388 219.68 285.225C219.68 267.734 228.509 251.422 243.304 241.595C247.438 238.851 251.919 236.696 256.622 235.188C262.005 233.448 267.645 232.568 273.382 232.568C282.559 232.568 291.609 234.875 299.562 239.242C300.522 239.763 301.499 240.342 302.465 240.953C317.879 250.708 327.081 267.258 327.081 285.221C327.081 296.844 323.299 307.863 316.138 317.086C309.21 326.011 299.378 332.649 288.456 335.777C283.594 337.172 278.523 337.878 273.386 337.878L273.382 337.882ZM263.004 334.726L263.116 334.747C266.454 335.415 269.907 335.752 273.382 335.752C278.316 335.752 283.182 335.074 287.844 333.736C309.666 327.488 324.909 307.54 324.909 285.225C324.909 267.986 316.08 252.107 301.289 242.745C300.362 242.16 299.425 241.606 298.502 241.105C290.871 236.916 282.186 234.701 273.382 234.701C267.876 234.701 262.464 235.546 257.299 237.215C252.788 238.663 248.491 240.729 244.524 243.363C230.33 252.792 221.855 268.444 221.855 285.228C221.855 303.614 232.06 320.569 248.488 329.483C253.031 331.943 257.914 333.711 263.004 334.73V334.726Z" fill="#CCD2D6"/>
<path d="M288.47 262.029C284.897 257.787 279.858 255.667 273.357 255.667C266.855 255.667 261.827 257.776 258.269 261.99C254.71 266.204 252.929 272.2 252.929 279.967V290.479C252.929 298.2 254.714 304.178 258.287 308.42C261.856 312.663 266.91 314.782 273.436 314.782C279.963 314.782 284.926 312.673 288.485 308.46C292.043 304.246 293.824 298.25 293.824 290.482V280.006C293.824 272.264 292.036 266.268 288.467 262.029H288.47ZM280.249 292.499C280.224 296.634 279.659 299.673 278.559 301.604C277.455 303.543 275.75 304.508 273.44 304.508C271.131 304.508 269.302 303.514 268.198 301.526C267.098 299.538 266.548 296.397 266.548 292.101V277.401C266.627 273.556 267.199 270.688 268.26 268.788C269.321 266.893 271.018 265.945 273.353 265.945C275.688 265.945 277.491 266.967 278.595 269.008C279.695 271.05 280.246 274.138 280.246 278.274V292.499H280.249Z" fill="#CCD2D6"/>
<g opacity="0.5">
<path d="M280.25 278.27V292.495C280.224 296.631 279.659 299.67 278.559 301.601C277.455 303.539 275.75 304.505 273.44 304.505C271.131 304.505 269.303 303.511 268.199 301.523C267.098 299.535 266.548 296.393 266.548 292.098V277.397C266.627 273.552 267.199 270.684 268.26 268.785C269.321 266.889 271.019 265.941 273.353 265.941C275.688 265.941 277.491 266.964 278.595 269.005C279.696 271.046 280.246 274.135 280.246 278.27H280.25Z" fill="#CCD2D6"/>
</g>
<path d="M82.1557 123.355C81.982 123.355 81.801 123.313 81.6381 123.224C79.0607 121.85 76.7221 119.94 74.6877 117.548C74.304 117.097 74.3655 116.426 74.8252 116.046C75.285 115.67 75.9692 115.73 76.3565 116.181C78.2136 118.364 80.3385 120.104 82.6734 121.35C83.2019 121.63 83.3938 122.276 83.1078 122.794C82.9123 123.149 82.5395 123.352 82.1521 123.352L82.1557 123.355ZM71.1256 110.625C70.6912 110.625 70.2822 110.369 70.1156 109.951C68.9717 107.093 68.3455 104.182 68.2586 101.296C68.2405 100.706 68.7111 100.216 69.312 100.199C69.9202 100.184 70.4125 100.642 70.4306 101.232C70.5102 103.834 71.1003 106.578 72.1392 109.17C72.36 109.716 72.0849 110.334 71.5274 110.55C71.3971 110.6 71.2632 110.625 71.1292 110.625H71.1256ZM84.1142 102.538C83.6291 102.538 83.1875 102.219 83.0644 101.736C82.916 101.164 83.2671 100.586 83.8463 100.44C84.4146 100.298 84.9902 100.121 85.5549 99.9111C87.1043 99.3396 89.1677 98.2639 90.203 96.3895C90.489 95.8712 91.1478 95.6795 91.6764 95.96C92.2049 96.2404 92.4004 96.8865 92.1144 97.4048C90.7605 99.8614 88.2156 101.21 86.3188 101.91C85.6816 102.144 85.03 102.346 84.3821 102.51C84.2916 102.531 84.201 102.542 84.1142 102.542V102.538ZM75.542 102.361C75.437 102.361 75.3284 102.346 75.2235 102.314C72.3383 101.441 69.6631 99.7869 67.4948 97.5255C67.0821 97.096 67.1038 96.425 67.5418 96.0203C67.9798 95.6156 68.664 95.6369 69.0767 96.0664C70.9917 98.058 73.3374 99.5171 75.8642 100.28C76.4362 100.454 76.7583 101.051 76.581 101.612C76.4362 102.07 76.009 102.364 75.542 102.364V102.361ZM70.9156 94.0217C70.7672 94.0217 70.6188 93.9933 70.474 93.9294C69.9274 93.6915 69.6776 93.0632 69.9201 92.5236C71.1763 89.7439 73.0985 87.3938 75.6325 85.5301C76.114 85.1786 76.7945 85.2745 77.1529 85.7431C77.5113 86.2152 77.4135 86.8826 76.9357 87.2341C74.7022 88.8742 73.008 90.9474 71.9039 93.3862C71.7229 93.7838 71.3283 94.0181 70.912 94.0181L70.9156 94.0217ZM63.8929 90.5782C63.4476 90.5782 63.0313 90.3084 62.872 89.8717C61.8584 87.0992 61.2901 84.1882 61.1887 81.2133C61.167 80.624 61.6376 80.1341 62.2385 80.1128C62.8394 80.095 63.339 80.553 63.3607 81.1423C63.4585 83.8971 63.9797 86.5915 64.9173 89.1546C65.12 89.7084 64.8268 90.319 64.2621 90.5178C64.1426 90.5604 64.0159 90.5817 63.8965 90.5817L63.8929 90.5782ZM90.7931 89.751C90.3876 89.751 90.0003 89.5274 89.8121 89.1475C88.7224 86.9146 87.0138 85.3455 85.1278 84.8414C84.8237 84.7597 84.5087 84.7029 84.1866 84.671C83.5893 84.6106 83.1549 84.0888 83.2128 83.5066C83.2707 82.9208 83.8065 82.4913 84.4002 82.5516C84.8418 82.5942 85.2798 82.6723 85.6961 82.7859C88.2265 83.4604 90.3804 85.3952 91.7669 88.2245C92.0275 88.7535 91.7994 89.3925 91.2564 89.6445C91.1044 89.7155 90.9451 89.751 90.7895 89.751H90.7931ZM63.3245 73.8222C63.2231 73.8222 63.1218 73.808 63.0241 73.7796C62.4485 73.6163 62.1154 73.027 62.282 72.459C62.7489 70.8721 63.368 69.3314 64.1137 67.8866C64.711 66.7293 65.4169 65.5933 66.2133 64.507C66.5644 64.0277 67.2414 63.9212 67.7301 64.262C68.2188 64.6064 68.3273 65.2702 67.9798 65.7495C67.2486 66.747 66.6006 67.7907 66.054 68.8522C65.3662 70.1799 64.8015 71.5928 64.3707 73.0518C64.2331 73.5169 63.7987 73.8222 63.3281 73.8222H63.3245ZM73.113 60.0908C72.7944 60.0908 72.4795 59.9523 72.2623 59.6896C71.8894 59.2281 71.9655 58.5607 72.4324 58.1915C74.5827 56.5088 77.0878 54.9149 79.8788 53.4523C80.4073 53.1754 81.0661 53.3706 81.3485 53.8889C81.6308 54.4072 81.4318 55.0533 80.9032 55.3302C78.2317 56.7325 75.8352 58.2519 73.7899 59.8565C73.5908 60.0127 73.3519 60.0872 73.113 60.0872V60.0908Z" fill="#CCD2D6"/>
<path d="M267.25 118.968C266.873 118.968 266.504 118.772 266.305 118.428C266.008 117.917 266.193 117.267 266.714 116.976C266.743 116.958 269.802 115.251 273.885 112.329C274.37 111.981 275.047 112.088 275.402 112.56C275.757 113.036 275.648 113.703 275.167 114.047C270.975 117.047 267.916 118.755 267.789 118.826C267.619 118.921 267.434 118.964 267.253 118.964L267.25 118.968ZM281.31 108.918C281.009 108.918 280.709 108.797 280.495 108.559C280.097 108.119 280.141 107.444 280.589 107.057C282.837 105.108 284.879 103.12 286.667 101.147C287.066 100.706 287.753 100.667 288.202 101.058C288.651 101.448 288.691 102.123 288.293 102.563C286.45 104.601 284.343 106.653 282.03 108.658C281.824 108.836 281.567 108.925 281.31 108.925V108.918ZM292.691 96.102C292.499 96.102 292.3 96.0523 292.126 95.9458C291.616 95.637 291.453 94.9838 291.768 94.4797C293.343 91.9592 294.501 89.4422 295.211 86.9998C295.374 86.4354 295.974 86.1052 296.554 86.2685C297.129 86.4283 297.466 87.0176 297.299 87.5856C296.536 90.2161 295.297 92.9106 293.621 95.5944C293.415 95.921 293.06 96.102 292.695 96.102H292.691ZM290.077 94.9944C290.048 94.9944 290.02 94.9944 289.991 94.9944C286.678 94.7388 283.735 93.9614 281.237 92.6834C280.705 92.41 280.499 91.7675 280.778 91.2456C281.056 90.7238 281.712 90.5214 282.244 90.7948C284.477 91.9379 287.142 92.6372 290.161 92.8715C290.758 92.9177 291.207 93.4324 291.156 94.0182C291.113 94.5755 290.635 94.998 290.074 94.998L290.077 94.9944ZM298.722 94.4761C298.212 94.4761 297.755 94.1211 297.658 93.6099C297.546 93.0313 297.933 92.4739 298.519 92.3639C301.249 91.8527 303.953 91.022 306.559 89.8966C307.11 89.6588 307.75 89.9037 307.993 90.4433C308.235 90.9829 307.986 91.6113 307.435 91.8491C304.681 93.0384 301.817 93.9188 298.925 94.4584C298.856 94.4726 298.787 94.4761 298.718 94.4761H298.722ZM314.494 87.6708C314.161 87.6708 313.835 87.5217 313.622 87.2412C313.264 86.7691 313.365 86.1017 313.846 85.7502C315.841 84.2983 317.673 82.6582 319.291 80.869C319.523 80.6134 319.751 80.3542 319.975 80.0951C320.362 79.6442 321.047 79.5874 321.506 79.9673C321.966 80.3471 322.024 81.0181 321.637 81.4689C321.401 81.7423 321.159 82.0156 320.916 82.289C319.197 84.1847 317.253 85.9277 315.142 87.4649C314.947 87.6069 314.722 87.6743 314.494 87.6743V87.6708ZM275.76 86.8507C275.348 86.8507 274.953 86.62 274.772 86.2259C273.943 84.4474 273.527 82.4558 273.527 80.3045C273.527 79.2608 273.606 78.242 273.762 77.2728C273.856 76.6906 274.414 76.2966 275.004 76.3889C275.597 76.4812 275.999 77.0279 275.905 77.6065C275.768 78.4621 275.695 79.3709 275.695 80.3045C275.695 82.147 276.05 83.8439 276.745 85.342C276.995 85.878 276.752 86.5099 276.209 86.7513C276.064 86.8152 275.909 86.8472 275.76 86.8472V86.8507ZM297.064 79.9353C296.51 79.9353 296.04 79.5235 295.985 78.9733C295.696 76.0161 294.765 73.5631 293.212 71.6816C292.836 71.2236 292.908 70.5527 293.375 70.1835C293.842 69.8143 294.526 69.8853 294.903 70.3432C296.727 72.5549 297.817 75.3913 298.146 78.7709C298.204 79.3567 297.766 79.875 297.169 79.9318C297.133 79.9318 297.1 79.9353 297.064 79.9353ZM325.59 74.763C325.427 74.763 325.26 74.7275 325.101 74.6494C324.565 74.3867 324.348 73.7441 324.619 73.2187C325.912 70.7018 326.842 68.0961 327.389 65.4655C327.508 64.8904 328.084 64.5177 328.67 64.6348C329.257 64.752 329.637 65.3129 329.517 65.8915C328.935 68.7031 327.939 71.4934 326.56 74.1772C326.368 74.55 325.988 74.763 325.59 74.763ZM278.653 71.0355C278.363 71.0355 278.074 70.9219 277.86 70.6982C277.451 70.2687 277.473 69.5942 277.911 69.193C280.108 67.1766 282.946 66.0655 285.907 66.0655C286.161 66.0655 286.414 66.0726 286.667 66.0903C287.265 66.1294 287.717 66.637 287.677 67.2228C287.638 67.8085 287.12 68.2594 286.523 68.2132C283.913 68.0428 281.342 68.9587 279.395 70.7444C279.185 70.9361 278.921 71.0319 278.653 71.0319V71.0355ZM328.895 58.2697C328.348 58.2697 327.877 57.865 327.816 57.3183C327.515 54.5706 326.755 51.9471 325.557 49.5189C325.296 48.99 325.521 48.351 326.06 48.0954C326.6 47.8398 327.251 48.0599 327.512 48.5888C328.822 51.2371 329.651 54.0984 329.977 57.0911C330.042 57.6768 329.608 58.2022 329.014 58.2626C328.974 58.2661 328.935 58.2697 328.898 58.2697H328.895ZM321.481 43.2425C321.206 43.2425 320.931 43.1396 320.717 42.9372C318.809 41.0912 316.54 39.4724 313.969 38.127C313.441 37.8501 313.242 37.204 313.524 36.6857C313.807 36.1674 314.465 35.9721 314.994 36.249C317.745 37.6939 320.185 39.4334 322.241 41.4214C322.668 41.8332 322.672 42.5077 322.252 42.9266C322.038 43.1396 321.76 43.2425 321.477 43.2425H321.481ZM306.425 35.1272C306.328 35.1272 306.23 35.113 306.132 35.0882C304.525 34.648 302.823 34.2752 301.075 33.9841C300.485 33.8847 300.087 33.3345 300.188 32.7558C300.289 32.1772 300.847 31.7867 301.441 31.8861C303.265 32.1914 305.039 32.5783 306.719 33.0398C307.298 33.1996 307.634 33.7853 307.472 34.3533C307.338 34.8255 306.9 35.1308 306.425 35.1308V35.1272Z" fill="#CCD2D6"/>
<g opacity="0.5">
<path d="M284.769 16.2621C287.254 8.5321 286.227 1.32508 282.474 0.164811C278.722 -0.995457 273.665 4.3304 271.18 12.0604C268.694 19.7905 269.722 26.9975 273.474 28.1577C277.227 29.318 282.283 23.9922 284.769 16.2621Z" fill="#CCD2D6"/>
</g>
<g opacity="0.5">
<path d="M283.747 36.4123C282.194 36.4123 280.605 36.2454 279.023 35.9117C275.146 35.0988 271.714 33.3877 269.35 31.1015C267.008 28.833 266.009 26.2735 266.53 23.8843C267.373 20.0255 272.072 17.434 278.226 17.434C279.779 17.434 281.368 17.6008 282.95 17.9345C286.827 18.7475 290.263 20.4586 292.623 22.7448C294.961 25.0132 295.964 27.5728 295.443 29.9584C294.599 33.8172 289.901 36.4087 283.747 36.4087V36.4123Z" fill="#CCD2D6"/>
<path d="M278.226 17.2565V17.6115C279.768 17.6115 281.343 17.7783 282.914 18.1085C290.787 19.7628 296.33 25.0629 295.269 29.9229C294.444 33.6965 289.814 36.2348 283.75 36.2348C282.208 36.2348 280.633 36.0679 279.062 35.7378C275.221 34.9319 271.815 33.2386 269.48 30.9737C267.185 28.7514 266.2 26.2451 266.711 23.9234C267.536 20.1497 272.166 17.6115 278.23 17.6115V17.2565M278.23 17.2565C272.166 17.2565 267.239 19.8089 266.356 23.8488C265.252 28.9076 270.906 34.3888 278.99 36.0857C280.619 36.4265 282.222 36.5898 283.754 36.5898C289.817 36.5898 294.744 34.0373 295.627 29.9974C296.731 24.9387 291.077 19.4575 282.994 17.7606C281.365 17.4198 279.761 17.2565 278.23 17.2565Z" fill="#CCD2D6"/>
</g>
<path d="M295.596 29.9901C296.701 24.9308 291.046 19.4533 282.964 17.7556C274.882 16.058 267.435 18.7832 266.33 23.8425C265.225 28.9018 270.881 34.3794 278.962 36.077C287.044 37.7746 294.491 35.0494 295.596 29.9901Z" fill="#CCD2D6"/>
<g opacity="0.5">
<path d="M287.903 24.4503C294.374 19.4081 297.635 12.8716 295.188 9.85063C292.74 6.82969 285.51 8.4683 279.039 13.5106C272.568 18.5528 269.307 25.0893 271.754 28.1103C274.202 31.1312 281.432 29.4926 287.903 24.4503Z" fill="#CCD2D6"/>
</g>
<path d="M210.058 313.561H112.618C112.017 313.561 111.532 313.085 111.532 312.496C111.532 311.906 112.017 311.431 112.618 311.431H210.058C210.659 311.431 211.144 311.906 211.144 312.496C211.144 313.085 210.659 313.561 210.058 313.561Z" fill="#CCD2D6"/>
<path d="M210.057 321.208H166.299C165.698 321.208 165.213 320.732 165.213 320.143C165.213 319.553 165.698 319.078 166.299 319.078H210.057C210.658 319.078 211.143 319.553 211.143 320.143C211.143 320.732 210.658 321.208 210.057 321.208Z" fill="#CCD2D6"/>
<path d="M202.369 156.25H154.958C154.357 156.25 153.872 155.774 153.872 155.185C153.872 154.595 154.357 154.12 154.958 154.12H202.369C202.97 154.12 203.455 154.595 203.455 155.185C203.455 155.774 202.97 156.25 202.369 156.25Z" fill="#CCD2D6"/>
<path d="M178.661 169.633H154.954C154.353 169.633 153.868 169.157 153.868 168.568C153.868 167.979 154.353 167.503 154.954 167.503H178.661C179.262 167.503 179.747 167.979 179.747 168.568C179.747 169.157 179.262 169.633 178.661 169.633Z" fill="#CCD2D6"/>
<path d="M293.832 179.097H278.081C277.48 179.097 276.995 178.622 276.995 178.032C276.995 177.443 277.48 176.967 278.081 176.967H293.832C294.433 176.967 294.918 177.443 294.918 178.032C294.918 178.622 294.433 179.097 293.832 179.097Z" fill="#CCD2D6"/>
<path d="M125.371 140.292C125.237 140.292 125.104 140.268 124.97 140.218C124.412 140.001 124.141 139.384 124.361 138.833L157.846 56.0828C158.067 55.5361 158.697 55.2699 159.258 55.4864C159.816 55.703 160.087 56.3207 159.866 56.8709L126.381 139.621C126.211 140.04 125.802 140.292 125.371 140.292Z" fill="#CCD2D6"/>
<path d="M226.785 126.614C226.351 126.614 225.938 126.355 225.772 125.933L211.411 89.6055C211.194 89.0588 211.473 88.4411 212.03 88.2281C212.588 88.0151 213.218 88.2885 213.435 88.8352L227.795 125.162C228.013 125.709 227.734 126.327 227.176 126.54C227.046 126.589 226.916 126.611 226.785 126.611V126.614Z" fill="#CCD2D6"/>
<path d="M94.728 203.944H66.0684C65.4675 203.944 64.9824 203.468 64.9824 202.879C64.9824 202.29 65.4675 201.814 66.0684 201.814H94.728C95.3289 201.814 95.814 202.29 95.814 202.879C95.814 203.468 95.3289 203.944 94.728 203.944Z" fill="#CCD2D6"/>
</g>
<defs>
<clipPath id="clip0_365_4099">
<rect width="362" height="355" fill="white"/>
</clipPath>
</defs>
</svg>
