<svg width="21" height="20" viewBox="0 0 21 20" fill="none" xmlns="http://www.w3.org/2000/svg">
<path d="M20.8027 14.192C20.8027 17.832 18.6327 20.002 14.9927 20.002H13.8027C13.2527 20.002 12.8027 19.552 12.8027 19.002V13.232C12.8027 12.962 13.0227 12.732 13.2927 12.732L15.0527 12.702C15.1927 12.692 15.3127 12.592 15.3427 12.452L15.6927 10.542C15.7227 10.362 15.5827 10.192 15.3927 10.192L13.2627 10.222C12.9827 10.222 12.7627 10.002 12.7527 9.73196L12.7127 7.28195C12.7127 7.12195 12.8427 6.98196 13.0127 6.98196L15.4127 6.94196C15.5827 6.94196 15.7127 6.81197 15.7127 6.64197L15.6727 4.24194C15.6727 4.07194 15.5427 3.94196 15.3727 3.94196L12.6727 3.98196C11.0127 4.01196 9.69275 5.37195 9.72275 7.03195L9.77274 9.78195C9.78274 10.062 9.56275 10.282 9.28275 10.292L8.08273 10.312C7.91273 10.312 7.78275 10.4419 7.78275 10.6119L7.81274 12.512C7.81274 12.682 7.94273 12.812 8.11273 12.812L9.31274 12.792C9.59274 12.792 9.81272 13.012 9.82272 13.282L9.91272 18.982C9.92272 19.542 9.47272 20.002 8.91272 20.002H6.61273C2.97273 20.002 0.802734 17.8319 0.802734 14.1819V5.81195C0.802734 2.17195 2.97273 0.00195312 6.61273 0.00195312H14.9927C18.6327 0.00195312 20.8027 2.17195 20.8027 5.81195V14.192Z" fill="white"/>
</svg>
