<svg width="24" height="24" viewBox="0 0 24 24" fill="none" xmlns="http://www.w3.org/2000/svg">
<path d="M2.40039 1.99219C1.84811 1.99219 1.40039 2.4399 1.40039 2.99219C1.40039 3.54447 1.84811 3.99219 2.40039 3.99219V1.99219ZM4.69293 2.99219L5.65815 2.73077C5.5401 2.29487 5.14453 1.99219 4.69293 1.99219V2.99219ZM8.4183 16.7474L7.45307 17.0088C7.58334 17.4898 8.04786 17.8015 8.54234 17.7397L8.4183 16.7474ZM19.881 15.3146L20.005 16.3069C20.4297 16.2538 20.7735 15.9363 20.8602 15.5172L19.881 15.3146ZM21.6004 7.00413L22.5796 7.20673C22.6406 6.91222 22.5657 6.60592 22.3758 6.3727C22.1859 6.13949 21.9011 6.00413 21.6004 6.00413V7.00413ZM5.77949 7.00413L4.81427 7.26554L5.77949 7.00413ZM2.40039 3.99219H4.69293V1.99219H2.40039V3.99219ZM8.54234 17.7397L20.005 16.3069L19.7569 14.3223L8.29427 15.7551L8.54234 17.7397ZM20.8602 15.5172L22.5796 7.20673L20.6211 6.80152L18.9017 15.112L20.8602 15.5172ZM3.7277 3.2536L4.81427 7.26554L6.74472 6.74271L5.65815 2.73077L3.7277 3.2536ZM4.81427 7.26554L7.45307 17.0088L9.38353 16.486L6.74472 6.74271L4.81427 7.26554ZM21.6004 6.00413H5.77949V8.00413H21.6004V6.00413ZM11.0004 20.4995C11.0004 20.7756 10.7765 20.9995 10.5004 20.9995V22.9995C11.8811 22.9995 13.0004 21.8802 13.0004 20.4995H11.0004ZM10.5004 20.9995C10.2242 20.9995 10.0004 20.7756 10.0004 20.4995H8.00039C8.00039 21.8802 9.11968 22.9995 10.5004 22.9995V20.9995ZM10.0004 20.4995C10.0004 20.2233 10.2242 19.9995 10.5004 19.9995V17.9995C9.11968 17.9995 8.00039 19.1187 8.00039 20.4995H10.0004ZM10.5004 19.9995C10.7765 19.9995 11.0004 20.2233 11.0004 20.4995H13.0004C13.0004 19.1187 11.8811 17.9995 10.5004 17.9995V19.9995ZM19.0004 20.4995C19.0004 20.7756 18.7765 20.9995 18.5004 20.9995V22.9995C19.8811 22.9995 21.0004 21.8802 21.0004 20.4995H19.0004ZM18.5004 20.9995C18.2242 20.9995 18.0004 20.7756 18.0004 20.4995H16.0004C16.0004 21.8802 17.1197 22.9995 18.5004 22.9995V20.9995ZM18.0004 20.4995C18.0004 20.2233 18.2242 19.9995 18.5004 19.9995V17.9995C17.1197 17.9995 16.0004 19.1187 16.0004 20.4995H18.0004ZM18.5004 19.9995C18.7765 19.9995 19.0004 20.2233 19.0004 20.4995H21.0004C21.0004 19.1187 19.8811 17.9995 18.5004 17.9995V19.9995Z" fill="#0B0B0B"/>
</svg>
