<svg width="69" height="69" viewBox="0 0 69 69" fill="none" xmlns="http://www.w3.org/2000/svg">
<mask id="mask0_1214_61061" style="mask-type:alpha" maskUnits="userSpaceOnUse" x="0" y="1" width="69" height="68">
<rect x="0.440918" y="1" width="68" height="68" rx="34" fill="white"/>
</mask>
<g mask="url(#mask0_1214_61061)">
</g>
<rect x="0.440918" y="0.5" width="68" height="68" rx="34" fill="white"/>
<path d="M64.5471 63.5725C64.5471 63.5929 51.0668 63.6078 34.4422 63.6078C17.8175 63.6078 4.33447 63.5929 4.33447 63.5725C4.33447 63.5521 17.8121 63.5371 34.4422 63.5371C51.0722 63.5371 64.5471 63.5534 64.5471 63.5725Z" fill="#263238"/>
<path d="M26.1925 16.6752L27.0874 29.3504C27.1583 30.3479 27.6047 31.2814 28.3366 31.9628C29.0684 32.6443 30.0314 33.0229 31.0314 33.0224C31.5727 33.0225 32.1082 32.9114 32.6048 32.696C33.1014 32.4806 33.5484 32.1655 33.9182 31.7702C34.288 31.3749 34.5726 30.9079 34.7545 30.3981C34.9364 29.8883 35.0115 29.3465 34.9754 28.8064C34.8965 27.6001 34.8245 26.6128 34.8245 26.6128C34.8245 26.6128 37.894 26.1354 37.9321 23.0672C37.9538 21.2992 37.6478 17.2736 37.3881 14.1932C37.3022 13.1888 36.8424 12.2531 36.0998 11.5714C35.3571 10.8896 34.3856 10.5115 33.3774 10.5117H31.5183C30.76 10.5559 30.0184 10.7518 29.3372 11.0878C28.656 11.4238 28.0492 11.893 27.5526 12.4677C27.056 13.0425 26.6798 13.7109 26.4462 14.4337C26.2125 15.1564 26.1263 15.9186 26.1925 16.6752Z" fill="#B78876"/>
<path d="M34.8269 26.5764C34.8269 26.5764 32.8875 26.7342 30.8271 25.4395C30.8271 25.4395 31.7723 27.6481 34.8337 27.372L34.8269 26.5764Z" fill="#AA6550"/>
<path d="M36.4292 17.9088C36.4303 18.0231 36.3867 18.1333 36.3077 18.2159C36.2287 18.2985 36.1205 18.3469 36.0062 18.3508C35.9505 18.3552 35.8945 18.3485 35.8415 18.331C35.7885 18.3134 35.7395 18.2855 35.6974 18.2487C35.6553 18.212 35.621 18.1672 35.5965 18.117C35.572 18.0668 35.5578 18.0122 35.5547 17.9564C35.5536 17.8422 35.5969 17.732 35.6756 17.6493C35.7543 17.5665 35.8622 17.5176 35.9763 17.513C36.0322 17.5086 36.0884 17.5154 36.1416 17.533C36.1948 17.5506 36.2439 17.5786 36.2861 17.6155C36.3283 17.6524 36.3627 17.6973 36.3873 17.7477C36.4119 17.7981 36.4261 17.8528 36.4292 17.9088Z" fill="#263238"/>
<path d="M36.8535 17.2781C36.7991 17.3352 36.4672 17.0904 35.9967 17.0918C35.5261 17.0931 35.1807 17.3284 35.1276 17.2713C35.1031 17.2454 35.1589 17.1353 35.3085 17.0319C35.5126 16.8908 35.7553 16.8162 36.0035 16.8184C36.2478 16.8174 36.4861 16.8946 36.6835 17.0387C36.8317 17.1502 36.8807 17.2536 36.8535 17.2781Z" fill="#263238"/>
<path d="M31.8281 17.9087C31.8292 18.023 31.7856 18.1332 31.7066 18.2158C31.6276 18.2984 31.5194 18.3468 31.4052 18.3507C31.3495 18.3551 31.2935 18.3484 31.2404 18.3309C31.1874 18.3133 31.1384 18.2854 31.0963 18.2486C31.0542 18.2119 31.0199 18.1671 30.9954 18.1169C30.9709 18.0667 30.9567 18.0121 30.9536 17.9563C30.9525 17.8419 30.9961 17.7315 31.075 17.6487C31.154 17.5659 31.2622 17.5172 31.3766 17.5129C31.4324 17.5087 31.4884 17.5156 31.5414 17.5333C31.5945 17.551 31.6435 17.5791 31.6855 17.6159C31.7276 17.6528 31.7618 17.6977 31.7863 17.7479C31.8108 17.7982 31.825 17.8529 31.8281 17.9087Z" fill="#263238"/>
<path d="M32.2201 17.3634C32.1657 17.4205 31.8325 17.1743 31.362 17.1757C30.8914 17.1771 30.546 17.4137 30.4929 17.3552C30.4685 17.3294 30.5229 17.2274 30.6738 17.1172C30.8783 16.9768 31.1207 16.9019 31.3688 16.9023C31.6129 16.9032 31.8506 16.9802 32.0488 17.1227C32.197 17.2355 32.246 17.3389 32.2201 17.3634Z" fill="#263238"/>
<path d="M33.9309 20.8621C33.9309 20.8349 34.2219 20.7846 34.6966 20.7261C34.8163 20.7125 34.9305 20.6894 34.9509 20.6064C34.9613 20.4823 34.9333 20.3579 34.8707 20.2501C34.7582 19.9591 34.6395 19.6535 34.5143 19.3335C34.0207 18.0279 33.6616 16.9548 33.7147 16.9358C33.7677 16.9168 34.2111 17.9585 34.7061 19.2628C34.8249 19.5855 34.9387 19.8934 35.0475 20.1862C35.0923 20.3222 35.1712 20.4772 35.1087 20.6581C35.0916 20.7006 35.0649 20.7386 35.0307 20.769C34.9965 20.7994 34.9557 20.8215 34.9115 20.8336C34.8451 20.8525 34.7765 20.8621 34.7075 20.8621C34.2287 20.8866 33.9323 20.8893 33.9309 20.8621Z" fill="#263238"/>
<path d="M32.5435 21.1895C32.6197 21.1895 32.6211 21.6968 33.059 22.0599C33.4969 22.423 34.0409 22.3673 34.045 22.438C34.0531 22.4706 33.9239 22.5373 33.6941 22.5441C33.3942 22.5483 33.1024 22.4467 32.8699 22.2571C32.6468 22.0749 32.5034 21.8129 32.4701 21.5268C32.4511 21.3092 32.5082 21.1868 32.5435 21.1895Z" fill="#263238"/>
<path d="M32.341 15.5172C32.2947 15.6532 31.8242 15.5852 31.2706 15.6532C30.7171 15.7212 30.2697 15.8708 30.1962 15.7552C30.1636 15.7008 30.2411 15.5797 30.422 15.456C30.6625 15.304 30.9344 15.2088 31.2172 15.1774C31.4999 15.1461 31.7861 15.1795 32.054 15.2751C32.2648 15.3567 32.3614 15.46 32.341 15.5172Z" fill="#263238"/>
<path d="M36.6805 15.9125C36.5976 16.02 36.2725 15.9125 35.8822 15.903C35.4919 15.8935 35.1614 15.9751 35.0853 15.8636C35.0513 15.8092 35.1029 15.7017 35.2485 15.5997C35.4425 15.4782 35.6684 15.4171 35.8973 15.4244C36.1261 15.4317 36.3477 15.5069 36.5337 15.6405C36.671 15.7493 36.7173 15.8677 36.6805 15.9125Z" fill="#263238"/>
<path d="M27.2326 18.9795C27.1795 18.9564 25.1246 18.3566 25.1926 20.4537C25.2606 22.5509 27.3509 22.0517 27.3536 21.9905C27.3563 21.9293 27.2326 18.9795 27.2326 18.9795Z" fill="#B78876"/>
<path d="M26.6807 21.2163C26.6712 21.2163 26.6454 21.2435 26.5842 21.2735C26.4987 21.313 26.4014 21.3184 26.3122 21.2884C26.0878 21.2136 25.8906 20.8682 25.8674 20.4901C25.857 20.3105 25.8862 20.1308 25.9531 19.9638C25.9714 19.897 26.0057 19.8356 26.0531 19.7851C26.1005 19.7346 26.1596 19.6965 26.2251 19.6741C26.2668 19.6617 26.3116 19.6643 26.3516 19.6815C26.3916 19.6986 26.4243 19.7292 26.4441 19.7679C26.474 19.8251 26.4618 19.8672 26.4726 19.8713C26.4835 19.8754 26.5175 19.8346 26.4971 19.7475C26.4836 19.6962 26.4529 19.6511 26.4101 19.6197C26.3809 19.5987 26.3479 19.5836 26.3128 19.5755C26.2778 19.5673 26.2415 19.5662 26.2061 19.5721C26.1206 19.5921 26.0416 19.6335 25.9766 19.6925C25.9117 19.7516 25.8628 19.8262 25.8348 19.9094C25.7521 20.0942 25.7152 20.2962 25.7274 20.4983C25.7546 20.9212 25.983 21.3143 26.289 21.3877C26.346 21.4023 26.4056 21.4039 26.4632 21.3924C26.5209 21.3809 26.5753 21.3565 26.6222 21.3211C26.678 21.268 26.6889 21.2204 26.6807 21.2163Z" fill="#AA6550"/>
<path d="M26.0607 18.9089C26.3803 18.8314 26.9338 19.1265 27.0698 19.4257C27.2058 19.7249 27.2357 20.0649 27.3717 20.3654C27.5077 20.666 27.8151 20.9353 28.1361 20.8591C28.2445 20.8252 28.342 20.7632 28.4187 20.6793C28.4954 20.5955 28.5485 20.4928 28.5726 20.3818C28.6189 20.1577 28.6212 19.9267 28.5794 19.7018C28.4557 18.7226 28.2503 17.7515 28.2109 16.7642C28.1714 15.7768 28.3115 14.7527 28.8297 13.9082C29.3478 13.0636 30.2985 12.4489 31.2777 12.5291C31.9291 12.5808 32.5275 12.9208 33.1749 13.0119C33.5606 13.0629 33.9528 13.0254 34.3219 12.9022C34.6909 12.7789 35.027 12.5732 35.3046 12.3006C35.3753 12.2313 35.7017 12.015 35.7017 12.015C35.7017 11.9647 35.6541 11.5268 35.4814 11.3663C34.1962 10.179 31.8815 9.84721 30.1842 10.2783C28.4869 10.7094 26.8957 11.9103 26.1654 13.4934C25.4351 15.0764 25.6527 17.3014 26.0553 18.9062" fill="#263238"/>
<path d="M37.4167 13.7277C37.4167 13.7277 29.3682 11.1437 25.8866 18.1015C25.8866 18.1015 25.3657 16.3593 25.3657 15.425C25.3657 14.8007 25.7384 11.0852 29.5627 9.91562C29.5627 9.91562 35.3223 7.71786 37.4167 13.7277Z" fill="#F68821"/>
<path d="M30.4966 13.9021C30.6396 14.1327 30.8342 14.3269 31.0651 14.4694C31.2959 14.6119 31.5567 14.6988 31.8269 14.7234C32.0971 14.7479 32.3693 14.7093 32.622 14.6107C32.8747 14.5121 33.1011 14.3561 33.2833 14.1551C33.3633 14.3552 33.5039 14.5252 33.6855 14.6413C33.867 14.7575 34.0804 14.8139 34.2956 14.8026C34.5108 14.7914 34.7171 14.713 34.8855 14.5786C35.054 14.4442 35.1761 14.2604 35.2349 14.0531C35.4531 14.2963 35.72 14.4909 36.0182 14.6243C36.3242 14.7372 36.7118 14.6936 36.9117 14.438C37.1117 14.1823 37.0573 13.7784 36.856 13.5145C36.6362 13.2651 36.3548 13.0775 36.04 12.9705C35.0858 12.5509 34.0373 12.3923 33.0017 12.5108C31.9749 12.6468 30.9808 13.1473 30.3389 13.9606" fill="#263238"/>
<g opacity="0.4">
<path d="M37.4163 13.7277C36.7467 13.0221 35.8286 12.605 34.8567 12.5649C32.4822 12.4602 28.0391 13.7957 25.8807 18.1015C25.8807 18.1015 25.3599 16.3593 25.3599 15.425C25.3599 14.8007 25.7325 11.0852 29.5568 9.91562C29.5623 9.91562 35.3219 7.71786 37.4163 13.7277Z" fill="black"/>
</g>
<path d="M26.2222 17.2861C27.4149 15.4597 29.0605 13.9501 30.9114 12.7981C32.7624 11.6462 35.821 10.4997 37.929 9.94214C38.5628 9.7735 39.2224 9.62662 39.8684 9.73814C40.5144 9.84966 41.1454 10.2821 41.3046 10.9145C41.5058 11.7101 40.0942 12.9369 39.4318 13.4183C38.7695 13.8997 37.4163 14.6083 37.4163 14.6083C37.4163 14.6083 37.4354 13.1341 35.0744 12.8308C31.8648 12.4105 26.2222 17.2861 26.2222 17.2861Z" fill="#F68821"/>
<path d="M32.8238 11.2712C32.8238 11.2712 33.9825 10.6292 35.148 10.4796C34.9534 10.3284 34.741 10.2014 34.5156 10.1016C33.883 10.2061 33.2713 10.4119 32.7041 10.7108L32.8238 11.2712Z" fill="#E0E0E0"/>
<path d="M39.3558 29.2595L36.803 28.6964L35.764 28.4367L34.899 27.0957C34.899 27.0957 34.491 29.4934 32.942 30.784C32.7322 30.9556 32.4864 31.0775 32.2228 31.1407C31.9593 31.2038 31.6849 31.2065 31.4202 31.1485C31.0706 31.0751 30.6599 30.9853 30.3553 30.9037C30.29 30.886 30.2193 30.8629 30.1431 30.8357C29.0232 30.4198 28.0902 29.6152 27.5142 28.5686C27.1715 27.9593 26.8818 27.3337 26.9811 27.0957L25.7694 29.6049L18.6294 32.8934L14.5752 42.7969L22.4319 45.1198L22.6767 53.2798L21.197 63.5668L43.4235 63.5818L42.6347 40.6943" fill="#F68821"/>
<path d="M33.6097 38.119C33.5645 38.1226 33.519 38.1226 33.4737 38.119L33.078 38.1095L31.6649 38.0592H31.6377V38.0361C31.6146 37.4227 31.5861 36.6965 31.5548 35.9199C31.5181 34.8006 31.4854 33.7888 31.4596 33.0449C31.4514 32.6831 31.4446 32.388 31.4392 32.1731C31.4392 32.0766 31.4392 31.9977 31.4392 31.9365C31.4356 31.9089 31.4356 31.8811 31.4392 31.8535C31.4454 31.8803 31.4486 31.9076 31.4487 31.9351C31.4487 31.9977 31.4582 32.0711 31.4637 32.1718C31.4745 32.3866 31.4895 32.6818 31.5072 33.0422C31.5371 33.7861 31.5779 34.7979 31.6228 35.9158C31.65 36.6938 31.6745 37.42 31.6962 38.0334L31.6663 38.0048L33.0793 38.0796L33.4737 38.1054C33.5194 38.105 33.565 38.1096 33.6097 38.119Z" fill="#263238"/>
<path d="M32.401 34.8132C32.4321 34.7913 32.469 34.7791 32.507 34.7778C32.5953 34.7721 32.6834 34.792 32.7606 34.8352C32.8379 34.8784 32.9009 34.943 32.9422 35.0213C32.981 35.0976 32.9948 35.1842 32.9817 35.2688C32.9672 35.3647 32.9251 35.4543 32.8607 35.5267C32.7962 35.5991 32.7121 35.6513 32.6186 35.6768C32.5239 35.6966 32.4255 35.69 32.3344 35.6576C32.2432 35.6252 32.1627 35.5683 32.1018 35.4932C32.0524 35.4326 32.0178 35.3614 32.0008 35.2851C31.9838 35.2089 31.9848 35.1297 32.0038 35.0539C32.0249 34.9508 32.076 34.8561 32.1507 34.7819C32.2024 34.7316 32.2405 34.7153 32.2418 34.7193C32.2432 34.7234 32.2146 34.7479 32.1711 34.8009C32.1108 34.8754 32.0702 34.9638 32.0528 35.058C32.039 35.1258 32.0406 35.1959 32.0576 35.263C32.0745 35.3301 32.1064 35.3925 32.1507 35.4456C32.2051 35.5097 32.2756 35.5582 32.355 35.5859C32.4344 35.6136 32.5197 35.6197 32.6022 35.6033C32.6825 35.5807 32.7547 35.5357 32.8103 35.4736C32.8659 35.4114 32.9027 35.3347 32.9164 35.2525C32.9277 35.185 32.9201 35.1158 32.8944 35.0524C32.8687 34.989 32.826 34.934 32.7709 34.8934C32.6962 34.8339 32.6039 34.8008 32.5084 34.7996C32.4377 34.805 32.401 34.8186 32.401 34.8132Z" fill="#263238"/>
<path d="M32.1599 31.94C32.1913 31.9124 32.23 31.8944 32.2714 31.8883C32.3843 31.8644 32.502 31.8818 32.6032 31.9372C32.6751 31.9738 32.7364 32.0281 32.7814 32.095C32.8337 32.1733 32.8599 32.2661 32.8562 32.3602C32.8519 32.4675 32.8154 32.5709 32.7513 32.6571C32.6872 32.7432 32.5987 32.808 32.4972 32.843C32.3934 32.8696 32.2841 32.8649 32.1829 32.8296C32.0818 32.7942 31.9934 32.7298 31.9287 32.6444C31.8713 32.5708 31.8368 32.4819 31.8294 32.3888C31.8252 32.3085 31.8381 32.2283 31.8675 32.1535C31.9097 32.047 31.9844 31.9566 32.081 31.8951C32.1146 31.8699 32.1547 31.8548 32.1966 31.8516C32.1966 31.8516 32.1572 31.872 32.0973 31.9182C32.0132 31.9829 31.9498 32.0709 31.9151 32.1712C31.8878 32.243 31.8795 32.3206 31.8909 32.3966C31.9023 32.4726 31.9331 32.5444 31.9804 32.605C32.0378 32.6783 32.1153 32.7334 32.2034 32.7636C32.2915 32.7937 32.3864 32.7977 32.4768 32.775C32.5643 32.7439 32.6408 32.6878 32.6967 32.6135C32.7525 32.5393 32.7853 32.4502 32.7909 32.3575C32.7945 32.2813 32.7767 32.2056 32.7394 32.139C32.7022 32.0724 32.647 32.0176 32.5801 31.9808C32.4887 31.9269 32.3823 31.904 32.2768 31.9155C32.202 31.925 32.1626 31.9454 32.1599 31.94Z" fill="#263238"/>
<path d="M31.4365 42.9161C31.4365 42.9161 31.4474 42.9093 31.4705 42.9011L31.5725 42.8617C31.6636 42.8304 31.7928 42.7733 31.9574 42.6971C32.4169 42.4654 32.8388 42.1655 33.2086 41.8077C33.7523 41.2723 34.2328 40.6763 34.6407 40.0315C35.1508 39.2476 35.6167 38.4358 36.036 37.5998C36.7902 36.0761 37.4519 34.5084 38.0176 32.9051C38.2392 32.2904 38.412 31.7913 38.533 31.4472L38.669 31.0501C38.684 31.0093 38.6976 30.9753 38.7071 30.9481C38.7109 30.9363 38.716 30.9249 38.722 30.9141C38.721 30.9266 38.7183 30.939 38.7139 30.9508C38.7057 30.978 38.6948 31.012 38.6826 31.0555C38.6513 31.1521 38.6092 31.2853 38.5561 31.4635C38.4432 31.8103 38.2773 32.3121 38.0597 32.9282C37.5087 34.5358 36.8536 36.1059 36.0986 37.6284C35.6782 38.4667 35.2096 39.28 34.6951 40.0641C34.2824 40.7124 33.7949 41.3099 33.2426 41.8444C32.8669 42.2017 32.4373 42.4977 31.9696 42.7216C31.8417 42.7803 31.7105 42.8316 31.5766 42.8753L31.4719 42.9079C31.4606 42.9124 31.4487 42.9152 31.4365 42.9161Z" fill="#263238"/>
<path d="M36.119 40.1999C36.1775 40.1999 37.5307 40.1074 37.5307 40.1074C37.5307 40.1074 36.9717 41.0948 36.3896 41.4674H35.2051L36.119 40.1999Z" fill="#FAFAFA"/>
<path d="M31.1997 45.9071C31.2229 45.8849 31.2484 45.8653 31.2759 45.8487L31.5043 45.6909C31.7015 45.5549 31.9858 45.3509 32.3271 45.0884C33.0071 44.5675 33.9129 43.7896 34.8812 42.9002C35.3654 42.4555 35.8332 42.0366 36.2331 41.634C36.5919 41.2811 36.925 40.9029 37.2299 40.5025C37.4346 40.2324 37.6165 39.9458 37.7739 39.6457C37.8338 39.541 37.8705 39.4553 37.8991 39.3982C37.912 39.3681 37.9279 39.3394 37.9467 39.3125C37.9379 39.3438 37.9266 39.3743 37.9127 39.4036C37.8882 39.4621 37.8542 39.5505 37.7984 39.6579C37.649 39.9649 37.4719 40.2576 37.2694 40.5324C36.9685 40.9396 36.6371 41.3234 36.2779 41.6803C35.8767 42.0883 35.4116 42.5085 34.9275 42.9519C33.9591 43.8413 33.052 44.6165 32.3571 45.1279C32.0103 45.3849 31.7206 45.5807 31.5193 45.7127C31.4173 45.7779 31.3371 45.8255 31.2827 45.8595C31.2569 45.8785 31.2291 45.8944 31.1997 45.9071Z" fill="#263238"/>
<path d="M27.3862 61.0206C27.3862 61.0206 27.3862 61.0083 27.4025 60.9879C27.4189 60.9675 27.4366 60.9349 27.4583 60.8982C27.5086 60.8206 27.5848 60.7064 27.6868 60.5622C27.8908 60.2766 28.2063 59.8741 28.6225 59.4008C29.4602 58.461 30.6339 57.1786 31.9259 55.7587L35.2565 52.1289L36.2698 51.0409L36.5418 50.7458L36.6152 50.671L36.6424 50.6465C36.6424 50.6465 36.6356 50.6574 36.6206 50.675L36.5526 50.7553L36.2806 51.0599L35.2838 52.1683L31.9789 55.8022L28.6605 59.4307C28.2403 59.8986 27.9193 60.2943 27.7085 60.5745C27.6038 60.7105 27.5236 60.8261 27.4705 60.9022L27.4094 60.9879C27.4025 60.9994 27.3948 61.0103 27.3862 61.0206Z" fill="#263238"/>
<path d="M39.1792 29.1973C39.2962 29.3727 41.9237 29.6651 42.567 30.307C43.2102 30.9489 49.639 35.8558 49.639 35.8558L45.0571 42.0221L42.1005 41.3706L39.1792 29.1973Z" fill="#F68821"/>
<path opacity="0.4" d="M48.8594 35.2559L43.7227 41.7267L45.0568 42.0205L49.6332 35.8475L48.8594 35.2559Z" fill="black"/>
<path d="M40.5787 35.6147C40.5556 35.5445 40.5379 35.4727 40.5256 35.3998C40.5107 35.3305 40.493 35.2448 40.4807 35.1441C40.4685 35.0435 40.4481 34.9293 40.4413 34.8014C40.4345 34.6736 40.4209 34.5294 40.4209 34.3839C40.4209 34.2384 40.4209 34.0738 40.4331 33.9052C40.4596 33.5384 40.5164 33.1745 40.6031 32.8172C40.6957 32.4616 40.8181 32.1145 40.969 31.7795C41.0411 31.6272 41.105 31.4803 41.1825 31.3497C41.26 31.2192 41.3267 31.0981 41.396 30.9907C41.4654 30.8833 41.532 30.7908 41.5919 30.7078C41.6413 30.6367 41.6944 30.5681 41.751 30.5025C41.7955 30.4434 41.8451 30.3883 41.8992 30.3379C41.8621 30.4015 41.8198 30.462 41.7727 30.5188C41.7306 30.5759 41.6789 30.6453 41.6245 30.7309C41.5701 30.8166 41.5007 30.9077 41.4382 31.0179C41.3756 31.1281 41.3022 31.245 41.2342 31.3783C41.1662 31.5116 41.0982 31.6503 41.0288 31.8053C40.8856 32.139 40.7683 32.4832 40.6779 32.8349C40.5932 33.1876 40.5355 33.5463 40.5052 33.9079C40.4957 34.0752 40.4835 34.2343 40.4875 34.3825C40.4916 34.5308 40.4875 34.6695 40.4984 34.7905C40.5093 34.9116 40.5175 35.0313 40.527 35.1319C40.5365 35.2325 40.5487 35.3182 40.5596 35.3876C40.5733 35.4625 40.5796 35.5385 40.5787 35.6147Z" fill="#263238"/>
<path d="M42.6348 40.6848C42.4242 40.2765 42.2349 39.8575 42.0677 39.4296C41.8782 39.0114 41.7103 38.5838 41.5645 38.1484C41.7751 38.5565 41.9648 38.975 42.1329 39.4024C42.3227 39.8207 42.4902 40.2488 42.6348 40.6848Z" fill="#263238"/>
<path d="M22.4317 36.2058C22.4209 36.2058 22.3107 36.0086 22.1026 35.7026C21.8311 35.304 21.5204 34.9336 21.1751 34.5969C20.8281 34.2628 20.4491 33.9635 20.0436 33.7034C19.7308 33.5049 19.5254 33.4015 19.5309 33.3906C19.583 33.405 19.6332 33.4255 19.6805 33.4518C19.8136 33.5151 19.9434 33.585 20.0694 33.6613C20.4878 33.9106 20.8757 34.2077 21.2254 34.5466C21.574 34.8866 21.8824 35.2653 22.1448 35.6754C22.2441 35.8332 22.3189 35.9637 22.3651 36.0576C22.3933 36.1041 22.4157 36.1539 22.4317 36.2058Z" fill="#263238"/>
<path opacity="0.4" d="M14.5752 42.7926L14.8921 42.0215L23.5825 44.3879L23.2384 45.3548L14.5752 42.7926Z" fill="black"/>
<path d="M37.7754 39.7441H41.0843V41.1041L36.8506 41.0769C36.8506 41.0769 37.5047 40.2895 37.7754 39.7441Z" fill="#FAFAFA"/>
<g opacity="0.2">
<path d="M25.9736 29.9029C26.0933 30.9637 26.2239 32.0585 26.7488 32.9888C27.2738 33.919 28.3006 34.652 29.3573 34.4956C30.0618 34.3909 30.6588 33.9204 31.1389 33.3927C31.619 32.865 32.0216 32.268 32.5452 31.7852C32.8618 32.1262 33.2158 32.4305 33.6005 32.6923C33.9892 32.9556 34.4558 33.0788 34.9238 33.0418C35.3848 32.986 35.6392 32.8024 35.7847 32.3618C35.2924 32.5141 35.0217 32.491 34.5308 32.3972C33.9886 32.2932 33.4796 32.06 33.047 31.7172C32.7587 31.49 32.654 31.1487 32.2881 31.1732C31.9495 31.1922 31.6843 31.4601 31.4612 31.7172C31.1012 32.1294 30.7062 32.5098 30.2808 32.8541C29.8728 33.1764 29.4784 33.3981 28.9588 33.3832C28.1034 33.3641 27.403 32.6923 26.9311 31.9783C26.4955 31.32 26.1737 30.5931 25.9791 29.8281" fill="black"/>
</g>
<path d="M35.9885 28.5801C35.9963 28.6048 36.0013 28.6304 36.0035 28.6562C36.0035 28.7066 36.0198 28.78 36.0293 28.8752C36.0497 29.0656 36.0701 29.3417 36.0783 29.6912C36.0967 30.5852 36.0113 31.4784 35.824 32.3527V32.3745V32.3962H35.8036C35.3201 32.5096 34.8155 32.496 34.3389 32.3568C33.9491 32.2526 33.5808 32.0804 33.2509 31.8482C33.0276 31.6964 32.8274 31.5132 32.6565 31.3042C32.6106 31.2477 32.5679 31.1887 32.5287 31.1274C32.5135 31.1064 32.5003 31.0841 32.4893 31.0607C32.7111 31.3508 32.9773 31.6042 33.2781 31.8114C33.6062 32.0331 33.9695 32.1977 34.3525 32.2983C34.8189 32.4301 35.311 32.4418 35.7832 32.3323L35.7573 32.3582V32.3364C35.9425 31.4665 36.0337 30.5792 36.0293 29.6898C36.0293 29.3485 36.0144 29.0724 36.0035 28.8806C36.0035 28.7922 35.994 28.7202 35.9899 28.6617C35.9855 28.6347 35.985 28.6072 35.9885 28.5801Z" fill="#263238"/>
<path d="M31.8568 31.2641C31.8461 31.2931 31.8314 31.3206 31.8133 31.3457C31.7678 31.4211 31.7178 31.4938 31.6637 31.5633C31.4606 31.8167 31.2368 32.0528 30.9946 32.2691C30.8436 32.4051 30.6736 32.5561 30.49 32.7111C30.3976 32.7886 30.3051 32.8702 30.2017 32.9518C30.0953 33.0322 29.983 33.1045 29.8658 33.1681C29.6141 33.3069 29.3361 33.3917 29.0498 33.417C28.7374 33.4435 28.4243 33.3742 28.1522 33.2184C27.8873 33.0606 27.6498 32.8608 27.4491 32.6268C27.2587 32.4148 27.0816 32.1914 26.9187 31.9577C26.644 31.5612 26.412 31.1367 26.2264 30.6915C26.1021 30.3922 26.0003 30.084 25.9218 29.7694C25.8932 29.6579 25.8756 29.5709 25.8647 29.511C25.8571 29.4812 25.8526 29.4507 25.8511 29.4199C25.8635 29.4482 25.8727 29.4779 25.8783 29.5083C25.8946 29.5668 25.9164 29.6525 25.9476 29.7626C26.0369 30.0724 26.1454 30.3763 26.2727 30.6725C26.4632 31.1109 26.6979 31.5287 26.9731 31.9196C27.1353 32.1501 27.3115 32.3704 27.5008 32.5792C27.695 32.8071 27.9246 33.0022 28.1808 33.1572C28.441 33.3058 28.7402 33.3722 29.0389 33.3476C29.317 33.3237 29.5873 33.2431 29.8332 33.111C29.9486 33.0498 30.0591 32.9798 30.1636 32.9015C30.2629 32.8254 30.3581 32.7424 30.4506 32.6662C30.6356 32.5126 30.8069 32.3684 30.9592 32.2324C31.2023 32.0228 31.4296 31.7955 31.6392 31.5524C31.7113 31.4654 31.7644 31.3933 31.7997 31.3443C31.8164 31.316 31.8355 31.2891 31.8568 31.2641Z" fill="#263238"/>
<path d="M28.9272 46.8899L29.9758 45.3612C29.9758 45.3612 30.6966 42.8561 30.5987 42.5052C30.5008 42.1544 30.1825 40.8488 30.2573 40.8324C30.3321 40.8161 31.1168 40.5251 31.5425 41.5723C31.8077 42.2251 31.8948 43.0846 31.9233 43.6395C31.9264 43.7081 31.9444 43.7751 31.9759 43.8361C32.0075 43.897 32.0518 43.9504 32.106 43.9926C32.1602 44.0347 32.2228 44.0646 32.2897 44.0802C32.3565 44.0958 32.4259 44.0967 32.4932 44.0828C33.218 43.9332 34.4244 43.7061 34.7113 43.7755C35.1275 43.8748 35.5001 44.4052 35.5355 44.5833C35.5708 44.7615 35.2852 45.1627 35.2852 45.1627C35.2852 45.1627 35.6388 45.3436 35.7476 45.6169C35.7626 45.6536 35.7748 45.6904 35.7857 45.7257C35.8189 45.8353 35.823 45.9517 35.7974 46.0633C35.7719 46.1749 35.7177 46.2779 35.6402 46.3622L35.5287 46.4846C35.5287 46.4846 35.9707 46.6056 36.0251 46.8586C36.0546 47.0433 36.0495 47.232 36.0101 47.4148L35.5953 47.8432C35.7109 47.9511 35.7867 48.0949 35.8102 48.2512C35.832 48.4852 35.2104 49.0672 35.2104 49.0672L32.5435 50.0192L31.4854 50.2912L28.9272 46.8899Z" fill="#B78876"/>
<path d="M35.2937 45.1663C34.989 45.2483 34.6803 45.315 34.3689 45.3662C34.063 45.441 33.7534 45.5 33.4414 45.543C33.5249 45.5022 33.613 45.4716 33.7039 45.4519C33.8684 45.4057 34.0983 45.3485 34.3553 45.2969C34.6124 45.2452 34.8449 45.2071 35.0163 45.1853C35.1075 45.1666 35.2008 45.1602 35.2937 45.1663Z" fill="#AA6550"/>
<path d="M35.5371 46.4844C35.3104 46.5907 35.074 46.6749 34.8312 46.736C34.5956 46.8205 34.3524 46.8825 34.105 46.9209C34.3317 46.8146 34.568 46.7304 34.8108 46.6693C35.0465 46.5848 35.2897 46.5228 35.5371 46.4844Z" fill="#AA6550"/>
<path d="M35.6962 47.7871C35.4573 47.9302 35.2066 48.0526 34.9469 48.1529C34.6966 48.2755 34.4364 48.3765 34.1689 48.4549C34.4079 48.3118 34.6585 48.1894 34.9183 48.089C35.1686 47.9665 35.4288 47.8655 35.6962 47.7871Z" fill="#AA6550"/>
<path d="M22.7829 56.3364L32.5912 49.7568L30.116 45.2688L21.1645 49.8724L22.1804 45.0362L16.1053 43.2383L14.5848 51.5207C14.3509 55.2036 17.3048 58.1765 20.8653 57.2096C21.5478 57.025 22.1955 56.73 22.7829 56.3364Z" fill="#B78876"/>
<path d="M19.8685 52.4752C19.8508 52.436 19.8394 52.3942 19.8345 52.3515C19.8143 52.2369 19.803 52.121 19.8005 52.0047C19.7954 51.6177 19.8821 51.2351 20.0535 50.8881C20.2272 50.542 20.4814 50.2426 20.7947 50.015C20.888 49.9457 20.9872 49.8848 21.0911 49.8328C21.1284 49.811 21.1688 49.7949 21.2108 49.7852C21.2108 49.7974 21.0517 49.8749 20.8246 50.0572C20.5272 50.2894 20.2854 50.5852 20.117 50.9228C19.9485 51.2605 19.8576 51.6315 19.8508 52.0088C19.844 52.2944 19.8889 52.4739 19.8685 52.4752Z" fill="#AA6550"/>
<path d="M45.0571 42.0208C45.1183 41.9365 52.0421 46.1552 52.0421 46.1552L54.2616 56.2668L57.4563 57.4391C57.4563 57.4391 58.4531 46.1865 57.6943 44.4348C56.9354 42.6831 49.2418 36.3809 49.2418 36.3809L45.0571 42.0208Z" fill="#B78876"/>
<path d="M53.554 45.3809C53.3998 45.6127 53.1947 45.8062 52.9543 45.9466C52.7263 46.1071 52.465 46.214 52.1899 46.2594C52.4384 46.1481 52.6808 46.0237 52.9162 45.8868C53.1381 45.7302 53.351 45.5613 53.554 45.3809Z" fill="#AA6550"/>
<path d="M36.7295 42.042L37.2721 51.747L48.3371 50.999L48.0025 43.7747L46.3909 41.6055L36.7295 42.042Z" fill="#263238"/>
<path d="M34.2148 51.9638C34.2475 52.1501 35.1872 60.9398 35.1872 60.9398L51.6555 59.796L54.4421 59.422L53.1569 51.2375L51.189 50.7656L34.2148 51.9638Z" fill="#F68821"/>
<path opacity="0.4" d="M51.189 50.7637L34.2148 51.9632C34.2475 52.1495 35.1872 60.9392 35.1872 60.9392L52.3328 59.7465L51.189 50.7637Z" fill="black"/>
<path d="M46.6779 51.1105L37.2721 51.747L36.7295 42.042L46.3909 41.6055L46.6779 51.1105Z" fill="#455A64"/>
<path d="M40.2373 41.8851L40.4359 44.8757L40.9391 44.5874L41.2179 44.8757L41.5647 44.5874L42.1005 44.8757V41.8008L40.2373 41.8851Z" fill="#263238"/>
<path d="M44.1687 51.3154L43.5254 44.0312L49.8127 45.7639L50.4192 50.7918L44.1687 51.3154Z" fill="#F68821"/>
<path d="M49.8088 45.7652C49.7976 45.7839 49.7844 45.8012 49.7694 45.8169L49.6483 45.9597L49.1859 46.4874L47.5798 48.2894L47.5553 48.3166L47.5294 48.2908L46.6808 47.3932L44.4409 45.0268L43.7677 44.3032L43.5868 44.1047C43.5644 44.0827 43.5448 44.058 43.5283 44.0312C43.5532 44.0501 43.5764 44.071 43.5977 44.0938L43.7881 44.2842L44.4762 44.9914L46.7311 47.3442L47.5852 48.2432H47.5349L49.1669 46.4575L49.6442 45.9434L49.7734 45.8074C49.7838 45.7922 49.7956 45.7781 49.8088 45.7652Z" fill="#263238"/>
<path d="M46.2876 47.1153C46.3053 47.1248 45.8565 47.9844 45.2867 49.0356C44.7168 50.0869 44.2408 50.9315 44.2232 50.922C44.2055 50.9124 44.6543 50.0529 45.2241 49.0016C45.794 47.9504 46.2727 47.1058 46.2876 47.1153Z" fill="#263238"/>
<path d="M50.2727 50.7917C50.2564 50.8012 49.8212 50.1049 49.3003 49.2372C48.7794 48.3695 48.3701 47.6555 48.3878 47.6447C48.4054 47.6338 48.8393 48.3315 49.3602 49.2005C49.881 50.0695 50.2904 50.7822 50.2727 50.7917Z" fill="#263238"/>
<path d="M47.546 51.0315L47.1353 46.3926L51.1391 47.4969L51.5253 50.6983L47.546 51.0315Z" fill="#F68821"/>
<path opacity="0.4" d="M47.546 51.0315L47.1353 46.3926L51.1391 47.4969L51.5253 50.6983L47.546 51.0315Z" fill="white"/>
<path d="M51.1387 47.4969C51.1101 47.5424 51.0768 47.5848 51.0394 47.6234C50.9646 47.7118 50.8667 47.8247 50.7484 47.962L49.7284 49.1126L49.7039 49.1411L49.6781 49.1139L49.1341 48.5427C48.5751 47.9566 48.0719 47.4221 47.7102 47.0331L47.2858 46.5694C47.2309 46.5149 47.1809 46.4557 47.1362 46.3926C47.1966 46.4405 47.253 46.4933 47.3049 46.5503L47.7469 46.9978C48.1181 47.3786 48.6268 47.9076 49.1858 48.4938L49.7298 49.0663H49.6726L50.7103 47.9321L51.0177 47.6071C51.0544 47.5666 51.095 47.5297 51.1387 47.4969Z" fill="#263238"/>
<path d="M48.8947 48.3555C48.911 48.365 48.6309 48.9144 48.2678 49.5795C48.0594 49.9897 47.8297 50.3887 47.5796 50.7749C47.7667 50.3563 47.9755 49.9477 48.2052 49.5509C48.4137 49.1405 48.6439 48.7415 48.8947 48.3555Z" fill="#263238"/>
<path d="M51.4328 50.698C51.2029 50.3832 50.9922 50.0549 50.8018 49.7147C50.5905 49.3866 50.4002 49.0455 50.2319 48.6934C50.671 49.3376 51.072 50.0069 51.4328 50.698Z" fill="#263238"/>
<path d="M50.0972 47.3008V47.6734L50.682 47.7414L50.7132 47.4572L50.0972 47.3008Z" fill="white"/>
<path d="M48.0327 45.4082V45.9522L49.137 46.1344L49.1982 45.7183L48.0327 45.4082Z" fill="white"/>
<path d="M43.7228 54.0263L43.6684 51.3145L41.4692 51.4627L41.7045 54.218L43.7228 54.0263Z" fill="#F68821"/>
<path d="M50.8943 55.4524L47.2021 55.8027L47.512 59.0684L51.2041 58.7181L50.8943 55.4524Z" fill="#FAFAFA"/>
<path d="M51.1987 58.7222C51.1942 58.7016 51.191 58.6807 51.1892 58.6597C51.1892 58.6148 51.177 58.5563 51.1688 58.4829C51.1525 58.3251 51.128 58.1007 51.0981 57.8192C51.0396 57.2453 50.9621 56.4347 50.8587 55.4596L50.8914 55.4868L47.2017 55.8418C47.1935 55.8499 47.2615 55.7697 47.233 55.8037V55.8282V55.8567V55.9111L47.2438 56.0226L47.2642 56.243C47.2792 56.3885 47.2928 56.5326 47.3064 56.6768C47.3322 56.9638 47.3594 57.2439 47.3853 57.5186C47.4356 58.0626 47.4846 58.5862 47.5281 59.0663L47.4941 59.0391L50.1583 58.8025L50.9145 58.7386L51.1171 58.7236C51.1411 58.7218 51.1652 58.7218 51.1892 58.7236C51.1682 58.7285 51.1468 58.7317 51.1253 58.7331L50.9294 58.7562L50.1814 58.8351L47.5009 59.1071H47.4696V59.0758C47.422 58.5944 47.3717 58.0749 47.3186 57.5282C47.2933 57.2562 47.2665 56.9756 47.2384 56.6863C47.2248 56.5422 47.2112 56.398 47.1976 56.2511C47.1908 56.179 47.184 56.1056 47.1758 56.0322L47.1663 55.9206V55.8662V55.8377V55.8132C47.1378 55.8472 47.2044 55.7656 47.199 55.7738L50.89 55.4297H50.9199V55.4596C51.007 56.4429 51.079 57.2616 51.1307 57.841C51.1538 58.1198 51.1715 58.3414 51.1851 58.4992C51.1851 58.5713 51.1946 58.6284 51.1974 58.6719C51.199 58.6886 51.1995 58.7055 51.1987 58.7222Z" fill="#263238"/>
<path d="M50.6004 56.2383C50.6004 56.2587 49.9572 56.3417 49.1588 56.426C48.6783 56.4893 48.1949 56.5283 47.7104 56.543C47.7104 56.5239 48.3537 56.4396 49.1521 56.3553C49.9504 56.271 50.5991 56.2193 50.6004 56.2383Z" fill="#263238"/>
<path d="M50.5787 56.793C50.4504 56.8392 50.3178 56.8724 50.1829 56.8922C49.9354 56.9412 49.5913 56.9983 49.2092 57.0432C48.827 57.0881 48.4775 57.1126 48.2259 57.1207C48.0901 57.1329 47.9536 57.1329 47.8179 57.1207C47.9524 57.0942 48.0888 57.0787 48.2259 57.0745C48.4761 57.0514 48.8216 57.0201 49.2024 56.9752C49.5832 56.9303 49.9272 56.8814 50.1761 56.8392C50.309 56.8138 50.4435 56.7984 50.5787 56.793Z" fill="#263238"/>
<path d="M50.7348 58.0059C50.6059 58.0517 50.473 58.0849 50.3377 58.1051C50.0902 58.1541 49.7461 58.2112 49.3639 58.2561C48.9818 58.301 48.6336 58.3255 48.3807 58.3336C48.245 58.3468 48.1083 58.3468 47.9727 58.3336C48.1072 58.307 48.2436 58.2916 48.3807 58.2874C48.6309 58.2656 48.9777 58.233 49.3585 58.1881C49.7393 58.1432 50.0834 58.0943 50.3323 58.0521C50.4651 58.0266 50.5997 58.0112 50.7348 58.0059Z" fill="#263238"/>
<path d="M50.5488 57.3848C50.1049 57.4851 49.6559 57.5614 49.2038 57.6132C48.7535 57.6897 48.2995 57.7424 47.8438 57.771C48.288 57.6722 48.7369 57.596 49.1888 57.5425C49.6392 57.4669 50.0931 57.4142 50.5488 57.3848Z" fill="#263238"/>
<path d="M53.8084 62.4422C53.8084 62.4422 56.848 60.4308 57.0819 59.4026C57.3159 58.3745 57.4559 57.4388 57.4559 57.4388L54.2083 56.0938L54.5306 57.2634C54.5306 57.2634 53.3664 57.9556 53.2467 58.7947C53.1679 59.3537 51.6623 60.3111 51.6623 60.3111C51.5371 60.1598 51.3777 60.0403 51.1974 59.9625C51.017 59.8847 50.8207 59.8508 50.6247 59.8637L49.3599 59.9534L50.2153 61.8805L53.8084 62.4422Z" fill="#B78876"/>
<path d="M54.9959 59.6855C54.9518 59.7125 54.9035 59.7323 54.8531 59.744C54.7579 59.7753 54.6165 59.8066 54.4451 59.861C54.2517 59.9298 54.0727 60.034 53.9174 60.1683C53.7217 60.3352 53.5027 60.4727 53.2674 60.5763C52.832 60.7618 52.3485 60.8023 51.8883 60.6919C51.8075 60.6763 51.7298 60.6474 51.6585 60.6063C51.6292 60.5898 51.6056 60.5649 51.5906 60.5348C51.5755 60.5048 51.5698 60.4709 51.5742 60.4376C51.5765 60.4169 51.5839 60.3971 51.5958 60.38C51.6076 60.3629 51.6236 60.3491 51.6422 60.3397C51.6694 60.3302 51.6843 60.3397 51.6843 60.3397C51.6843 60.3397 51.6694 60.3397 51.649 60.3547C51.6347 60.365 51.623 60.3785 51.6148 60.394C51.6065 60.4096 51.6019 60.4268 51.6014 60.4444C51.5988 60.4725 51.605 60.5006 51.6192 60.525C51.6333 60.5493 51.6546 60.5687 51.6802 60.5804C51.7497 60.6146 51.824 60.638 51.9006 60.6498C52.3506 60.7414 52.8178 60.694 53.2402 60.5138C53.4702 60.4114 53.6845 60.2768 53.8766 60.1139C54.0395 59.9787 54.227 59.8762 54.4288 59.812C54.6029 59.7631 54.7443 59.7399 54.8368 59.7155C54.889 59.7013 54.9422 59.6913 54.9959 59.6855Z" fill="#AA6550"/>
<path d="M52.8907 61.2456C52.8907 61.2564 52.7343 61.1667 52.4759 61.0592C52.139 60.9215 51.784 60.8331 51.4219 60.7968C51.3158 60.7859 51.2111 60.7832 51.1105 60.7804H51.0914L51.0805 60.7641C50.9231 60.5177 50.7333 60.2936 50.5161 60.0977C50.3516 59.9495 50.2441 59.8733 50.2441 59.8652C50.2441 59.857 50.2768 59.876 50.3285 59.9087C50.4018 59.9562 50.4726 60.0075 50.5406 60.0624C50.7725 60.2514 50.973 60.4758 51.1349 60.7274L51.1064 60.7111C51.2097 60.7111 51.3158 60.7111 51.4246 60.7274C51.794 60.763 52.1548 60.86 52.4922 61.0144C52.5938 61.0606 52.6924 61.1133 52.7873 61.1721C52.8254 61.1911 52.8603 61.2158 52.8907 61.2456Z" fill="#AA6550"/>
<path d="M53.712 60.6934C53.712 60.7124 53.5066 60.7899 53.2673 60.9259C53.0279 61.0619 52.8525 61.2047 52.8389 61.1884C53.0633 60.9267 53.3722 60.7516 53.712 60.6934Z" fill="#AA6550"/>
<path d="M55.3588 57.0764C55.3588 57.0982 55.1467 57.0764 54.9046 57.1376C54.6625 57.1988 54.4966 57.3239 54.4775 57.3063C54.59 57.1919 54.7313 57.1102 54.8865 57.0698C55.0416 57.0293 55.2049 57.0316 55.3588 57.0764Z" fill="#AA6550"/>
<path d="M11.0179 55.915C11.4178 56.391 12.0937 56.1611 12.3861 55.8225C12.6785 55.4838 12.7737 55.0242 12.8594 54.5849C13.0525 53.5812 13.2456 52.5299 12.9464 51.5521C12.8692 51.2545 12.7116 50.984 12.4908 50.7701C12.3791 50.6652 12.2417 50.5915 12.0925 50.5564C11.9434 50.5213 11.7876 50.5261 11.6408 50.5702C11.3008 50.6926 11.1145 51.053 10.988 51.3862C10.613 52.3837 10.4653 53.4523 10.5555 54.5142C10.5977 55.0092 10.7024 55.5219 11.0179 55.9054" fill="#F68821"/>
<g opacity="0.2">
<path d="M11.0179 55.915C11.4178 56.391 12.0937 56.1611 12.3861 55.8225C12.6785 55.4838 12.7737 55.0242 12.8594 54.5849C13.0525 53.5812 13.2456 52.5299 12.9464 51.5521C12.8692 51.2545 12.7116 50.984 12.4908 50.7701C12.3791 50.6652 12.2417 50.5915 12.0925 50.5564C11.9434 50.5213 11.7876 50.5261 11.6408 50.5702C11.3008 50.6926 11.1145 51.053 10.988 51.3862C10.613 52.3837 10.4653 53.4523 10.5555 54.5142C10.5977 55.0092 10.7024 55.5219 11.0179 55.9054" fill="black"/>
</g>
<path d="M12.5775 58.3672C13.1324 58.015 13.8138 57.9144 14.468 57.9592C14.8202 57.9864 15.1901 58.0572 15.4499 58.2965C15.7096 58.5359 15.794 58.9901 15.5437 59.2376C15.3795 59.3716 15.1735 59.4438 14.9616 59.4416C14.4557 59.4811 13.8872 59.4416 13.5119 59.783C13.297 59.9761 13.1692 60.278 12.9012 60.3882C12.7664 60.4322 12.621 60.4311 12.4868 60.3853C12.3526 60.3394 12.237 60.2512 12.1573 60.1339C12.003 59.8918 11.9479 59.5995 12.0036 59.3179C12.0201 59.126 12.0804 58.9406 12.1799 58.7757C12.2794 58.6109 12.4155 58.4711 12.5775 58.3672Z" fill="#F68821"/>
<path d="M10.1065 56.7317C10.452 56.2394 10.4656 55.5648 10.2425 55.0059C10.0195 54.4469 9.58701 53.9954 9.10557 53.6364C8.53569 53.2144 7.88894 52.9076 7.20157 52.7333C6.93468 52.6529 6.65364 52.6306 6.37742 52.668C6.24181 52.6905 6.11358 52.7452 6.00353 52.8276C5.89347 52.91 5.80482 53.0176 5.74502 53.1413C5.58862 53.5194 5.80894 53.9424 6.03742 54.2824C6.4394 54.8819 6.88728 55.4494 7.37701 55.9796C7.77277 56.4053 8.22022 56.8201 8.77918 56.9792C9.33814 57.1384 9.89709 57.0622 10.1514 56.6624" fill="#F68821"/>
<path d="M11.6775 63.5723C11.6892 63.4949 11.6928 63.4165 11.6884 63.3384C11.6884 63.1697 11.6884 62.9576 11.6884 62.7046C11.6919 62.3914 11.7119 62.0787 11.7482 61.7676C11.7972 61.3887 11.8768 61.0144 11.9862 60.6483C12.0921 60.2828 12.2496 59.9343 12.454 59.6133C12.6204 59.3518 12.8429 59.1307 13.1055 58.966C13.2834 58.8566 13.4776 58.7763 13.6808 58.728C13.7579 58.717 13.8339 58.6992 13.9079 58.6749C13.8295 58.6713 13.751 58.6767 13.674 58.6913C13.4615 58.7273 13.2571 58.8005 13.0701 58.9075C12.7929 59.0706 12.557 59.2954 12.3806 59.5644C12.1677 59.891 12.0036 60.247 11.8937 60.6211C11.7832 60.9927 11.7049 61.3731 11.6598 61.7581C11.628 62.0721 11.6149 62.3877 11.6204 62.7033C11.6204 62.9753 11.6367 63.1901 11.6462 63.3397C11.6477 63.4182 11.6582 63.4962 11.6775 63.5723Z" fill="#263238"/>
<path d="M11.6772 63.0849C11.6808 63.0492 11.6808 63.0132 11.6772 62.9774C11.6772 62.8972 11.6609 62.7952 11.65 62.6714C11.6255 62.4062 11.5915 62.0214 11.563 61.5454C11.5018 60.5934 11.4664 59.2769 11.495 57.8231C11.5235 56.3692 11.6201 55.0541 11.7302 54.1075C11.7547 53.8695 11.7806 53.656 11.8078 53.4683C11.835 53.2807 11.854 53.1188 11.8758 52.9883C11.8975 52.8577 11.9084 52.7638 11.9206 52.6836C11.9278 52.6483 11.931 52.6122 11.9302 52.5762C11.9158 52.6096 11.9062 52.6448 11.9016 52.6809C11.8853 52.7598 11.8649 52.859 11.839 52.9814C11.8132 53.1038 11.7846 53.2738 11.7547 53.4615C11.7248 53.6492 11.6922 53.8614 11.6622 54.0994C11.5081 55.3345 11.4205 56.5771 11.3998 57.8217C11.3712 59.2782 11.4161 60.5988 11.495 61.5508C11.5317 62.0268 11.5766 62.4117 11.6133 62.6755C11.631 62.7993 11.6473 62.8999 11.6582 62.9802C11.6609 63.0156 11.6673 63.0507 11.6772 63.0849Z" fill="#263238"/>
<path d="M11.4571 60.5502C11.4558 60.4431 11.4458 60.3362 11.4272 60.2306C11.3959 60.0266 11.3415 59.7329 11.2517 59.3738C11.1433 58.9548 11.0116 58.542 10.8573 58.1376C10.6714 57.6407 10.4506 57.1576 10.1964 56.6919C9.7498 55.8326 9.15072 55.0616 8.42835 54.4166C8.30247 54.3071 8.17033 54.2049 8.03259 54.1106C7.97275 54.0685 7.91971 54.0263 7.86531 53.9937L7.71571 53.908C7.62461 53.8519 7.52962 53.8024 7.43147 53.7598C7.41787 53.7815 7.83947 53.9801 8.38347 54.4683C9.08359 55.1208 9.66725 55.888 10.1093 56.7368C10.3627 57.1973 10.5857 57.6739 10.7771 58.1634C10.9566 58.615 11.0872 59.0325 11.1851 59.3874C11.283 59.7424 11.3469 60.0321 11.3891 60.2334C11.403 60.3407 11.4258 60.4467 11.4571 60.5502Z" fill="#263238"/>
</svg>
