<svg width="18" height="29" viewBox="0 0 18 29" fill="none" xmlns="http://www.w3.org/2000/svg">
<path d="M1.04335 0.33362H16.7168C17.0134 0.327277 17.259 0.565528 17.2655 0.86595V1.59399C17.259 1.89441 17.0134 2.13266 16.7168 2.12632H1.04335C0.746758 2.13267 0.501168 1.89441 0.494629 1.59399V0.86595C0.501168 0.565528 0.746758 0.327276 1.04335 0.33362Z" fill="#F0CD0A"/>
<path d="M1.62305 2.12646H16.1372V11.4736C16.1372 11.8337 15.8281 11.9667 15.5344 12.139L8.86469 15.9749L2.22587 12.139C1.93219 11.9667 1.62305 11.8337 1.62305 11.4736V2.12646Z" fill="#C75C5C"/>
<path d="M1.62305 2.12646H5.52596V14.0491L2.22587 12.139C1.93219 11.9667 1.62305 11.8337 1.62305 11.4736V2.12646ZM12.2343 2.12646H16.1372V11.4736C16.1372 11.8337 15.8281 11.9667 15.5344 12.139L12.2343 14.0413V2.12646Z" fill="#4F5D73"/>
<path d="M8.88009 28.1166C13.7844 28.1166 17.7602 24.0895 17.7602 19.1218C17.7602 14.1541 13.7844 10.127 8.88009 10.127C3.97575 10.127 0 14.1541 0 19.1218C0 24.0895 3.97575 28.1166 8.88009 28.1166Z" fill="#F0CD0A"/>
<path d="M8.88017 26.8796C13.1101 26.8796 16.5391 23.4063 16.5391 19.1217C16.5391 14.8371 13.1101 11.3638 8.88017 11.3638C4.65023 11.3638 1.22119 14.8371 1.22119 19.1217C1.22119 23.4063 4.65023 26.8796 8.88017 26.8796Z" fill="#D2B309"/>
<path d="M8.88017 26.6291C12.9735 26.6291 16.2918 23.2679 16.2918 19.1217C16.2918 14.9754 12.9735 11.6143 8.88017 11.6143C4.78682 11.6143 1.46851 14.9754 1.46851 19.1217C1.46851 23.2679 4.78682 26.6291 8.88017 26.6291Z" fill="#E3C101"/>
<path d="M7.50452 17.6263C7.21857 17.6263 6.97898 17.6498 6.69302 17.6419C6.17801 17.6451 5.66394 17.687 5.15504 17.7672C5.05304 17.7911 4.95616 17.8336 4.86909 17.8925C4.77828 17.9483 4.7183 18.0438 4.70679 18.1508V18.2291C4.73907 18.4039 4.82255 18.5648 4.94637 18.6909L6.72393 20.0766L6.39161 21.2039C6.33751 21.3917 6.28341 21.5718 6.22931 21.7675C6.13648 22.0255 6.09447 22.2995 6.10565 22.5738C6.09824 22.7939 6.26717 22.979 6.48435 22.9887C6.72095 22.9726 6.94602 22.8792 7.12582 22.7226C7.31903 22.5973 7.48906 22.4721 7.67454 22.339L8.34693 21.8693C8.39409 21.8352 8.44312 21.8038 8.49377 21.7753C8.84928 21.5248 8.67925 21.5248 9.17388 21.8536C9.49075 22.065 10.5418 22.8322 10.681 22.8948C11.0751 23.067 11.4461 22.9966 11.4461 22.5582C11.4403 22.196 11.3696 21.8379 11.2374 21.5013L10.8201 20.0766C10.9023 19.9963 10.993 19.9254 11.0906 19.8652L12.4431 18.8084C12.6802 18.6716 12.8296 18.4193 12.8372 18.143C12.8174 18.0412 12.7592 17.9513 12.6749 17.8925C12.3889 17.6811 11.9484 17.7359 11.647 17.6811C11.5388 17.6576 10.1322 17.6263 10.0317 17.6263C10.024 17.548 9.83853 17.0626 9.79216 16.9296L9.28207 15.5518C8.88019 14.7298 8.37784 15.1447 8.13052 15.8806L7.50452 17.6263Z" fill="#FFF2B5"/>
<path d="M10.9668 12.7729C13.81 13.4582 15.8404 15.9978 15.9112 18.9572C15.9819 21.9166 14.0753 24.5528 11.2682 25.3767C12.9917 24.0458 14.1278 21.7678 14.1278 19.1844C14.1278 16.4601 12.8603 14.0725 10.9668 12.7729Z" fill="white" fill-opacity="0.2"/>
<path d="M1.62305 2.12646H16.137V2.70578H1.62305V2.12646Z" fill="#1A1A1A" fill-opacity="0.14902"/>
<path d="M8.88019 10.1271C11.1094 10.1243 13.2575 10.9739 14.8949 12.5062L15.233 12.3113C13.5641 10.5676 11.2696 9.58206 8.87186 9.57911C6.47417 9.57616 4.17732 10.556 2.50415 12.2956L2.86697 12.5048C4.5042 10.9734 6.65169 10.1243 8.88019 10.1271Z" fill="#1A1A1A" fill-opacity="0.101961"/>
</svg>
