<svg width="25" height="24" viewBox="0 0 25 24" fill="none" xmlns="http://www.w3.org/2000/svg">
<path d="M5.90039 19.2004C6.36156 18.6839 8.52144 16.3071 9.1544 16.3071H15.8468C16.764 16.3071 18.6364 18.2773 19.1004 18.9718M22.1004 12.0004C22.1004 17.3023 17.8023 21.6004 12.5004 21.6004C7.19846 21.6004 2.90039 17.3023 2.90039 12.0004C2.90039 6.69846 7.19846 2.40039 12.5004 2.40039C17.8023 2.40039 22.1004 6.69846 22.1004 12.0004ZM15.9392 8.72835C15.9392 6.89684 14.3931 5.40039 12.5007 5.40039C10.6083 5.40039 9.06213 6.89684 9.06213 8.72835C9.06213 10.5599 10.6083 12.0563 12.5007 12.0563C14.3931 12.0563 15.9392 10.5599 15.9392 8.72835Z" stroke="#0B0B0B" strokeWidth="2"/>
</svg>
