<svg width="36" height="36" viewBox="0 0 36 36" fill="none" xmlns="http://www.w3.org/2000/svg">
<rect width="36" height="36" rx="18" fill="#FEF3E9"/>
<path d="M11.5996 25.2004C12.0608 24.6839 14.2207 22.3071 14.8536 22.3071H21.546C22.4632 22.3071 24.3356 24.2773 24.7996 24.9718M27.7996 18.0004C27.7996 23.3023 23.5015 27.6004 18.1996 27.6004C12.8977 27.6004 8.59961 23.3023 8.59961 18.0004C8.59961 12.6985 12.8977 8.40039 18.1996 8.40039C23.5015 8.40039 27.7996 12.6985 27.7996 18.0004ZM21.6384 14.7283C21.6384 12.8968 20.0923 11.4004 18.1999 11.4004C16.3075 11.4004 14.7613 12.8968 14.7613 14.7283C14.7613 16.5599 16.3075 18.0563 18.1999 18.0563C20.0923 18.0563 21.6384 16.5599 21.6384 14.7283Z" stroke="#F68821" strokeWidth="2"/>
</svg>
